<mxfile host="Electron" agent="Mozilla/5.0 (Windows NT 10.0; Win64; x64) AppleWebKit/537.36 (KHTML, like Gecko) draw.io/25.0.2 Chrome/128.0.6613.186 Electron/32.2.5 Safari/537.36" version="25.0.2">
  <diagram name="第 1 页" id="ZHETGM6ogJcP_vNtGF9w">
    <mxGraphModel dx="1711" dy="947" grid="0" gridSize="10" guides="1" tooltips="1" connect="1" arrows="1" fold="1" page="0" pageScale="1" pageWidth="827" pageHeight="1169" math="0" shadow="0">
      <root>
        <mxCell id="0" />
        <mxCell id="1" parent="0" />
        <mxCell id="pk3eSVctqFGyBk3BA1aZ-2" value="" style="shape=image;verticalLabelPosition=bottom;labelBackgroundColor=default;verticalAlign=top;aspect=fixed;imageAspect=0;image=data:image/png,iVBORw0KGgoAAAANSUhEUgAABtcAAATRCAYAAABD3sn4AAAAAXNSR0IArs4c6QAAAARnQU1BAACxjwv8YQUAAAAJcEhZcwAADsMAAA7DAcdvqGQAAP+lSURBVHhe7N0JnE5138fx3xj7vu+EiuxU1kpRqVsUKpWn1F1aJEoLskRJRZQlidyK7hYqUajcUkkJkbLvknXs+zo8ff9zzrjmmhmzM8vn/XqdZ/7/c851rnNdM/czur7z+/1DzvzDAAAAAAAAAAAAAMQpk/cVAAAAAAAAAAAAQBwI1wAAAAAAAAAAAIB4IlwDAAAAAAAAAAAA4olwDQAAAAAAAAAAAIgnwjUAAAAAAAAAAAAgngjXAAAAAAAAAAAAgHgiXAMAAAAAAAAAAADiiXANAAAAAAAAAAAAiCfCNQAAAAAAAAAAACCeCNcAAAAAAAAAAACAeAo58w9vHC/Hjh2zN954w1avXu3tiV2uXLmsQoUKVrlyZatfv74VLFjQOwIAAAAAAAAAAACkPQkO144ePWp9+vSxZcuWeXviJyQkxOrUqWOdOnUiZAMAAAAAAAAAAECadN7aQirDmz9/vnXr1s22bNni7UVqsWvXLps+fboNGTLEOnbsaLfffrv98ssv3lEAAAAAAAAAAADIeV9zbevWrTZ8+HA7fPiwtwepgdp8jhgxwv73v//Zxo0bXfvP1O706dO2b98+O3XqlLcHAAAAAAAAAAAgZSVLuJYzZ07r27evjR8/Pso2cOBAa9SokWXKFPVpli5darNmzfJmQOKsX7/eHn30UWvVqpV16NDBvvrqK+8IAAAAAAAAAABAykiWcE3rqeXLl88KFSoUZatatap17drV7r33XneOz28ReeLECW8PkHCqsDt06JCrYNu0aZO3FwAAAAAAAAAAIOWEnFHSlQBHjx61Pn362LJly7w9Zrly5bKXX37ZKlas6O2JSut5KWTbsWOHt8esaNGiNmjQIBfCBVNY8vvvv9u3335rS5YssQMHDrj9qoArVqyYNWzY0Jo3b+6uEZu1a9dGqWTKli2btW7d2ooXL+6CmC+++ML+/PNPCw8Pd/fdpk0bu+SSS7yzz9Jz6z6+//5719Ly5MmTbn/27Nndta677jpr1qyZew/iojDx119/dddbs2ZNZGvMLFmyWMmSJa1x48Z20003Wd68ed3+YHq87lv34atUqZJ7fn0b9XpUMbhu3brI+yxQoIBdffXVduedd0Z7r7dv326TJk2y48ePW1hYmHt8oBo1akR7j/3nC6bv2apVq2zGjBm2aNEi2717t7sn0Xtz6aWX2i233GJ169a1zJkzu/3nouvNmzfPpk6dGuN7pffphx9+cO0spUiRIvbqq69aiRIl3DxYcvxMAQAAAAAAAAAAnJdwLSGPWblypQvdtm3b5u2JmUKRFi1a2AMPPGBZs2b19p71yy+/WP/+/b3Z2edTwDdkyJAoa4qpqq53795Wr149b09EkDVx4kT77LPPIoOq2OTJk8eefPJJq1+/fpQKPZ/eYoVqQ4cOtYMHD3p7Y6bQ7v/+7/+sZcuW0dppxvQ+Xnvttfb0009HrpcW27dT99i9e3erVauWtydinbVevXolaP07PZ+C0kCqIHvzzTddoBmXiy++2L3XCsNis3PnTheUKayLj/z589szzzxjl19+ubcnquT6mQIAAAAAAAAAAEiWtpDJ5aeffrKePXvGGYKIKpGmTJniQqVTp055e89t8+bNNnr06CjBmqhSTFVoPoVNAwYMsI8//jjOYE0UmOl83X8whV0K6F555ZU4gzXRvY0dO9Y+/fTTWIOyQDrn888/P2ewJnrukSNHuuAquej5Jk+ebE899VS8gjVRVd2oUaNi/Z7pvR88eHC8g7WCBQu64Cy2YC2lf6YAAAAAAAAAAEDGcl7CNQUmag0ZSJVkgW0K1fpPoUZw8KVKrjp16liTJk2sVKlS0SrD1Bpw7ty53ix2R44cceHSnj17vD1nKVzTmnGiwGjcuHGu0iwhFMJ98MEHrr1iIFXQffjhhy64CaRKMrUiVCVY4cKFvb0R/MBM70lcdP2PPvronMGaT+FiQl/XuSgoiymAVAWYQi9Vp8XU4nLx4sWxhmdq5am2jYGqVavmAjJV/qm1p34mfPp+qsIwpjAspX+mAAAAAAAAAABAxpPi4ZpCn++++y5a6FS6dGkXMImCkQkTJkSp7FLgoRZ9Cm/69u3r2v6p6kwVYv7jRI/95ptvXBvHc9F9KGATtRHU+l9dunRxX7W2WO7cud2x5cuX26xZs9zYp3vRGl8Kz6ZNm+bWAVNoE1wtpVAp8D60rpeCn8DwSWuGPfTQQy4QU2CkFovvv/++Pfvss+6YT4Gk1geLKzTT69dWpUoVd0+6N93jmDFj7Morr/TOOkvrjvlBlFpy6v50vu4lmPbpWOAW2BJSLR7VvtKn74uq2BQM6r3S69LrDH5tam+5YsUKb3aW9mu9tkBqY9mvXz8XRGpNPL13TzzxRJR12xSE/f33394swvn4mQIAAAAAAAAAABlPioVrCkpUKTVs2DD773//Gy0kuuKKKyLXtVIVk6qZAmn9svbt20db+6pq1ar2r3/9y5tF2LBhQ7za/kmjRo1c8PT444/bDTfc4L5qU1ije1SwpnsPpDXQOnXq5KqxRCFNuXLl3Bpm1atXd6HabbfdZsOHD3ehoe+3335z1V2BdF6rVq2irKem611zzTVR1nwTra22f/9+bxY73YPCIt2TriUlSpSwxx57LNraZrpecoVGeq5bb73VKleu7O793XfftRtvvDHK90znKLwsUKCAtyfCpk2bvNFZCj+D21bq5yD4Z0DX878XogBt6dKl3izC+fyZAgAAAAAAAAAAGUeyhGuqsvKrwPztjjvusEcffdRmzJgRrSWiKpDUks+nKqbAQEtBV9OmTaNUJwVSxVi2bNm8WUSF2Pbt271Z7BQ0tWvXznLkyOHtiUrBkwKtQArLVLXmh1aB1NpSAdarr75qDz/8cLTQRuFOYKio6qjrrrsuxmvptapVYaC9e/dGa6cZTI9Tq0TdSzBV6BUtWtSbRVAbxeDwMCn0vC+//LL16NEjSvVXIFUt6mckkF89F5fA1qE+vc/BzxV8/fP1MwUAAAAAAAAAADKW87LmWiAFXKoCC1yLa/369d4oggIbbbt3745x0xpaoaGh3tkRLR/Dw8O9Wey0dlfx4sW9WXQKgYLXZCtfvny0qqtAqhbTdYMDMwU7weGMrqOKtZhek7bgEFKvK3hfMF1T9xgThYjB67mlBK1hFhxaHTp0yBYuXGhvvvmm9erVK1r4FRO9h4EVfaIKsmCqVFPwGCj4+c/XzxQAAAAAAAAAAMhYzlu4puCkbt269vrrr7vKNZ9CqODqLFWQaW0vVZnFtKkFor9+WkKoCi2mqjGfApvg65YpU+acj4lNTC0O1QpRLShjek3ahg4d6p0ZfwopFW5daKr0mj59ultzTeuw3XXXXfbCCy/YzJkzXXAVH3otgT8b8sMPP9iWLVu8WUTF25dffhklBFWIqNaUvvP5MwUAAAAAAAAAADKWZAnXFD6pBaGq0oI3tTp84IEH3DpnClu070IpW7asN4qZKpUC2zhKYDVTahRT1dj5pPXbtNaaAqoRI0bYmjVr7OTJk97RCGrjmCVLFm8WO70OBXOqMPNt3brVOnbsaH369LGBAwfaQw89ZF999ZV3NEKVKlXs0ksv9WYAAAAAAAAAAAApJ1nCtZw5c7rw4/3334+2qSLozjvvdO0Y41sBptaABQsWjBbUxbaVKlXqnK0bUwsFTDHdf2ybKu1y587tPTr1URWZArXJkydHCdT0fVY7ymuuucZVi/3nP/+xihUrekfP7bLLLnNhWmA1nq7922+/2Y8//hitIq1kyZLu/OD17oKl158pAAAAAAAAAABwfoWcCS7VioNa7ilIW7ZsmbcnYj2rl19+Od4BSiAFNK+88orNmzfP2xOxLpvaR+prYv3yyy/Wv39/bxahZ8+e1rBhQ28W3cqVK613795R2gNef/319vTTT3uz+NO6YHq+devWeXsigqN+/fq5MDIxYnrvq1atai+++KJrjRgTVXsplPIVLVrUBg0aZIUKFfL2REjM+/XTTz+5a+l76KtXr55bUy8wmIrpvq+99loXvMVG5+p1xbZWmwI8VUXquRSaBUqpnykAAAAAAAAAAIDztuZabNQKUFVCgbT2mdYnO99iWr9s48aNLiiLzV9//WUDBgxw5wVS2KXqrUDbtm2Ltg5baqY2meeyYMGCKMGaQq727dtHq/hSfhvXtXwK4t5++20X7ClYy5MnjwvibrjhBrfddNNNbl238ePHu8AuOFiT1PQzBQAAAAAAAAAA0pcLHq6JKroCW0YqsPn666+jBDeBFNZ8/PHH9uSTT0YLtZJCYVi5cuW8WQSFZ2pJGBPdx7Rp02z27Nmugmro0KG2e/dud0wBT3Al3/79+23WrFnR1nXz6fUOHjzYVWyd7xBOIVa2bNm8WYS4wqjg74/CyZjaWOq1KFiMi96X9957z72nagWp++nWrZurcOvSpYvbOnfubDfeeGOMoVqg1PIzBQAAAAAAAAAA0pdUEa5Vrlw5WqXRr7/+6iqYgtsCnj592r744gubMGGCrV271p555hk3PnHihHdG4mndrsaNG0cLZUaNGuWqtAJDMe3/8MMPXWAjuq8ZM2a4Vok+tUhUaBVoypQp9sknn0S7X83HjBlj33//vc2fP9+Fdd9995277vmgSjutCRdIrSL9kE+v/e+//4625lkgBYt+uOjT/X/11VcuWAyk/cEho6rLFi5c6M0i3pMdO3ZEOy8+UsvPFAAAAAAAAAAASF8u+JprPgUwCrGCb0eBT6VKlax48eIuoFm+fHm0cKRs2bJuja3AdoSJWUNM9Ppeeukl+/PPP709ERS4ab0yVURpTbaY7kPreb366qtWokQJN9drGTlypKvECqb2k9WrV7d8+fK5AGnNmjV27Ngx72iEK664wnr16uVCP0nJNdf27dtn3bt3dwFaIL3/+fPnt+PHj9uBAwesTZs2dv/997tjChc/+ugjN/aVL1/eHnnkERdsKSz79NNP7eeff472fc2UKZPVqlXLfV8feugh937Edg/6+Qpep04VhqpeU4imEFNVc8GS+2cKAAAAAAAAAAAgVVSuyb/+9S+7/vrrvdlZag+4dOlSmzlzpqseCw5BFJTcc889yRaCKKTq2LGjC14CKaBRCKagKrb7ePDBByODNVEgpyBKIVowBWm6jl7XkiVLogVrqnhr27ZtZLCW0hSgNWjQwJudpfdf1WsK1kSVZf4adHXq1HHBV6ANGzbY888/b+3atXMtFufMmeOCMwVpgVQttmjRIlu1apV7DlHQqKAsmN5r3UPgpvfu22+/tSFDhtj//d//2bvvvhut5WNq+ZkCAAAAAAAAAADpR6oJ17RGmVohtmzZ0lU1xYdCm8cff9yuueYab0/yKF26tL3wwgvua3wojHnggQdivA+FT71797arrroqSrvJc1HQpXXGVCV3Pt1xxx0xBoGBNm/eHLkm2aWXXmq33377OV+Xjt15550uaIvp/VRQ57df1Ln33Xef3XrrrfF+r0RB3eTJk12VXGCVWmr6mQIAAAAAAAAAAOlDqgnXRGHIww8/bMOHD7fLL7/chVYx0f4mTZrYO++8Y02bNk1QEBNfF110kbsPhUKB1WiB/NaGqp5SgBPbfShgUzWX2lSqdWZsQY9aH+o6o0ePdq//fPODwGbNmsX43mufKsEqVKjg5n5w1qVLFxcIBtPrUeWeAji1o1SLS73+wPdJz+lXrqmC7PPPP7d58+a5eUKpkm379u3eLEJq+pkCAAAAAAAAAABpX4LXXDufVJGkdbvWr1/v1htTy0at6aUgR6HJ+aTnV3Cj9cAUjmnNLwVGiWnbqPaFu3fvtnXr1rmx1gtTmKe2iPGtsEppqiYLCwtzVWq6p4svvtit0xbb+67vlV6T1o7TWO+PWmvGdL6urYo1tb703z+13FT4tnXrVjdX2HXXXXfZDTfcEOU9UUtI3Ze2zz77LLJFpS+udfVS088UAAAAAAAAAABIe1J1uIaMY8SIETZ9+nRvZm7ttR49epwz8Pr555/t1VdfjdIK8oknnnBrrQEAAAAAAAAAAKSEVNUWEhmTKsj++usvbxZ/qm4LDQ31ZhFU/QcAAAAAAAAAAJBSCNdwwWl9s+B2mIsWLbKffvopSlVaILWHnDhxomur6VOwVqpUKW8GAAAAAAAAAACQ/GgLiVRh3LhxLiwLVrhwYatatapbk05rtK1du9a2bNliq1atspMnT3pnRbj++uutc+fOrJ0GAAAAAAAAAABSDOEaUoXDhw9bv379bMmSJd6ehClbtqz17dvXihUr5u0BAAAAAAAAAABIfoRrSDUUsL333nv27bff2unTp72956Z2kjfddJP9+9//tly5cnl7AQAAAAAAAAAAUgbhGlKdAwcO2Lx582zhwoW2Zs0aO3HihO3bt88Fbnnz5rVs2bJZuXLlrG7dunb11Ve7fQAAAAAAAAAAAOcD4RoAAAAAAAAAAAAQT5m8rwAAAAAAAAAAAADiQLgGAAAAAAAAAAAAxBPhGgAAAAAAAAAAABBPhGsAAAAAAAAAAABAPBGuAQAAAAAAAAAAAPFEuAYAAAAAAAAAAADEE+EaAAAAAAAAAAAAEE+EawAAAAAAAAAAAEA8Ea4BAAAAAAAAAAAA8US4BgAAAAAAAAAAAMQT4RoAAAAAAAAAAAAQT4RrAAAAAAAAAAAAQDwRrgEAAAAAAAAAAADxRLgGAAAAAAAAAAAAxBPhGgAAAAAAAAAAABBPhGsAAAAAAAAAAABAPBGuAQAAAAAAAAAAAPFEuAYAAAAAAAAAAADEE+EaAAAAAAAAAAAAEE8hZ/7hjdMc3frmzZttw4YNljdvXqtWrZplzpzZOwoAAAAAAAAAAAAkrzQZrp0+fdrWr19v//nPf2zJkiUuZKtataq9+OKLliNHDu8sAAAAAAAAAAAAIHmlmXDt1KlT9vfff9vMmTPthx9+sH379nlHIhCuAQAAAAAAAAAAIKWlmTXX3njjDXviiSds8uTJLlgLCQmxSy+91PLnz++dAQAAAAAAAAAAAKSsNBOu+fLkyWMtWrSwsWPH2quvvmqlSpXyjgAAAAAAAAAAAAApK82Ea61bt7Zx48bZxx9/bI899pgVLVrUOwIAAAAAAAAAAACcH2kmXLvkkkuscOHCrh0kAAAAAAAAAAAAcCGkubaQAAAAAAAAAAAAwIVCuAYAAAAAAAAAAADEE+EaAAAAAAAAAAAAEE+Ea/84ceJEkjYAAAAAAAAAAABkDCFn/uGN05yjR49anz59bNmyZVa1alV78cUXLUeOHN7R+Dt06JCdPHnSmwEAAAAAAAAAACAjKlCggDeKHeHaPwjXAAAAAAAALrxMmTK5z3ZCQ0O9PclDH38dO3Ys2T7/yZo1q2XPnt2bndvp06fdZ1jh4eHeHqSEkJAQ97OTOXNmb4/Zp59+ah999JEbX3PNNfb000+7sehnQo/xBZ5bpUoV69WrV+TnjPre6Xuo7yUAIHXLtvNXCz28yZslzJGyrf75x0gWwrX4Onz4sDdKONpCAgAAAAAAJA+Fajlz5owSkCQHP+BKrs9xsmXL5j6DCgxnYqNg5siRI3bq1ClvD1KCgln97GTJksXbYzZ+/HgbNmyYGzdv3tz69u3rxqKfCT3GN2vWLOvatasb16lTxwYPHuyuJ/re6XtIQAoAKed47z7eKOGy9XvRG/3zb4mj27xRwoVnK0y4dr7s3bvXG8WvVBAAAAAAAADpy4oVK6xjx4524MABK126tI0ZM8YKFy7sHcWFcq5wLdi5wjUAQCxOnbLw3xZ4k4QJyZXbMlWv7s3Mjv/8szdKuGxXXeWNzh/CtSQiXAMAAAAAAEg5CkSmTp3qzeInb968NmLECKtcubK3J2URrqVOCQnXAs8lXAOQ3i3c8Zv9vn2hN0uYK0rUsdpFL4+YnDplZzb/HTFOhJBy5b1R2nO29hkAAAAAAAAA0okiRYp4I7MdO3a41o6xOXTokDcyK1asGMEagFRpw4FFid7CT0ddd7RIziKJ2qLInNkFZInd0jIq15KIyjUAAAAAAICUM2XKFPfZT6Bt27bZ3Llz3VgBSoMGDdw6bWvXrrXdu3db7ty53edEl1xyiTsnpVG5ljotXrzYOnXq5D5DLFmypPu+FC1a1Dt6ltbi69atm/30009u3rlzZ2vXrp0bA0BymPz7Fm+UcC1rl/JGZuv2LzCLe7nPGJXLXctCM51dlxJJQ7iWRIRrAAAAAAAA59fs2bPt6aefduPU0MKPcC112rdvn3Xo0MHWrFljmTJlcm0hmzVr5h09a926de68PXv2uM8Whw8fbrVq1fKOAsioTp0+Y2GHjnuzhCuZN7s3Mnv921XeKOGeu6mSN0JqQriWRIRrAAAAAAAA51d8w7XAqrfbb7/dKlWK+gHlwYMHbdy4cS4U0zpt999/v+XJk8c7Gv3x5cqVs++//94WLVrk9jVs2NCuvfZaW7lyZazhmj56++KLL9w5UqNGDbf+V6D9+/fb119/bTNmzHCVd6L14nSenkPBkISHh9vnn3/uKvTk6quvtkaNGrlxsA0bNtjEiRPdY0qUKGH33HOPZc9+9oPejGL06NFukwoVKriflTJlyri5qB2kqtbmzZvn5qy3BqR9e9cs9kaJU+DSiHBd4drvW/a5cULlzZ7FKhXJ7c2QHqWJcE23qH+cnDp1ytsT4dixYzZo0CBbvXq1VaxY0Z599tlo/0jQP4iyZs3qzZIf4RoAAAAAAMD5Fd9wTZVKU6dOdeM33ngjWhC1a9cua9++vW3evDnGirPAx7/88ss2bdq0yHaUcvfdd7vPo85VuTZr1izr3bu3HT9+3IU7Q4cOdWGX6DOv6dOn24ABA2JdD6x27drWv3//yHaGCuB69eplp0+fdkHdsGHDXBvMYG+//baNHTvWjR955BG3ZURhYWGuNaSq0yRbtmyujWjBggVdO8j58+e7cyRXrlw2ZMgQ954DuBASF2RF0P8fzOxGu5bPt79mTXTjhCp3w91W6LIrvRkQuzQRrgVWqCVUz5493V/4pBTCNQAAAAAAgPPrQoRr6pqkEE2hlq9fv372r3/9K9ZwTZ9ldenSxbUbVJjz5ptvuuv4AoM3UWVczZo13WdhCvFUWSeqjnvllVdcMKRrqYWhwiKFQWphqJAtUGA7RD3vyJEj7eKLL/aOZjyrVq2yrl272pYtsa95pPe2e/furlowJCSRCxoBSKI//tkiKnMT7rZ/tohwDTgfImrKAQAAAAAAAMRKQdlll11m7777rn3zzTf26aefugqo2Gzbts0tYaIwzA9uAoM17VcIp2AtS5YsrgJO11TYpiDto48+cpVu8ttvv7mASBSWKVCUw4cP25w5c9w4kLo8bdy40Y31nIFtEDMitQNV+882bdq470Wg0NBQu+qqq+yDDz6wFi1aEKwBiXDqZHiit+hCE7kB51eaXnMtNaByDQAAAAAA4Py6EJVrxYsXdxVgMQVVwZVrai34+uuvu3W8tF7aE088Yffdd1+U4EavQYGaKuHUdUnnBwc/48ePd20fRa+3bdu2bvznn3+6VocK11SRpvtS6Cb6qE/X0nprem61s2zatKk7BnPvtyr7/ApErbWXkkvKABnBey/Osu1/JbylY8kKBe3+Xtd5MyBtoXINAAAAAAAAiEPdunVdcBYXrZ2mQEzBmij8a926dbSKKK315Qc8l156qWsBqbAvcCtUqJA7LuvXr/dGEZVYah8pmzZtspUrV7qx6A/BFy5c6MalSpWyWrVquTEiKHBUEKkQVRvBGgAgMahcSyIq1wAAAAAAAM6vC1G51rlzZ2vXrp0bBwusXAuka44YMcKFXMECrx0fWgtMj/FNmjTJtY+UW2+91bWTVIAXWBGnNojPPfccrQ4BRBN+6rStW7jZmyVM3iK5rHiFs+H//l1HvFHC5Ssc/f93A2kBlWsAAAAAAABACti6dav98ccf3ixpSpYs6Y0i1K9fP3Kf1mTTGm/h4eE2Y8YMF6zlyJHDtYMkWAMQm5PHTiVqC6aALLEbkFYRrgEAAAAAACBDUgjlt2ZMLgq87rzzTtd+UNfW+mvLli3zjsZMVXEKyM61PfLII97ZEUqUKGFXX321G2/fvt2WLl1qO3bscOuxiVpNXnLJJW4MIB3Z8L3Z9CcSt22a410kwkXViydqy50/h3cFIOMiXAMAAAAAAEC6pxaQwVRZFrjkR3JQqKb2kS1btnTzPXv22EsvvWRhYWFu7qtYsaI3Mlu+fLmrOgum1VyOHj3qzaJSRZrCtSxZsrgQ7+uvv3bruOk1yc0332y5c+d2YwDpzKafE7cFCM2cyXIXzJnoDcjoCNcAAAAAAACQLgWGS2vXrnVhle/UqVM2ceLEWMOrpFDgpWq0evXqufm6devcem56Tl+1atUsV65cbvzTTz/Zjz/+6MaB1FJS66kNGzbMjh8/7u09q0aNGla5cmU3/uWXX2zgwIFuXLBgQbviiivcGEDqcObvHxK92emgVowNnk7cBiDZhPYNXAkVCXbs2DFvZK6XNQAAAAAAAFLWX3/9Zd9++60blypVym666SYXaAU7dOiQff/99y5UW7lypaseO3nypC1ZssRee+01+/XXX70zzfLmzeuCrJw5z1Zk/PDDD7Z69Wo3VlBWs2ZNNw6mqrjp06e7AMy/Tv78+V3wpWscOXLEVq1a5T47UiCmqrNChQrZli1b3H5Vrc2aNcs2b97s7k9h3IQJE2z48OF28OBBd+967tKlS3vPGCFr1qzuOX/++Wf3Gv3qt2uvvdZatWrlqugApBIHNtiZHb+ZHd6a4C2kRAOzEO9/zwXKmxX/5/8XJWbLVzbiGgCSjN+wAAAAAAAASJeuvPLKyHXHFDx98cUX1q1bN+vXr58LrB588MEUrfCqUKGCPffcc5YtWzbXuvH999+PXH8tc+bM1rFjx8jn1/1NmzbNevTo4bZJkya5UE4B2aOPPmp169Z15wXT41Wp5tP5jRo1stDQUG8PAABIboRrAAAAAAAAGZCqrbQumAIofY1pTbK0TqGTKtSqV6/u7Ymg6rROnTrZ//3f/6V4dVfjxo1dOKbnOXDggAv2/PXXVL2mlo9PPvlklIDMV7RoUXf+vffe66rdYlKuXLkowVv58uXd9xRA8jj+y9xEb8FC8l+SqA1A6hNyJrDZNBIscNHbAgUKeCMAAAAAAHChqernmWeesQULFrj5G2+84Sp6YqOVM6ZOnerGWi+rXbt2bpxeKUxr3769a0WodoNaE6xw4cLe0fRH7RX9dcvUulEtFVMTfUS3f//+yHXZVNmWL1++WEO1QF999ZW9+OKLbnz33Xfbs88+68ZARnXmxAn9j96bJVxIoULeyGxvl2e8UcIVeHOwNwKQ3hCuJRHhGgAAAAAAqRPh2rlltHAtvVJgqNaTv/zyi+XKlcut06Z13YC0aNuhrd4ocUrkLum+Klw7/cMPbpxQISVLWKZqUatdASAY4VoSEa4BAAAAAJA6ne9wTc+jdoOXXnppqquKignhWtLpZ0ybaF21PHnyuHFKOqGKnH/oZ0xVbuPHj7d33nnHrel27bXX2iuvvOLuBTifTp2OqApNjEyZMlsmi1gj8Lft823U4pFunFBPXN7Zahat7c0AIGURriUR4RoAAAAAAKnT+QzXwsPDrWfPnjZz5kyrV6+eDRo0yHLkyOEdTZ0I1xJHH6X99ttv9uabb9ratWtdqOXTGmkPPPCA3XbbbSkWcClM0zptwbRmm+6patWq3h7g/Fl3YL5tPrTCmyXMNSXvjQzXACCtIFxLIsI1AAAAAABSp5QI19SC7/vvv7eJEyfa7t273b5q1apZrVq1bOTIkXbo0CHr1q2b3X777e6Y6KOXDRs22JQpU2zRokV24MABCw0NtZo1a7rzFIYEr6u1detW+/jjj93zlSlTxu666y73OD3vDz/84PYXKlTI2rRpY40bN441yFHwo3aBetxff/3lzmvYsKHdc8897h7iCtf0Hur59JpXr17t9ul5mzZtai1atHBtCDMSVYqNGDHCPvzwwyihWrArrrjCVZDpvUpO+lnq06ePTZ8+3dsTQRWT+vlt0qSJtweIn44fLbK/dh/2ZvFXsVgee6NNLW8mSf2IOe61BQEgNSFcSyLCNQAAAAAAUqfkDte2bdvmrueHTMEUXD366KPWtm1by5w5s9unAG7AgAEuoIopjMmUKZM99NBD9sgjj0QJ2FasWGEdO3Z0gVqdOnXcOb1797adO3d6Z5x1/fXX20svvRQtYNNzv/DCCzZv3jxvz1l58+a1J554wlVBxRSu6eOi//3vf/b6669H+ewjUNmyZW3IkCHua0ahUG3o0KGR38ty5cq5kFRB5cqVK93mH1MAqe+L/7OQHFQh+d1337nvjX4O9X28+uqrXUhL1WHGcSL8tP20PiLcT6jS+XNYpSK5vZnZ3iMnvVHCFciZxRsBQMaTyfsKAAAAAACAWKhSTK0e/WCtbt261q9fP3vuuedcMCUKUS655JLIMEXBWJcuXWzWrFkucFH4ValSJWvWrJmrRlOwpv0fffSRLVmyxD0mJhs3bnQhjYI1tf4rVaqUq1Tyqarsxx9/9GYRVGE1ePDgKMGaHqPH5suXz92bKqsUrMVk2rRp1qtXr8hgTc+rCjm1vPSfe9OmTTZ69GgX+GQEqiacMGGC+57pe6dA9JNPPnGhZ48ePWzcuHH28ssvR4ac+r7Mnj3bjZOLQjyFdgo9VQn5wQcfuECXYC3jUcCWmC2YArLEbgCQkVG5lkRUrgEAAAAAkDolZ+VaYCVZ9erVXcWWQipRyPTYY49ZWFiYqzJTqOUHUJ9//rkLQlq1auUqxfw2ivo45q233nKBjDz99NOu4s0X+HyicEvhXo0aNdzcbz/ph2ctW7Z0YZhv4cKF7jUoFPSr47QWmIIfhUNfffWVDRw40B2X4Mq1PXv2uPs9fPiwu+6VV14ZWVkX+HpVtabH6f7Su0mTJrlAUoJ/Bnz6vur7rTaccsMNN1j//v1dKAbsWvarbZkbtaVnfJVp1MoKVqztxgrJDh475caJUShXVm8EAEgsKtcAAAAAAADioKoxP+i66KKLooQqCqS0T9Q6UqGer3nz5vb222+7CrfA9ckUVBUrVsybRVSaxUbh2FNPPRUZrEnu3LmjrOu2ZcuWKM+rqik/OFPAo3DNr6jS9W699Va799573TwmCstUhaV15BQYBras1HPnyZPHjRXUaUvvVJ03f/58b2buPQkO1kTv03XXXWdZskRU9axatcq15wR8e9ctSdQWKGtoJheQJXYDACQd4RoAAAAAAEAc1OpRoZQoTApsBHTy5Ek7evSoGweHTQq0Lr/88iiPVSvGsWPH2jvvvOP2xUVBV+XKlb3ZWcWLF48MuQKdOHHChW0+VZ0Fr/ulEOjaa6+N8fG+ChUqWMmSJb1ZRCXgL7/84irZ1q1b5+3NGFTBt337dm9mVq1aNW8UnVpv+pV8+/fvJ1wDACAdIlwDAAAAAACIQ7ly5VyYJb/++mvkGmkK2TRXhZLovOCKpl27drnqNbWGrF+/vmvhqLlfCReX7NmzxxiCKSALrCjzqQru2LFj3iyisi4m2n+ucE1B4Jw5c1x7SbXT1KZxYAVXRqHAct++fW6cN29eK1KkiBvHRIGqX7mm77GqHgEAQPpCuAYAAAAAABAHVXCpNaOCE61H1r59e2vWrJlrudizZ09XvaZjd9xxR2T7RZk1a5a1bt3aVar9/fffbp+u1aZNG7fO2oWkajq/oi6Y1nTr0qWLe82qVlPVmtaRU2vKF154wWrWrOmdiWB6n4oWLerNkD6oUjOxW/g/21mlGvwrURsAIHUhXAMAAAAAIBXr27eva+sXn00VUaqSQgRVdQWGR2rtFxtVJqmFn0/rigVr3LixC5ZUSaaqrrCwsMjHqGJtyJAhds0117i5bN261e1TMKXATSGcgqovv/zSunbtaqVLl/bOvDAUEipEi8lHH31kP//8sxtfccUV7p5nz57tQkIFilmzsm4TMhL972RxIrezCletb5fe+kiitoIVa3tXAQCkBoRrAAAAAAAg1VBg9fXXX9vAgQNt9OjR3t7EyZEjh5UoUcKbmQuLwsOjVpH4tJ6W39pRLf2Cgy+1WnzrrbdcuKaqpBdffNEGDBhggwYNssmTJ9vEiROtTp06Udo0rl271gVsotDt1ltvjbL22bnCvqTQ6w5sW7h06VJvFNXGjRtjbE2pMPD33393Y12rQ4cOUdZe03vhrzGH6PT+6ecYAACkX4RrAAAAAACkEVWrVnUtBmPbVFEU2JIwLnv37rUffvjBrQmltcNSg5UrV1rv3r1dWOUHU0lRt27dyOq177//3qZPnx7ttSpgGjFiRGQgUrZsWbvkkkvc2Ld+/XqbMmWKC+f0Pt9yyy12/fXX23XXXeeCuNjaK/pU6RV4jgKqn376yZtFzJOLAr5atWp5M7OpU6fa6tWrvVkEvebPPvvMVeCdi8LA4Cq1devW2YYNG9xYj4/rGumB3oP8+fO7cVzrqB0/fty1CZW41mcDAABpE+EaAAAAAABphMKcHj16xLo98cQTlidPHu/suP31118uyFJQNHfuXG9v+tKwYUOrXTuinZpCD1Wc3Xbbba7d5iuvvGLPPfecNW/e3L777jt3jgIwVZgVLFjQzWMybtw4V82lx/vbsGHDXMvHwDaLClZU+SU//vijTZs2zbWfVDvGwYMH28yZM90xUctFrc8WUyVZYlx11VVWvnx5N1Zo2LFjR/vPf/7jXueECROsXbt2tmjRInc8mALafPnyufHBgwddBaHWi9O96+dE751fdaeQSaFjbNVx6UWuXLmsePHi3iyiKjE2W7Zscd9j0ftYqFAhNwYAAOlHyJnU8qdpaZT+ys9XoEABbwQAAAAAQPJQkKHKI+ncubMLRRJKIZrW0FqwYIGrvFLoc+ONN7oqsRkzZljFihVdy0MFKQpeVEWlkE7P5YcsgXQNVT2pgklVUgrnatSo4SrNPv74Yxdi6Tnuv/9+V9X0ySefuFBH+1XlpSq7a6+9NkqLRAVTqqLbtm1bZNCnCjKtJedT5Z6CsYRSu0etcabQIy66N50beG+i90TVbR9++OE5K7Vy5sxp3bp1s2bNmrnWiRrHFFwqxLvrrrts3rx5rirO36c12hQIrlixwgViCtv0no0ZM8YKFy7szvMFnqOWlArs9Pw+hXUKT/W+B9Nz3X777a5Vpr5vwc+hsO/555+P8bEVKlSw+vXru58pX7169VyLTD9MTI8mTZrkglSpXr26+14F/+9DH7O9/vrrrvJSVOXYv39/Cw0NdXOkVX/8s8UeqJ5by382vv8AkN5QuQYAAAAAQDqlD/oVBrVp08Y+//xz27RpkwuYFMqo0krBWpUqVey1115zlVqqsFHgphDhgw8+cMFPTLQ+2fjx4915Co78QGb//v2uOkv7VZWldbvuvvtue/fdd12ApOfWNRU4Pfnkk7Z79273OFElkH89n+5X+/zNXwcsoSpVquSCIIV9MVX2KWhSYPTqq69a9+7dowVrsm/fPndeXOGR1ttSUKm2iQq6FI42adLEPdanyrDHHnvMvQdPPfVU5B/rKqiMKcxKrMaNG7sA6OKLL/b2RNDzvfzyy/bvf/87yn0F0hpxffr0ifaHxHovtdbcI488YjfddFPk4/Wzlt7bQypQ9NeeW7ZsmX3xxRfRXrNaj6qST7R2X9OmTQnWAABIh6hcSyIq1wAAAAAAKSkplWsKsp5++unISrJ77rnHLrroIlet9M0337gKNAU/eg6/4kkVNwMHDnTjm2++2bVRDA4HFHT5FTwK7tRaUcFQYCWVHqNNrQQV3GXPnt2FaYHhkYKHl156yYVZCv8U2Knay2+pp3sK/G9trW/WpUsXb5Z4qtALvA+9N8HrigVS5VunTp3cfSl00vvlVyzp9en1qjpQFUoKBEVtOlUF51Popk3ier7kpo9+FHyq+k5hmNYOiy1UC6bwSMGivur7pNet73VGpbB66NChkaFauXLlrGbNmu5nXa0z1WpT/7uSwJ9vXBhjes+0g3uPerP4K1Qij7XreZ03k4g19BJH/1sjYAWA9Cb0n38Q9vXGSIRjx455I0vXrQ8AAAAAABeGWiWuXr3ajbWelwKsn376Kdr2xx9/WOXKlV1VlChQGTt2rC1fvtwFKQp7VEWmKiaFVPrvWT1GoVC1atVc6CYKtFR9oyBIIZSqnxQG+RQmae0uhUiqzNHaY2opKLt27bLp06e74ErPryBGQZ3aC7Zt29buvfdeF0IsXrzYHVcFnNoZFitWzFXQ+eHft99+666nyqhRo0a5/doaNGjg9ieV3iO9Tn8LDg+DKXBU20pRpZmqt3x6rK6hiiZ9b/zvldZ5U+ji03sV3+dLbgrDFG7qufXZRULCMZ2rx+ixukZGDtZEP6f6347WmNPPsIJHha/63qu9pvbJFVdc4Vpy5s6d281xYSz6fr0d2HPUTp08naAtb8EcVrNROe8qov/NJnaLX5ANAEhb+P/uAAAAAACkEWpFF9gmMXBTG8bAaixVgGn9MtEH/Kqw8Skg8YMfVeBs3LjRjSVwnbMdO3a4KrdAqs7RfYjCPIUNsWnfvr0LxPxARqHWfffd54IHOXz4sP32229unFYoeAx8n316rxVkioK0yy67zI2RvqgKTRWkb7zxRrR2m1K0aFG3Zp/arqrNKgAASJ8I1wAAAAAASIcUaAWuhxVMwZZP7QJ9qqpq1qyZC4hkzpw5UcKkhQsXRrZtVAVcbJU5WodNVWnBVAEVuN9vo5iaXX311ZYrVy43/uqrr6xFixauElCtMbU9++yzdscdd7h15UThpKoBE0Ihp95XVf/pa+D3BKmL/reln4kJEybY7NmzXYtVbQq4teagWqX6FaQAACB9Ys21JGLNNQAAAABASkrKmmujR492m7Rs2dKtjaYP/bVGmAIhrQ+lEG3w4MHWsGFDd56o1Z3aPa5Zs8a1hBwxYoSrUlOryGeeecYWLFjg1lEbOXJklOqdwDXX1CpyzJgxLmQLNmvWLFfdIwra9PwK3URhhdaJk+bNm7vXf6HpoxO1uxwwYEDkummxqVevnltnK75VSwo51fpy8uTJUa6tkLN+/fr25JNPWoUKFby9QPoXfuq07Vi325slTGjWUCtWvqA3M/vjp7NVuQlV85rAtpAAAERF5RoAAAAAAOmU1jlT2CMKb2688UYXWOmrgjVRlVWtWrXc2Jc/f3631pooKNOabrJ27drI1oeXX355lFaTCaHWemmJKpVuueUWV52kdoBau65GjRpWqlQpt+m9evjhh117zrfeeivewZrW6tL36KOPPooW2oWHh7uWnGqjqWo5/jYaGcne7QcTtQVTQJbYDQCAcyFcAwAAAAAgnVLLxldffTVyjTMFONu3b3fBjSqj7rrrLnvttdciq8YCXX/99a46TX799Vc7dOiQ+6pKK7WbbNKkibtGbNTmUFtMNm/e7I3M8uXLl2Za6Ol9atSokav6Gzt2rE2ZMsVtr7/+uj366KNuvTp/fbm4hIWF2QsvvGBbtmxxc70HarPZunVra9q0qeXJk8ftV0vOQYMG2eLFi90cAAAAFx7hGgAAAAAA6ZQqox588EH7/fffXbWV2hpqUxvC77//3rWJ9NcSC6a2jpdddpkbq93j3Llz7ZdffnHz8uXLu4q3c9m5c6erdAumCqzA/Wobea6QLr1SJeG6devcWKHcf//7Xxei+Wu5KbSrW7euO65AU+0942pJCQAAgPODcA0AAAAAgHTq008/tY0bN1qRIkXsnnvucdVo2lTJFlO1WiBVUqmFpKrUTp48aS+++GJkS0g9Pq51x/WYDz/80FW8BVq2bJn98MMPbqxr+wFSTPbs2eMqt9IbrWmncFP0HrRv394FloG01p3Wt/OrB5cuXWqrV692YwAAAFxYoX1Tw8rAadixY8e8kVmOHDm8EQAAAAAAyUNBlB+qKKhSFZnWQItpmz9/vlsHzW8pOHv2bFu5cqWrfJo1a5atWbPGVZ/556tFpEI2tWaMqZ2hAjSt+7V37147deqUqzpTpVvnzp2tePHi3lln7dq1y6ZPnx4ZiKnl4cyZM921d+zY4dYk05plfuBWrVo1e+CBByx79uxuLqrO+u6779w19Hht2vfee+/Z/v37rUqVKt6ZaZe+JxMmTHDvadGiRd16bQrTgqmt5x9//GGbNm1y5+p7W7NmTe8okD6dOX3Gdv29z5slTM582S13AT6fAwCkvJB//mHMirhJoP/A8MX1V3sAAAAAACSU/iZ26tSp3uzcFNCMGDHCKleu7OZqC9m1a9fIdb1iU69ePXvppZesUKFC3p4I+shA64lNnDjR22NWo0YNGzZsmAt+gin469ixox04cMBVXJUoUcJVqsVEx998802rWrWqtyeCQjW1Rvzxxx+9PWed67nTkq+//tp69+7txnXq1LHBgwfHWkn49ttvu/XdRJWE/I00Uq0D5/7/M3HKW8p9CT912tYvTNy18hbNZcXKR1R7AgCQkmgLCQAAAABAOnT69Gm37llwYBaTefPm2bhx41yYFkgVZzfffHOUddk0j0+4pbCoX79+bq23wDXV1AZR1VfvvPNOtGBN1I5S4VqTJk3cuT6NVS0XHh7u7Um79H3xFStW7JwtOgPfa1X/se4aUq1dK80+ap647cAm7yJmoZkz2aX1yiRqI1gDAJwvVK4lEZVrAAAAAIDURgGUKs4+++wzF4z16dPHrrvuOhdQ6WMAtVc8evSoW5Ptv//9rwviLr30Uhs5cqTlz5/fu0oEnfvEE0+4qrTChQu7c4LXB/MFVq6VLl3axowZ4x5z4sQJt08UJJ0rTAqkIMkPkxLyuNRu/PjxrgJP4qpGUztPVR9KXFVuwAW1/juzGc96kwRq/rZZ6QbeBACA1I/KNQAAAAAA0hmtpaY11URrlNWvXz+yCkzVaArQ1LLxxhtvjKyMUtimdb2Cqa3j2rVr3fjKK6+0smXLunFCZM2a1YVs2hISDOncxDwOAAAASEmEawAAAAAApGNad2316tXe7CxVsC1YsMAOHTrk5qpGy5Mnj6sU85vc/PXXXzZkyBA7efKka9fYokWLKC0ekfI2b97sjQAAAJBaEK4BAAAAAJDOaG2y2rVru7HaMT766KP2wAMP2CuvvOI2rYV25513utaEagmp4KxVq1Z28OBBa9u2rWs/qCq122+/3davX++uoyq3yy+/3I2RNEWKFPFGca+j5oefEtf6bAAAADg/CNcAAAAAAEhnVF3WpUsXq1evnptrDbalS5fapEmT3DZlyhTbuHGjO6awpkePHnbNNddYWFiYW2MtJlOnTrWmTZva8OHD7fDhw95eJIZacubIkcONt2zZEiVAC6S16tasWePNzCpUqOCNAAAAcCGFnPF7PSBR9u7d643MChQo4I0AAAAAALjw9J/8f//9t/3www+2cuVKtyloy5s3r1WuXNnq1q1rDRs2jKyG2rZtm7344ou2cOHCyNaQMdG6a4MHD3atJANt3brVPv74Yzt+/Lh7jvvvv9+1mkRU+/btsw4dOrjgTGvh9e3b15o1a+YdPWvdunXuvD179rgwTsFmrVq1vKNA8jizaaZZ+HFvljAh5W7+5/94rWLXf5fo61iOAmalG3gTAABSP8K1JCJcAwAAAACkF7Nnz7bnn3/ehWNStGhRF8BlzZrVhXSLFi1y4ZxUr17drceWL18+N0fCjB492m2iijSFlWXKlHFzUTVbt27dbN68eW6uVp06h7aQSG4K186E/e7NEibTFU+fDdcAAMhACNeSiHANAAAAAJAeKMzp3Lmz/fnnn26uSqru3btHCXN07Nlnn3WVVKLz27Vr58ZIGLXg7NSpk6tOE61716BBAytYsKBrBzl//nx3juTKlcsFmf46ekByIlwDACDhWHMNAAAAAADY8uXLbcWKFW5cvHhxe/jhh6NVSdWoUcPat2/vzcxmzZplBw4c8GZICFUFvvTSS1aqVCk3V7Wg2ndqTTytb+cHawrdFGjSDhIAACD1oHItiahcAwAAAACkB2+//baNHTvWjW+44Qbr37+/hYZGr0jZsGGDWwds165dbl21ESNGuPXbkDhaf03tIadMmRLZjlP03tevX9+efPJJ1zYSCHb855+9UcJlu+oqb+RVrp045M0SJtPFLahcAwBkSIRrSUS4BgAAAABI67SOWs+ePW3mzJlufq52j6pU0/GlS5e6+RtvvGGNGjVyYyTe6dOnXdCmr6LgUmvdAbHZ/chjdmrjRm8Wf1mqVLGCQ97wZgAAIDFoCwkAAAAAQAaniqn9+/d7M7Ny5cp5o+gyZ85sOXLk8GZmGxPx4T6iy5Qpk1tvrXDhwm4jWAMAAEi9CNcAAAAAAEC8KVgrUqSINwMAAAAyHsI1AAAAAAAAAAAAIJ5Ycy2JWHMNAAAAAJDWHTlyxJ555hlbsGCBm59rHbXgc8+1PhuAICdO2KlpU71JwmSqWMkyVa3qzf6RlI/0QkK8AQAASAwq1wAAAAAAyOCyZctm+fLl82bnXkft1KlTdvToUW927vXZAMRAoVhitmAKyBK7AQCAJCFcAwAAAAAggwsNDbWyZct6M7O1a9dabI1udu/ebdu3b3fjvHnzsv4aAAAAMhzCNQAAAAAAYFdeeaVlyZLFjRctWmSbN29242BqB7lr1y43ViBXqlQpNwYAAAAyCsI1AAAAAEAUWlPrxIkT3gwZRZUqVaxy5cpurMq0cePG2fHjx93ct2zZMhszZow3M2vSpImrXgMAAAAykpAzsfV5QLzs3bvXG5kVKFDAGwEAAABA0vTt29emTp3qxp07d7Z27dq5cUrSfx6+/vrrNnHiRNcm8Omnn7a77rrLO2o2fvx4GzZsmBufr3tKLmn53s+n2bNn2/PPPx8ZqhUtWtTq1q1rWbNmtT179tjcuXMjj1WvXt2GDBkSZa02IL2at+1XW7ZriTdLmDrF61n1IjUiJidO2OlYqkLjI1OFCt4IAABcSIRrSUS4BgAAACDYihUrrGPHjnbgwAFvT/w0b97chWpyIcK1nTt32n333RfZ8u/yyy934UnOnDndnHAt/dNHBJ9++qkNHTo0WtVaILWDHDx4sJUvX97bA6RvCteG/jbYmyXM8/V7nw3XAABAukBbSAAAAACAo/Z+FStW9GYRAUq2bNm8GTKCkJAQa9Omjb377rtWs2ZNy5Qp6scGefLksfvvv98++OADgjUAAABkWIRrAAAAAJDM1CbvlltusdatW0dut956qxUpUsQ7w6xBgwZuf9OmTV2IVapUqQveXk9B2ksvvWSPPfaYvfDCC64tpNpDIuPR+mv/+c9/bM6cOfbNN9+4bcaMGfbdd99Zp06dLFeuXN6ZAAAAQMZDuAYAAAAAyaxkyZL2zDPPWI8ePSK3Z5991sqVK+edYXbnnXe6/a+88opNmjTJpkyZYl26dPGOXjj58+e39u3buzDQbweJjEtrrRUuXNhtBQsWjFbJBgAAAGRE/KsYAAAAANIArYW1aNEit17Ybbfd5qreXn31Vfvrr7+8M6I7cuSITZ8+3Z577jn3GG0PPvigffLJJ3b48GHvrKgU8inw0/bLL794e+Pv9OnT9scff7jHq72gnlNftT5XbPeq5wl8Tr3WpUuXWs+ePSPvW2PtO9ey4Vor7u233458Xq17N2vWLHdPAAAAAJBcCNcAAAAAIJU7efKkDRgwwLVrVPi0ZcsW27Rpk33++ed233332fz5870zIyiAUgs/BUxq7/j999+7x2j7888/bdCgQe5xukaw33//3VXSaVu7dq23N350vYceeshtevz69evdc+rrxx9/bG3btrVp06Z5Z5+l5/Gfc82aNfbRRx+5a3z77beR962x9k2ePNl71Fl6vbquAsexY8dGPu+8efOsa9euLpg7cOCAdzYAAAAAJA3hGgAAAACkcu+9954LnrJkyeJaThYtWjSyPZ+q09555x07dOiQm4uCpl69etnevXvdXO38GjdubPXq1Yts9aggbPTo0RYeHu7mSaXrdejQwZYsWeLmep4aNWq4NeV0v3L8+HEbNWqUbd261c1joko73ZcUL17cbf66b7pXvRfBj1+8eLENHDjQvRei90bP6T/2f//7n73//vvuGAAAAAAkFeEaAAAAAKRyx44dc2ugqcXhl19+6QKo1157zbJly+aOK9gKDJwaNmxol1xyiZUqVcpGjhzpqr5ef/11GzFihP33v/+NDLuWL19u+/fvd+OkKlOmjF1//fXunjp16uQCLVWRqdWj7rlJkybuvO3bt9vGjRvdOCbr1q2zqlWrusdPnTrVbbqOAkIJfvyJEydcVZzf5rJs2bL24YcfuvdIj9VzX3HFFe4YAAAAACQHwjUAAAAASOWqV6/uAis/TJP69eu7EErU8lDrjfkURL388ssuWKtTp46FhIR4R8xy585tefLkcWOtRZZc65HpOdS2UZVp7dq1i3Kvqh4rXLiwG+v5Tp065cYxUbXZ888/b3nz5vX2mFWpUsW9XtHjA9tV+q0uJVeuXNa7d2+79NJL3VyKFSvmqvh0XQAZz9r982zOto8StZ2xs///sUaRmvaff41P1HZJgbP/PwkAAKQPhGsAAAAAkMopRMuXL583i6Dwyq/miimwqlChgmsh6VPLRK3XpqBJ1WEpQfdYrVq1yDBP96T1z7TG25QpU9y+uCgYUyAWSNcrV66cN4tq586dkdV3er3ly5d340ClS5e2yy+/3JsBSAs6fLjQHhq3IMHbs5/94V0hQuncVezKoi0StQXKkTlHkjYAAJC+EK4BAAAAQCrnt3EMpGqw7Nmze7PoFLjNmTPHOnfubI0aNXKbxvPnz/fOSBl//fWXvfrqq9asWTNXbdamTRubMGGCW28tPhTQZc2a1ZudlTlzZm8UlVpmnjx50o3z588f42PPFc4BSD4nwk/bLxt3J2pbvfPsupHy1A0VrevNlyV4e/iaCt4VImQPzZPoLYSPzQAAQCz4VwIAAAAApDOHDh2yLl262FNPPeWq1VS1ljNnTqtRo4a98MILVrNmTe/M5HPmzBm31pnCtM8//9zCwsJcAKhQ6+GHH3atIi+k2MI5AMlr/7FTidqCVSqWJ9EbAABASiNcAwAAAIB05qOPPrKff/7Zja+44gr78ssvbfbs2TZ27Fi74YYbYqzuSqolS5bY6NGjLTw83LWrHDZsmM2dO9c+++wze/TRR11V2YW0adMmbwQgWNiSX2zlZ8MTte1dG7UNY40S+RK15cpKAA4AANIOwjUAAAAASEdUpfb777+7cY4cOaxDhw5R1l7TOmhHjx71Zsln8eLFdvjwYTdu2bKlNWzY0DJlOvufnKqmSwmFCxe2PHkiKlUUoO3du9eNA+m5tfYbgNhtXzgrUVugrKGZrFS+7IneAAAA0grCNQAAAABIp9QKMbhKbd26dbZhwwY31rps2hJDIV1sgteC279/vy1YsMCbnfuxCaXgsHjx4m68Y8cOmzhxYpTrq12lqvhWrFjh7QHSk9VJ2M78s51VplHLRG0AAAAZEeEaAAAAAKQj2bJls3z58rnxwYMHXavGv//+206cOOHaNPbt2zeywmznzp02ZcoUW7p0qZvHJXfu3N7IbOrUqTZt2rTIoK5IkSLuq0yaNMmt9abn1HP369fPtY30TZ8+3R0/fvy4tyfx1G7yX//6lzcz+/jjj916c19//bXNmDHDvV6tM3fy5EnvDCA9OfLPpv9tJWY7q2j1hnbxv+5P1FbgkuRfwxEAACC1I1wDAAAAgHQkNDTUmjVr5kI2mTNnjrVq1cq1aezUqZPb37ZtW3dMgdOoUaNs5MiR8WoVWbNmTbeemqgFY58+fezDDz90c63tdvHFF7vx9u3brXPnzu459dwK9R566KHIx/7www8u8Prrr7/cPKlat25t9erVc2NV4un5evfubT169HAB4EUXXWS33nqrOw4AAAAASUW4BgAAAADpzDXXXOOCrwIFCnh7IlSqVMkGDBhgjzzyiN10002Ra6KpdWJ82kNWqFDBnnzyScuZM6e3J2I9s/DwcCtatKi9/vrrVr16de9IBK2H1rNnT3v00Uft4YcfjvLY5GoPqYq6gQMH2t133x0ZKopeX5MmTVx4WK5cOW8vcOFtXb8n0Vt0Cq0TswEAACCxQv75j6ioTbaRIIGLZQf/hysAAAAAXEgKzPbt2+e+av01tYsMCQnxjiaeQrEDBw646+bNmzfaum5qR6mWjwq3dFzPfb6oFaXuTRTkBYZ5QGrxbq//2a6tB71Z/JWpWNju7d7ImwEAAOBCIVxLIsI1AAAAAADSv9PhcVd3nkum0LPNgxSuHdgTdyvWYMXK5idcAwAASAUI15KIcA0AAABAehZY/XYhKtGA1OLUiXBbNTdx6wQWKZvfipanFSMAAEB6QbiWRIRrAAAAANKjw4cP26hRo2zy5Ml25MgRb69ZaGio1a9f3629pjXYgIyCcA0AAAA+wrUkIlwDAAAAkN6sWrXKunbtalu2bPH2RJctWzbr3r27NW/ePFnWcQNSzLoZZr8M9iYJ1KSfWam6bqhwLSkfoWTJRsUnAABAekG4lkSEawAAAADSk7CwMOvUqZOtW7fOzRWiNWjQwAoWLGiHDh2yuXPn2sGDB92xXLly2ZAhQ6x27dpuDqRKCtf+182bJFCLUZHhGgAAAOAjXEsiwjUAAAAA6cno0aPdJmXLlrXBgwdb+fLl3VwOHDjgKtbmz5/v5nXq1HHn5MyZ082B5HLmr/+ZHT/739wJEVLxTv3fiMnmeRFfE0NVmYRrAAAACEK4lkSEawAAAADSi3379lmHDh1szZo1lilTJuvbt681a9bMO3qWqtp03p49eyxHjhw2fPhwq1WrlncUSB4K187sXOzNEibTlc/+839pVwoAAICUQbiWRIRrAAAAANKLxYsXu5aQR48etWLFirkKtlKlSnlHzzpx4oR169bNfvrpJzfv3LmztWvXzo2Bg2+P9EYJl+fxDt7I7EzYIm+UcCFF1aqUcA0AAAApg3AtiQjXAAAAAKQXX3/9tfXu3duN42r3+Pbbb9vYsWPduHnz5q7KDZDd7R+2U5v+9mbxl6VaNSv4xiBvBgAAAKRembyvAAAAAIAMbufOnd7IXOXaudZRy507tzcy27Fjhx05csSbAQAAAED6RrgGAAAAAEiw0qVLeyOkB2eOHbMzW7YkeguU+aKLLPs1Vyd4Cy2Q37sCAAAAkLrRFjKJaAsJAAAAIL0YP368DRs2zI3javU4a9Ys69q1qxvH1UISqZ/CtfDp07xZwmS6rLJlqlLFmwEAAADpH5VrAAAAAIAE27x5szcCAAAAgIyFcA0AAAAA4BQpUsQbxb2O2qFDh7xR3OuzIeUcOL4/SVugkGzZErUBAAAAGQ1tIZOItpAAAAAA0ovFixdbp06d7OjRo1ayZEkbM2aMFS1a1Dt61okTJ6xbt272008/uXnnzp2tXbt2bozza+7Wn234wiHeLGF6NexjVQpV82YAAAAA4ovKNQAAAACAU65cOStdurQbb9++3X777Tc3Dvb333/bsmXL3DhHjhxWo0YNNwYAAACAjIBwDQAAAADg5M+f3xo3buzGp0+ftvfff98FaYHUDvKNN96wPXv2uHm1atWsYsWKbgwAAAAAGQFtIZOItpAAAAAA0pOwsDDXGnLdunVuni1bNmvQoIEVLFjQtYOcP3++O0dy5cplQ4YMsdq1a7s54m/1vrm278R2b5YwdYq0tJCQEDfeemir+5pYJXOX9EYAAAAA4otwLYkI1wAAAICMo2/fvjZ16lQ3VvVWo0aN3Di9WbVqlXXt2tW2bNni7YlOoVv37t2tefPmkUEP4k/h2rYjq71ZwjQq0Y73HAAAALiAaAsJAAAAINF27dplLVu2tCuvvNKaNGliK1as8I4gLatUqZKNGzfO2rRp40K0QKGhoXbVVVfZBx98YC1atCDkAQAAAJDhEK4BAAAAAKLR+muqXvvpp59sxowZ9s0337hN86FDh1qFChW8MwEAAAAgYyFcAwAAAADEKlOmTG69tcKFC7sta9as3hEAAAAAyJgI1wAAAAAAAAAAAIB4CjnzD2+MRNi7d683MitQoIA3AgAAADIGrbnWvn1727x5s+XNm9dGjBhhlStX9o5GOHz4sH311VeuteDu3bvdvtKlS9stt9xi1113neXMmdPtk4MHD7q1vg4cOOCud//999vx48dt8uTJFhYW5qqmtA5Y2bJl3fmnT5+2JUuW2LRp02zx4sXuXK0RVq9ePbvjjjvsoosucufFxH+srv3HH39YeHi4e86rr77abr/9dlelFaxv3742depUN37jjTesUaNGbgwk1Op9c23bkdXeLGEalWjHWncAAADABUS4lkSEawAAAMjI4grXli9fbs8884zt3LnT2xNVuXLlrH///lapUiU3D7yeArhnn33WXnrpJduzZ487niVLFrfeV926dW3Tpk3Wp08fF5DFRCFbjx49XIgXTCHfCy+8YPPmzfP2RKXAr1OnTi6gCwwxCNeQXAjXAAAAgLSLtpAAAAAAUsShQ4ds0KBBkcGagrTbbrvNmjZt6tbwkm3bttmWLVvcOJiq14YMGRIZrIkeV6pUKResdejQITJYUxhWo0YNd+2iRYu6fapiGzVqlG3dutXNfbqvwGBNIZwq6Fq3bm1VqlRxa4wdOXLEPff8+fPdOYBvbdihRG/BcmcplKgNAAAAwIVF5VoSUbkGAACAjOxclWuqWuvYsaNr9dikSRN75ZVXLHPmzO6Ygq+xY8daxYoV3TG/CifweqKgq2XLlnbvvfe6AE1BW4UKFSw0NNTefPNN+/zzz+2RRx6xu+++24VkcurUKVexNmvWLPd4hWQNGzZ0x0SPGTBggGsLqXsdPHhwZCCn/zz64IMP7K233nLHb775ZnvxxRfd8wmVa3jkg99s896j3iz+qpXKZwNvr+HNAAAAAKRlVK4BAAAASBGqEDt27Jg3i0pBmCrPrr/++nO2t7vhhhusa9eubo01rYGmME4BnR7z0EMPucq0du3aRQZroiDMXy9NAZnCNp8q0mbOnOn2q8Wk7sEP1kTXVaCm6jhRQLh//343BgAAAABACNcAAAAApAitmVakSBE3/uGHH6xz5842ffp01yYyPg00VHWmoMuvdguWL18+q1atWmQ4pxBt/fr1rhXllClT3L5gO3bssA0bNrixWkxqU7Vc4KaqOr9tpVpTah8AAAAAAD7CNQAAAAApokSJEnbHHXe4kEyVYlq/TGud/etf/7Jrr73WXnrpJfvrr7+8s6PLnTt3ZDgXGz3+1VdftWbNmln9+vWtTZs2NmHCBBeQxUSVdCdOnHBjBW1qN6kAL3Br1aqV/fHHH+4c3Xd4eLgbAwAAAAAgrLmWRKy5BgAAgIxMVV2xrbkm+s+N3377za2PtnbtWhdWBdJj+vfvbw0aNHDzuK7n03U/+ugjGzZsWGT4pXaQZcqUsRtvvNGFa+PHj3f7A9dGW7FihVsHThVp8VGyZEl755133FdhzbW06UT4aftl4x5vljCl8+WwSwrn8mZmOw7E3Oo0Porlze6NAAAAAKRlVK4BAAAASDFq2VinTh0XhKk15Ntvv22333675cmTxx1XyKUQTGuhJcSSJUts9OjRLlhTC0eFbHPnzrXPPvvMHn30UcufP793ZuzUtvKbb75x4V9s25dffhkZrCFtO3oyPFFbMAVkid0AAAAApA+EawAAAABSjMIvv7IsZ86cVrduXXv++edt3LhxVrRoUbd/06ZNUTpCxMfixYvt8OHDbtyyZUtr2LChaz/pO3TokDeKqlixYpHB2+7du12FXExOnjzp1nADAAAAACAY4RoAAACAFKFwasCAAfbiiy9Gq0zTemp+9VpSZc8etSJo//79tmDBAm8WcR++fPnyWZUqVdz46NGj9u6770YL4tRS8pVXXrG7777bli9f7u2NjvANAAAAADImwjUAAAAAyU5rqw0dOtQmT55s06dPt7Zt29qnn37qqtT+/PNPF15t2LDBnVu2bNkEr19cpEgRb2Q2adIk++WXX+zEiRP2999/W79+/VzbSJ+eX8cVmmldNoVmWs9N5s2bZ/fee69NmDDBvvvuO3eP//73v+2rr76yjRs32n/+8x/3OJ9CQd/HH39sM2bMsLCwMG8PAAAAACAjCDmjlcCRaIHtaxL6gQAAAACQ1u3atcvat2/v2isqsBoxYoRVrlzZHVu0aJF1797d9uzZ4+YxUavIl19+2Ro1auTm57peIAVanTp1snXr1nl7zsqWLZsLzL744ovI51YrSK33VrFiRdN/Ak2dOtVee+21KMFZsAoVKriAsESJEt4ecyHdM88849pG+p5++mkXHiL5hf3xkx3bt9ObJUye0pdagYuru/GJ8NO2YU/C1vXzhYaE2CWFc3kzAAAAAPjnvxP6/sMbIxGOHTvmjcxy5MjhjQAAAICMQe0ev/zySztw4IALtW655ZbIqjKFUk2bNnVro6kKzF97zaf2jC+99JLVq1fP23Pu6wXKlSuXe5zaNgZWjqnVpAI9Vafp3+e///67C8LUOvKmm25y1woJCbFKlSpZ48aNbf369e7xgX9zqOq2G2+80bWzLF68uLc3gl6Tjuu6/mMU/tWpU8eNkbwO79hkqyePsr1r/0zwVvzyxpajYDF3ndBMIVY4V9ZEbQVzZnXXAAAAAAAflWtJROUaAAAAEDe1idy3b5/7KqpY05YcDh486CrQMmXK5KrdMmfO7B2JH7WTVJjn0zWyZj13oOI/JrHPifhR5dryT97wZglTs/1LkZVrAAAAAJCcWHMNAAAAQIpTCFWwYEErXLiw25IrWBNVq+maun5iQi4Faf59aYsrWBP/MYl9TgAAAABA2kW4BgAAAKRBqpxSC8WMSq9f67NpU0UcDTkAAAAAAOcL4RoAAACQxnz22Wd29dVXW6NGjax///7R1jJLz7RG2qOPPmrXXHON3XzzzW674YYbrEmTJjZ8+HC3vhsAAAAAACmJcA0AAABp1ttvv21XXnll5HbPPfe4Kqb0TNVqX331VeTaZXPmzImyDnB6pcq0iRMn2n333WcLFy6MFihq3bVx48a54xs2bPD2AgAAAACQ/AjXAAAAkCYdOHDA5s+f780ibNy40ZYvX+7NUgeFQAqDxo8fb3369LG1a9d6RxInR44cVrVqVW9mVq5cuWRdvyy1+umnn2zo0KF2/PhxNy9atKg1b97cWrdubXXq1LHQ0FC3f9OmTfbSSy/Z/v373RwAAAAAgORGuAYAAIA0aeXKlbZq1SpvFuHkyZOukis1rb+lMGjMmDE2bNgwFxDpHpMiJCTEnnjiCXvuueesS5cu9uqrr6b7cO3QoUP2/vvvRwZrzZo1c60x+/btaz169LCRI0fau+++awULFnTHlyxZYlOmTHFjAAAAAACSW8gZVv5OksAWPAUKFPBGAAAASGmDBg2yTz75xI0bNmxof/zxh1tv6+KLL3Zhix+0XGhq4/jMM8/YggULLG/evDZixAirXLmydxTxoQrFJ5980gWTxYsXd9/fMmXKeEfPUtvIgQMHunG1atVcoKn3HBfCon+23RHDBLvhny3EjQ7v2OS+JlauYmW9EQAAAAAkH8K1JCJcAwAAOP/27NljHTp0sHXr1lnhwoVt8ODB9tZbb7kAK1OmTC54a9SokXf2WSdOnLAJEybY33//bdmyZXNrtJUsWdI7GmHr1q328ccfuyopBTh33XWXZc2a1TsasfbXsmXL7PPPP3eBnto+6lr16tWzVq1aWfny5V11mb8GmO517ty5tnPnTsuSJYtdc801lj9/fnetwHvwz1e7SwVC999/v7uHyZMnW1hYmLuHNm3aWNmyZe2XX36xH374wV1DLSJvu+02Nw6ktohff/21q5bbvHmz21e6dGlr0aKFNW7c2D13WqG19caOHevGN9xwg/Xv3z+yDWQgrbWmn4tdu3YRZF5wCtcSu/Zd63+2iHANAAAAAFIj2kICAAAgzVFLSK2tJRUrVrRLLrnEGjRo4OanT592wVNMf0N26tQpF0xNmjTJpk2bFuO6XNqnYzpH5+oxPo0HDBhgDz74oH311VfuHrZs2WLr1693gZyCMoV8Ok/B2MyZM+3LL790wZqo8mrWrFnu2sH34J+v/fqq4K5t27b2zjvvuH0K87Zv3+7O1bpt/jV+//13t8+n5/7ggw9ciKaQcd68ee4etWncq1cv11YyraxJpvDS/15LlSpVYgzWpFChQq6yTRRS+u87AAAAAADJiXANAAAAaYpCM62r5q9ddvXVV7sqrDp16kS2AFTglBLBih+MKcDTc1533XXWunVr14JQgY+CIAV/x44dcxV0RYsWdVVpfpWYv69UqVJuK1GihKtmC6ZgaMiQIa7qzac2l3pMXBTGDR061LWj1PPp+Zs2bWo1atSIvA+9P6rgSwsUOgYGgeXKlfNG0WXOnNly5Mjhzcw2btzojQAAAAAASD6EawAAAEhT1JZ74cKFbqzA6YorrnDjiy66yCpVquTGqtJavHixGycXP9RTsKYARwGWKsN69Ohh77//vr333nuuLeSrr75quXPndvc2evRoty6cgi3RfrWwnDJlits+/PBDV3UXTOGaqrUU3CnM++abb+zNN9+0YsWKeWfErlmzZlakSBFX4aXnVuXcK6+84toq6p798EmVcUePHnXj9EKvTa8diTdnyopEb1Hp56xKIjcAAAAASN0I1wAAAJCmLF261K2tJZdddplbR0xy5swZpTXk7NmzXSVZclGlnNZFi43CrJ49e0ZWzyWV1hbr2rWrW2NN68qp/aUqs+JSoUIF17pS7Sk1DqQ1gv1wTe8Ryy8j2PL5m+2nKSsSvP21MrhSVGvdJXZjvTUAAAAAqRvhGgAAANIMhUFaT03BkPgtIX2BrSH//PNP27Fjhxsnh6xZs1rlyvrg31zF1/PPP2/Dhw+3ZcuW2YkTJ9z+5KJ2jjfffHO8wrSYqFIuMOTbt2+fW8etd+/eUVpNpjf6vrDOGgAAAAAgpRGuAQAAIM3Ytm2b/fbbb24c2BLSV6ZMmcg1ubZu3epaHyanFi1aRFaDqT3luHHj7P7773chX5s2bWzatGlujbCkUvvIpLQ31D2oleSDDz5oV111lauC6969u61evdo7I+1QeJovXz5vdu511E6dOhWl1eW51mcDAAAAACCxCNcAAACQZqgl5Pbt291YFVh33XWXXXnllZHbdddd5yrWfD/++GOytoYsUaKEW1utbdu2rg2lT5V069evtz59+tiLL75oR44c8Y6cfwog//3vf1uvXr3ce6GgTeFUw4YN7aWXXrKSJUt6Z6YNoaGhrjWmb+3atbG2s9y9e3fkz4cq91h/DQAAAACQEgjXAAAAkCYoJNM6an5LyPhYvHixbdq0yZvFj4Kbc61FlitXLnv66adde8rJkydbjx493HprauUoar/oV9edb3qPRowYEVmh1qxZM/vuu+/cNmzYMKtbt27kfaYlCk6zZMnixosWLbLNmze7cbAFCxbYrl273FiBXKlSpdwYAAAAAIDkRLgGAACANEEVSb///rsbq1WgWh22bt062nbbbbdZsWLF3HkKWvzHBFP7wIMHD3qzs/76668Y9/v89dUUUpUuXdo9p9pD3nfffW6/wj9V2F0IalXpP7feg0cffTRKS0VVsZ08edKbpR0KL/317vRzoPc7uP2m1r4bM2aMNzNr0qRJlHXn0jVlwUnZgmTKFJLgDQAAAAAyEsI1AAAApAlqcbhjxw43rlGjhr3wwguuaix46927twvYfKow84OYzJkzW/bs2d1YIVPw+l379++3iRMnerPoFODce++9Nn/+fG9PhJCQkMhA71wU6CkAOx/UTtGv9vJpDbqdO3e6cXK2y0xpWoPugQcecKGqqGKwVatW1rdvX3vllVfs2WeftUceecS1CpXq1atH+RlI706dDLdls9cnatu5KerP4yP9b7RuY1olePu/bo28KwAAAABA+ke4BgAAgFRP1WIzZszwZmYNGjSIsuZZsPr167v2jbJy5crINoJZs2aNrICSt956y95++23XNnHChAl2//3325IlS7yjUWmtr+eee86trdapUye3vppCNq1xpkDu3Xffdeepoq1atWpuLDly5HBrtYkCvf79+7vn0tptTz75ZGQglBz0+vLnz+/GW7dudZVcur7ev2nTptmgQYMi22rq9UydOtU2bNjg5qndNddc494vP2ALCwtz9z9p0qQoAaraQSp4DazYAwAAAAAgORGuAQAAINXbsmWLrVixwo3V6q9OnTpuHJsKFSrYxRdf7MYKlxYuXOjGonaSRYoUceMjR47Y2LFjrVu3bvb666+7qi5VQandY7AyZcq4NctEVV8Kqx5//HFr0aKFDRw4MLIirWHDhm6NMJ+q2m666abIUEjVd3ourY02d+7cZF2fTe/NjTfe6AI+UfDUtGlTd08KAy+77DK7+eab3bEDBw64+/7www/dPLXT+9imTRsXYtasWTPyNfry5MnjwtEPPvjAypcv7+0FAAAAACD5Ea4BAAAg1VuwYIFbP00qVapkF110kRvHRm0EVb3m+/77712QJgreVD1Wrlw5N/cVKFDABVBaqysmCsdUEfXqq69Ge6yokk7hjtoUBlfVKZTTtfUcgVRd5YduyeWuu+5ylXWB96AgSgFbv379rHPnzla7dm3vSMQacX41W1qg9df+85//2Jw5c+ybb75xm6oaVX2o1+1XLAIAAAAAkFJCzvzDGyMRAtfMCP6wBAAAAKmX/hmsNdZOnTrlwidVfWlNtvhSWOcHdnq82jEGV1MFU4i1b98+9zW+j0ksvS5Vp+m5FOCpsgvp06kT4bZq7l/eLGGKlitgRS7iv2MAAAAAICEI15KIcA0AAADAhUS4BgAAAADnF+FaEhGuAQAAAEiUNV+b7VnrTRKoTAOzkhFr+ylc27f9oBsnRuGy+b0RAAAAACA+CNeSiHANAAAAvsBWkbRiRJwUrn3Xw5sk0K3vRoZrAAAAAIDzK2UWeAAAAAAyCP2t2oIFC6xt27Z23XXX2c033+y2xo0bW7NmzWzixIl2/Phx72wAAAAAAJDWEa4BAAAAiXTq1CkbNmyYdezY0VavXm2nT5/2jkQICwuzgQMHWufOnW337t3eXgAAAAAAkJYRrgEAAACJNGHCBPvwww8jQ7Vy5crZbbfdZq1bt7YqVapYpkwR/9xeuHChDR482IVxAAAAAAAgbSNcAwAAABJh69atLlxTsKYQ7ZFHHrFPPvnEevfubT169LBx48bZyy+/7NZek++//95mz57txgAAAAAAIO0iXAMAAAAS4ddff3UBm1StWtXuuusuy5w5s5tLSEiI3Xjjja6STU6ePGkzZsyw8PBwN0cadvpk4rdgWXIkbgMAAAAAXDAhZ7QCOxJt79693sisQIEC3ggAAADpmQKynj172syZM938wQcftMcff9yNg82fP9+efPJJF66VKVPGRo0aZUWLFvWOIi06vfFbs11/erOEyXTlc94IAAAAAJBWUbkGAAAAJNDhw4dt+/bt3sysWrVq3ii6UqVKWcGCBd14//79tnv3bjcGAAAAAABpE+EaAAAAkEAnTpywffv2uXHevHmtSJEibhwTrbmWJUsWNz5w4IDt3LnTjQEAAAAAQNpEuAYAAACkoJw5c9IGEgAAAACAdIRwDQAAAAAAAAAAAIgnwjUAAAAgBR05csTCwsK8GQAAAAAASOsI1wAAAIAEypo1q+XPn9+N41pH7fjx43by5Ek3jmt9NgAAAAAAkPqFnPmHN0Yi7N271xuZFShQwBsBAAAgPQsPD7eePXvazJkz3fzxxx+3Bx980I2DzZ8/35588kkXsJUpU8ZGjRrFGmwXyOGPP/FGCZfrnru9kdmZLT95o4QLKXWNNwIAAAAApFWEa0lEuAYAAJAxTZo0yV555RU3rl69ug0ZMsTy5cvn5j79U/v111+3iRMnuvkNN9xg/fv3t9DQUDfH+bX7wfZ2avNmbxZ/WWvWsAKvD/RmAAAAAICMjraQAAAAGdTp06ddS8OY/tZK+3RM5yBm9evXt5IlS7rxsmXL7Isvvoj2fn3//fc2ZcoUN86SJYs1bdqUYA0AAAAAgDSOcA0AAOAC6tu3r1155ZVuGz9+vLc35W3cuNEFPU2aNLH/+7//i7Jm2P79++2+++5zx1RptWrVKu8IAilYu+uuuyxTpkwuVHvrrbesTZs21q9fP1fR1qFDB3v++efdmmvSuHFja9SokRsDAAAAAIC0i3ANAACkOVrvqnv37pGhlLYuXbrYiRMnvDMQlxkzZti+ffvcePXq1bZixQo3lj/++MNWrlzpxqpemz17thsjOoVrCicVsIlCS1WqqWXkggUL3M+qXHHFFfbMM89Y5syZ3RwAAAAAAKRdhGsAACDN2b59uy1ZssSbRVBbvr///tubIS7VqlVzbQolb968VqRIETeWUqVKWcGCBd1Y51x88cVujOgUlnXu3NneeOONGN+nokWLWteuXW3YsGFWqFAhby8AAAAAAEjLQs7EtMgG4m3v3r3eyKxAgQLeCAAApCRVBantXjCFGGrLl5aoLeTUqVPdWCFNu3bt3Dil6Z+Ac+fOtcWLF9v1119vlSpV8o5EWL58uc2cOdMaNmzoqq5CQkK8IziXI0eOuE0UvOXLl4/3LhXZ/WB7O7V5szeLv6w1a1iB1wd6MwAAAABARkflGgAASFPU+vGnn35yY1VVaQ0rvyXfnDlzIte3wrkp8FFw9vjjj0cL1qRKlSou7FPLTcKh+MuZM6cVLlzYbfnz5+e9AwAAAAAgHaJyLYmoXAMA4Pxat26ddejQwfbs2WOXXnqpvfjii9atWzfXElLtDUeMGGGVK1f2zo5w8OBBGzdunFs/7FyyZctm99xzj5UsWdLbE2H//v329ddfu3XKdu/e7fbpOZo3b+4CKj/c823dutU+/vhjF/SVKVPGrcu1bds2txbXoUOHXOiifWoTGFy5du+999ovv/xiEydOtL/++svdk55D91WsWDF3XjD9c27Dhg3u+osWLXKvMzQ01GrWrGm33367Va1aNVrIE3iPet/uv/9+y5MnjzsW+H7F9p6oOuuHH36w77//3q3ZJno9TZs2tRYtWliuXLncvkC6P7XvFN2Xvn+Br1X3XKdOHWvbtq1ddNFF7jwgOVG5BgAAAABIDoRrSUS4BgDA+aUgZuDAiA+51QLy2WeftZdfftm+/PJLty+m1oq7du2y9u3b2+Y4PlQPDuf0z6Tp06fbgAEDIlv9Batdu7b179/fra3lW7FihXXs2NGFUwqLFDbpHL+qTlVNI0eOtPLly0cJ1xQa7tixw7W9DKaKKIWIzZo1ixKUKezT/SnoOn36tLf3LAV/Dz30kD3yyCNRHhd4j6VLl7YxY8a4+5LA9yum9+R///ufvf7661H+HRSobNmyNmTIEPc1UOBr1fdw/vz57rUG37de66BBg6xu3breHiB5EK4BAAAAAJIDbSEBAECaoXBKrR9FLSGvvvpqFx5dd911kdVjWkcsOAjTMYVfpUqVirZpTazYqCpLa7v51ytXrpzddtttrjrLr/L6/fffXbgVWzvKjRs32jvvvBPlePHixV2VV7D33nvPJk+e7Cq4dE7BggW9IxGVYoMHD46s/BIFY126dLFZs2a5gEpVZmrxqABOFXN63dr/0Ucf2ZIlS7xHJc20adOsV69ekcGa7rFx48ZWr149F4rJpk2bbPTo0RYeHu7mMVFlnII1fR9VFafvj/891GvVe6YqPwAAAAAAgNSGyrUkonINAIDzJ7Al5MUXX+yqvxTuhIWF2aOPPupaQ6od4fDhw61GjRreo2J36tQpF575VW+tW7e2rl27WubMmd1zPPHEE67loQKgJ5980rVy9Ku/1OZR+9avXx/tOQOrwkShl9ouqoJNwZn26/51rcBqLlEwpgo1v63imjVr3FyBldx8882uFaauI59//rmrImvVqpW7X/9x+ifeW2+95UIsefrpp127RV9iK9f89+Xw4cMuZAtck033+Nhjj7nvh6rWdM3AgDD4tbZs2dKee+459/6IQsLevXu7IFKtM99++22rWLGiO4aM68zRo3bmzz+9WQL98/ObKaBN7LHZEes1Jkb2Rtd4IwAAAABARkflGgAASDN+/vlnF+7IFVdcEfmHLUWKFHHtGUWhz6+//urG56LwSRVdftij66mlpII1Wbp0qa1du9aN1dpR4VVgW8USJUq4NddEz6nzY6N11B5++GH3GFVoXXLJJVGu5VPg9tRTT0VZr0zrkinMUsAnf/75Z+S6b6J7UAilkCrwcbp+4BptChKTg8IyteFUsKn3JfB15M6dO7KiTxVzMbWp9FWvXt06deoUGaxJ/fr13fpwsm/fPtu+fbsbA6e3bE7UFkwBWWI3AAAAAAB8hGsAACBNUKtAtXwUvyWkH+zoa2BrSIVrcbUUVMvHUaNGuQBIgZGCNYVDPq0H5odDCrgOHjzoKroCt8DWjqpgi4kqv3RvMYVpwRRWBVZ6+apVq+YCRNHrCgzXFE5dfvnlka9d96yKs7Fjx7rWiimhQoUKrpWjT9+bX375xVWyqbowPhSiBbfkzJEjh2uHCQAAAAAAkJoRrgEAgDRBVWTLly93Y7UcvOyyy9zYp2owP5hRK0W/6iwmWrfstddec+0HFU517949smLKFxjOqbWi2jEGb3369PHOiL0yTOGaH4zFRVVtMVHo5782tXHcuXOnG/sU9Kl6TdV1qv5Su0XN/baUyU0Bnta+UyDZqFEjt2msQDK+YnqtCiD9kBAAAAAAACC14tMLAACQJqgaTe0XRdVRTZs2det9+dutt95qW7dudcePHj3qKqliorXStGaZ2ksqyNFabY0bN/aOJl5gJVdK8NdYC6Z1yrRWnCrVtOac6F7atGnj1llLbgodu3Tp4tpX6j1W1VrOnDndenMvvPCC1axZ0zsTAAAAAAAgfSJcAwAAqZ4Cnfisoxbop59+cut2BdJ1tF6Y38JRFV5t27Z1FVPnoqqs33777ZzbI4884p2deLFVvx07dsx27NjhxmqdqGo4UZg4ZMgQF3CpAq9nz54u8Pryyy+ta9euVrp0aXdectI6dVr7TrROnZ5r9uzZLty74YYbLGvWrO4YAAAAAABAekW4BgAAUj21eFSrR1GwdMstt7hqreBN+/3gaePGjbZ69Wo3FgVXw4YNs3nz5rl5vXr1XGiWOXNmNw9WsWJFb2SuHWV4eLg3O+vMmTOuSi65LF682LWqDKZgzQ8Kc+XKFblWmd4Xv1rvmmuucdV7ga/Hr/RLLgrxfv/9dzdWyNehQ4coFXt6j5Pz/QAAAAAAAEiNCNcAAECqp2osP7S57rrrrG/fvtajR49om9oSNmzY0J138uRJ++GHH1wApk0VV5MnT3bHKlSoYL169XJrmcWmWrVqLsgSVcH9+OOPbhzojz/+cIGWQruYQrGEWrhwYWRVmE+B1RdffBG5flr58uWtWLFibhxIFWOB65XpcbpvX2xVcYmlEC+4Sk3tOjds2ODGWpdNGzKuPcf2JGkLFJIjR6I2AAAAAABSQmhffTqFRFObJp/+ghsAACQvVWy9/fbbkWukqf1iuXLlvKNR6bhCpO+//94Favo9ff3119vmzZvtlVdeiQzotMaa2igqCAreFLgpVCtUqJBt2bLFVq1a5arWtLaZrqPQTiHShAkTbPjw4Xbw4EFbuXKlW2vMb8O4a9cumz59ugvcVEmnAE7rksVEAaBfYRf8PEuXLrXXXnvNtV0Uf424KlWquPnevXvtf//7n3vNqmArUqSIe2/2799vb731lk2bNs29D6LXrnvR69JrP9c9qkJN7R4V6OlcVQTq2np+hX9qq3nixAnbuXOnVa1a1f0baP78+a7l5u7du9019N7renp80aJF3b7A16rKwZjWZws856abbrKLLrrIjZH2LNr+m734c2+bvn5qgrcritexIjmLuOuEZMlimS69NFFbyD8/twAAAAAAJDcq1wAAQKqmoEUtHqVUqVJ22WWXuXFsVHFWvHhxN960aZMLvhRaBVZRTZo0ybp16xbjpvNFlVkdO3Z064qJrqGwyq+S0zUUQvmBV926dd15SdGoUSPX8tF/nn79+rmWlD6tEde0aVNvFtG6slatWm6sFpD6mylV7umczz//3O666y5XpScK6rp37+6+JlZoaKg1a9bMBWYyZ84ca9WqlXvOTp06uf1aw04UDo4aNcpGjhxJq0gAAAAAAJCuEK4BAIBUS1VXqmRSUCO1a9d2FVTnopaJNWrUcGM9bubMmZHVWwmlKi+1fHzyySetYMGC3t6zVJGlAOzee++1kJAQb2/iKSgbM2aMVa9e3dsTQRVgWh/umWeeibKmmvYrUGvSpIkL+XwKuR577DF330899ZQVKFDA7dc9JrV9pdZ269OnT+Q1fZUqVbIBAwa4ykJVnPn3o/ee9pAAAAAAACA9CTmT2E+b4Kgdky/4QyYAAJB+6J9Marfor12mkEtVZskRqsVE7SYVhCmkUtvGwFAtJqqi0yY6P3g9tIRQy8j27du79pS61ogRI6xy5cre0QgKzNSyU19T+r3A+bV6/1zbe2ybN0uYesVaeyOzsCM7vFHiFM0ZfW1BAAAAAABSA8K1JCJcAwAA6U18wjWkXwrXth2OWPcuYULs2pLtvDEAAAAAAOkXbSEBAAAQxYYNGyL/gEjhWlytOAEAAAAAADISKteSiMo1AACQEgLbLsa3NWRSbNmyxZ544gk7duyY7d69O3KdtJtvvtlefPFFCw0NdXOkXm/+LzHVZhG63FjRG5ntOLrWGyVcsRyXeCMAAAAAANIvwrUkIlwDAADJ6fDhwzZq1CibPHly5BpqonCrfv369uSTT1qFChW8vcln+fLl1rFjR7fWm08Va0OHDrWKFc8GL0i92o//zbbuO+rN4q9m6Xz2ausa3gwAAAAAAMSFtpAAAACpxKpVq6xt27b20UcfRQnWJDw83H7++We777777KuvvrLk/vuofPny2XXXXWdly5Z166s9/PDD9sEHHxCsAQAAAAAABKFyLYmoXAMAAMkhLCzMOnXqZOvWrXPzbNmyWYMGDaxgwYJ26NAhmzt3bmRVWa5cuWzIkCFWu3ZtNweEyjUAAAAAAM4PwrUkIlwDAADJYfTo0W4TVY8NHjzYypcv7+Zy4MAB6969u82fP9/N69Sp487JmTOnmyNtOnYy3A6eCPdmCVckV1ZvZNb3y2XeKOH63lrVGwEAAAAAgLgQriUR4RoAAEiqffv2WYcOHWzNmjWWKVMm69u3rzVr1sw7epaq2nTenj17LEeOHDZ8+HCrVauWdxRpkcK179ft8mYJc2nh3HZJ4VzeDAAAAAAAnC+suQYAAHCBbdy40TZv3uzGRYoUsZo1a7pxsDJlyljVqhEVRkePHrU///zTjQEAAAAAAHD+EK4BAABcYNu2bXNhmaglZGzV8FmzZrVLL73Um5mtX7/eGwEAAAAAAOB8IVwDAAC4wHbu3OmNzIoVK3bOddRy587tjcx27NhhR44c8WYAAAAAAAA4H1hzLYlYcw0AACTV+PHjbdiwYW7cvHlzt+ZabGbNmmVdu3Z14zp16tjgwYPPGcYhZexY/KOt+nyEN0uYmg/2tXzlq7jx6ST+UzxTSIg3AgAAAAAA5wuVawAAAEAinD51MlFbIIVjSdkAAAAAAMD5R7gGAACQhmzevNkbAQAAAAAA4EIgXAMAALjAihQp4o3iXkft0KFD3iju9dkAAAAAAACQ/AjXAAAALrASJUpYjhw53HjLli1RArRAJ06csDVr1ngzswoVKngjAAAAAAAAnC8hZ/7hjZEIe/fu9UZmBQoU8EYAAADxt2/fPuvQoYMLzjJlymR9+/a1Zs2aeUfPWrdunTtvz549LowbPny41apVyzuK+PnD+5oYNb2vZjsW/2gnj8QcgsYlT4nylq98FW8GAAAAAADSGsK1JCJcAwAAyWH06NFuE1WkDR482MqUKePmomq2bt262bx589y8Tp067hzaQibUon+2DRHDBAn5Z2sdMQQAAAAAABka4VoSEa4BAIDkEBYWZp06dXLVaZItWzZr0KCBFSxY0LWDnD9/vjtHcuXKZUOGDLHatWu7ORKCcA0AAAAAACQN4VoSEa4BAIDksmrVKuvatatbdy02Ct26d+9uzZs3t5AQBT5IGMI1AAAAAACQNJm8rwAAALjAKlWqZOPGjbM2bdq4EC1QaGioXXXVVfbBBx9YixYtCNYAAAAAAAAuECrXkojKNQAAkBJOnz5t+/btc18lb968ljVrVjdGUlC5BgAAAAAAkobKNQAAgFQoU6ZMbr21woULu41gDQAAAAAAIHUgXAMAAECqp2YLid2iUxVaQjcAAAAAAIAIydIW8sCBAzZnzhybP3++bdy40e0rXry4NWrUyK6++mrXxii5hIWF2bfffmuLFi2KbMlYrlw5twaJnitHjhxu3/lCW0gAAICU9073b21v2GFvFn8XVS5ibZ+7xpsBAAAAAAAkXZLCtRMnTtgXX3xhEydOtGPHjnl7o1JLo5tvvtkefPDBJAVfR48etTFjxrhgLbZbzp49uz366KN24403nrdF/gnXAAAAUh7hGgAAAAAASC1C+/7DGyfI4cOHbdCgQTZt2jQ7deqUC7O0HkitWrWsQoUKLng7cuSIW4R/zZo1tmLFCmvQoEGi1gvR9d9++22bMWOGm+fPn98FdrfddpvVrVvX7du6daudPHnSVbSVKlXKLrroIrc/pQWGiue7ag4AACCj+G3mOjt2+KQ3i7/8RXJZ9avOz78LAQAAAABAxpCoyjU9ZOTIkS5YkyuvvNIee+wxK1GihJv7du/ebaNHj7aff/7ZPeaGG26wTp06WebMmb0z4kftJvv37+9CturVq1vv3r0tV65c3tEIy5Yts379+tnBgwetZMmS7vyiRYt6R1MOlWsAAAAxO3U83P5escObJUzuAjmsyEVn/23195rd3ijhylxayBsBAAAAAAAkXaIq15YsWWLvv/9+ZNjVo0cPK1iwoHf0rJw5c7pqtZ07d9r69ett06ZNVrZs2QRXlU2YMMHWrVtnefLksW7dusUYmmmfQjtVrh06dMhq1KhhpUuX9o6mHCrXAAAAYnY6/IxtX7fbTh4/leAtV/4cbvPlK5Qz0RsAAAAAAEByyuR9jTcFaqpY0xpoqh7TWmrBVWSBFHi1adPGhW967DfffONaRsaXwquwsDA3VjBXvHhxN45JlSpV3L2oSm7Dhg3eXgAAAAAAAAAAACB5JDhcUxXaqlWr3LhatWpufbW4qE2jvzaa1l/buHGjG8eHwjlVwCVUQltPAgAAAAAAAAAAAHFJcLi2devWyHXGVCkWnxArJCTEatWq5caHDx927SHjS9f320ju37/fVczFZt++fXb8+HHXnrFy5creXgAAACTI6mlmf36YuG37795FIhQqnS9RGwAAAAAAQGoVckY9FBPgs88+s/fee88FZr1797Z69ep5R85t9erV1qtXLxeuNWvWzDp27OgdiduWLVuse/fuLtS77777XJtJPX8gXbdfv35uPbgrrrjCPVfWrFm9oynHDxqlQIGzi+4DAACkWQrXZvXyJgnUcqxZ8dreBAAAAAAAIP1JcOXajh073Fe1akxImKRz/faOCsISolSpUvbUU09Z7ty57b///a8NGzbMVdCdPn3ard/2559/Wo8ePVywdvHFF1unTp3OS7AGAEBGo9+9Bw4ccOubAgAAAAAAABlRgsO1hAZjvkyZMkVWm+3ateuc7R1jomq0119/3QVtM2bMsIcffthatGhhrVq1sueff97Wrl1rTZs2tQEDBliRIkW8RwEAgOSiNVP1u7ZJkyZ25513unVYAQAAAAAAgIwmwW0hBw4caD/++KMLsBR2xTfI2r17tz377LMWFhZmVatWtRdffNGtjRZf+gBv1KhRNm/ePPdX8zFRZdwdd9zhAreEVK4dOnQo0X+Bf+rUKW8EALiQ9DslW7ZskX/IsWLFCteCWFVWMdEffRQvXtwFRffee68VLlzYO2Lud4LW8NQfgug8/U4JDQ2N0pJYv4vCw8NdBbXoHJ17Lnp84Dm6xsmTJ92WJUsWt+kcbboHv0JbzxMTrUuqxwT+AYseo02/n/RV9xV43zEJvC89r55Pj9f7Gfj7VL+H3333XW9m7t8BjRs3dmM97tixY5GvJfD98q+pTceR+mXZMMNyzO3vzRLm8I3DLbxIDW8GAAAAAACQtsSna2OCK9d8+rDvyJEj3ixlLVy40LV6nDt3rvuw7tprr3XVamPHjrW33nrLfXh6ySWXuA9Bx48f70K8hP41vT5ETMwGAEibFDypxbDaDbdt29aWLVvmHYkImxQQ5cmTx/LmzeuCO4VMfgCmTcGT/qhDx/VVx7Nnz37OTY8JvoZaHufLl8999cMsHfOvp+vrPvyQS/em+/H365zAe9M1dFzH/ONxbYH3pWv5j9c8UPXq1SP36fkVTgbSdfS44PfLv6b/WjWOK/ADAAAAAAAAUqtEh2sKlvRX/YmhD9eCP7CLzZYtW2zIkCF28OBB9yHe0KFDrWvXrnb11VdbsWLFrHz58tasWTN3zhNPPOGuu27dOhs+fHhkNQEAIGPLlSuX+13RunXryO26665zYZDs2bPHBg8e7CqZffpjDlWGxRUCBVa2JVZcFW+6DwV4+v2pTYFYfJ4vsKItMYIf26BBA/c+PfjggzZy5EirXLmyd+Rs9Vt83i/dv74nSXnPAAAAAAAAgAslwW0hP/nkE/vggw/ch3z9+vWzyy67zDtybloTrWfPnu6DS1WeKSCLj3HjxtnEiRPdB4t6fN26db0j0emlqJLtm2++cX8Vr9aTakEZl6S0qFLo53+QGJ9SQQDA+RHYFrJ06dI2ZsyYKK0fZfHixfb000+7c/THGfoDjnP9ngEyjNXTzGb18iYJ1HKsWfHa3gQAAAAAACD9SXDlmv/BpFpCJqT14v79+91aLFK2bFn3NS46Xx+OSokSJaxixYpuHBuFXA0bNnRBnFpELlmyxDtybn7bqsRscf2FPgAg9dLvlUqVKrmx/tDC/z0VSO0j//jjD/cHG6p4u+222+y+++5z64/t2LHDOyu6KVOm2CuvvOK2VatWuWrvadOmucf619DcrwLX88yaNctVhel4mzZt3HMcPnzYHY+Jfrfqj14UIuox2jTWH5nEVF2uPwjRH6HonvRVc13/ww8/jHJfmsf0vGqjqcq1wMcH078Ppk+fbs8991zkPek16T7P9VoAAAAAAACAtCLB4ZqCMbVykj///NN9jY81a9a4VpIKvi699FJv77kFBnha28Vv33UuWuvFP2/Tpk3uKwAAMdHvJLUojM3u3bvdmp8PPfSQffXVV+73itoV6w8/3n33Xbv11ltdG+KY1uD8/fffbdKkSW5Tu2JVbPfp08c91r+G5gqr9Pvutddec+fod6uOr1+/3j2HgqmwsDDvqhH0fKoib9GihQ0aNMjmzZvnHqNN4169erlWyQrfAilwmzlzprsnfd2wYYM9/PDD9uabb0a5L807dOjg2mUG0vUUCPqPDwzwVD0+Y8YMF6a98MIL9v3330fek16T7lPBHb+bAQAAAAAAkNYlOFwrVaqU20QflgV/8BYTrX3mV5EVKlTILrroIjeOiyrD/CBP1QQxfXgZTB/0+ef5jwUAICZqVaxqLClYsGDk7zfRMYVECqt8/jlqjSzh4eGufbFCsHN1WVZLyp9//tny5csX5fGisEoh2+TJk91+Hdfz+BTM6Vigd955x7WwVCinNcxKlixpTZs2tRo1akT+gYnCvQkTJrhxTNQK86WXXrLVq1dH3pe++pYvX26fffaZN4ubXodCvb1797q5XkPjxo2tXr16ka9Xwdro0aPd+4aUcWbjN3ZmzeeJ2qLI/s/PQrPhidsAAAAAAADSuQSHawqstGaa6K/R9WFhXHTO0qVL3fiaa65xAVt8aN00vw2lPvyMz1+7L1u2LPIv6ePbfhIAkL6p5aL+GGTXrl2Rm8KnZ555xoVX0qRJEytXrpwby7fffmsLFixwYwVFqlDTPrV7VPtGrdXmB1lqeXiuVsSbN292lWT/+9//3OPVNlGhk+h3lqq8VAXnH1dbx3//+9/uuKiaTH+o4mvWrJkVKVLEqlSp4p77yy+/dK0ax44d60I3/f4UtbNUm+SYKFzbtm2be5yq0PS8en1qfek71+ODqS3zJZdc4kK6kSNHumu9/vrrNmLECPvvf/9rRYsWdecptAuuqEPyOrN/fSK2Dd6jPWWvTvzGemsAAAAAACCdS3C4JgrXFFzpr/S1LsvChQu9I9Ep7NJf7KuarHjx4vavf/0r2jplCulmz55ta9eujfKX/2rXdeWVV7rz9eGeWmCda72WlStXRv51v9pDVqtWzY0BABmb/kCjbdu2dvPNN0duaoeoQExVVU8++aQ9++yzFhoa6s5XRZgCJ4VyotaQDRo0iPz9pd9PWhPN/2MT/W5SS8TY1K9f3+655x5XZSa5c+e266+/3o1FlWdq/+iHdTrvqquuigzJgqu3K1SoYAMGDHDrnmkcqECBApGP0/2fq6Lu3nvvtRtvvDHK62rZsqX7HSr6/RzfddIUQL788ssuWKtTp06U3/V6vf41dU/++woAAAAAAACkRYkK1/TBnT6I1AdlBw8etL59+7oP+RSkaX0abVrHZciQIdazZ0/bt2+fa/F4//33u4AtkP5qXufo8U899ZT76/1A+uDSD8n0Iag+/JwzZ07kX9LrQ0NVIHz88ceufZfuR7TmS2AFAgAAwVSNrVaGCpkULPl27Njhfo+JKqhj+mMNna9qbJ/Oj63Kq1atWtHWDfUrs+Xiiy+OMhedr9+dsVELSK1H6tPvWgWCvXv3jlfLZl37iiuuiPYHL7oPPwhLKAV9Cgp9Cil/+eUX9x77FYIAAAAAAABAWpeocE0uu+wy69q1q+XPn9/9BboqzzRv166d2/z2VydPnrTs2bPb448/HuVDSJ8+ANS6NqKgLCwszI19+uBTbbv0waOoNeSrr75qd9xxh91yyy3WvHlzF9qp5ZT+ul4fEmrdmTvvvDPaB4YAgIxJVVX+H3Jou/vuu13Fmn5vKPj56KOPvDMjqFLMb8Oo32GxhU0lSpSIrBLTH4vEFq4FBncx0VpnWbNm9Wbxo3aSah+pijdVud1www3WvXt3t4ZafOi+Y3pdqprzK+wSSv8e0B/AdO7c2Ro1auQ2jefPn++dAQAAAAAAAKR9iQ7X5PLLL7fRo0e7FlL6kDKY/ipea9i88847LvCKKexSdZnWaBEFdWoDGUzrygwaNMjat28f7S/7fbq2rtO/f3/3QV5cH2QCADIO/Y7SH3ioFaM2VUErVNPvKQVCEyZMcK0jEyqwuux8tjtUkKc12fQa/vzzTxe0KaDTumcvvfRSlOqx80V/KNOlSxdXha5qNVWt6X1XhZ0qy2vWrOmdCQAAAAAAAKRtSQrXRJVlWrdGH0yqekzhljaNJ02a5KrOFI7FRo9XJdonn3xi48aNiwzagukv+lu1auXO0XONHTvWVSHoucaPH++ea+jQoe7DOyrWAABxURBVuXJlN1aw9scff7hxsHOFZjt37rQDBw64cdGiRWP8Q5PkFh4ebiNGjIisUGvWrJl99913bhs2bJjVrVs30ZVnSaHqv59//tmN1W7yyy+/dFXt+n2tqrqEVuYBAAAAAAAAqVWyffqmD/K0FpvWldGmcXw/3FMYptZU8a02y507txUrVsx9MKrnKlSoEB/aAQASRL9L6tev783MfvzxRxdciX7HqJpa9u7dG2tV28qVK71RROvJ4HXVUoLuZ+nSpW6s+3z00Udd1ZpPVWxqyXw+qUrt999/d2O1m+zQoUOU6rlTp07F2jITEcK3bEn0Fk32AonYIn7eAQAAAAAAELfz/6ftAACkEqry8tdMW7JkiW3fvt2N9QcifvCmUOjdd9+NXB/UpzVAteaZ6I9J1AY5NDTUzc8XPZ/fltKnCjxV1IkfFp5P+kOZ4D94WbdunW3YsMGNz2f7zLRk7/M9bde/H0rwdmDYW94VIoSUu9kyVWufqA0AAAAAAADxQ7gGAMiwKlSoYBdffLEb79ixw61fJqqovu2221w1msybN88eeOAB15ZY7Rf/85//2EMPPeQCNqldu7arpj4fFFz5VXWqqBszZozt2bPHTpw4YdOmTXNrlPrh1dq1a23q1KmRwVZKUcWeXz138OBBtx7r33//7e5p7ty51rdvXzt8+LA7ruBvypQpkdV3AAAAAAAAQFpDuAYAyLDy5s3rqtd8ga0hK1WqZN27d49cR23jxo32+uuvW7du3WzkyJGuPaOUKlXKnn76addm8nzQPd94442RrZe15mjTpk1duNenTx+77LLL7Oabb3bHtB7cwIED7cMPP3TzlKIKOq395rfFnDNnjlsnVffUqVMnt79t27bumFpWjho1yr2HtIoEAAAAAABAWkS4BgDI0BQAxdQaUtTq8f3337errroqWstHBUZ33323ffTRRy6IO5/uuusuF1r5wZ8obNNr6devn3Xu3NlV0/nORyvGa665xoV7aqkZSO/NgAED7JFHHrGbbropMhQ8c+YM7SEBAAAAAACQJoWc0adbSDS/ckGCP1AEAKQfanGoSjBRQKTWjH5QdKGcOnXK3ZNCKoV9efLk8Y5cOLqXffv2ua9af03tItVmE+e2q90DFh4Q7MZX1tq1rcCAV70ZAAAAAAAAzgcq1wAAiAetdVa4cGG3aS22Cx2sicIr3YvuKTUEa6L3xb8nBZAEawAAAAAAAEhvCNcAAAAAAAAAAACAeKItZBLRFhIAkFL0K3r//v2u/aPkzZvXVdAhlTh61MJXrfImCROSI7tlqnSZN/vnUl9+5Y0SLsetLbwRAAAAAAAAzgfCtSQiXAMAJLfjx4/bxIkT7YMPPrA9e/Z4eyNaLlatWtU6depktWvXpuXihXb0qJ36ero3SZhM/3wfA8M1AAAAAAAApB20hQQAIBUJCwuzRx991IYOHRolWJPTp0/bkiVL7LHHHrN33303sqINAAAAAAAAwPlDuAYAQCpx5MgR69evny1dutTNQ0NDrU6dOta6dWtr3ry5FS1a1O1XyDZmzBibMWOGmwMAAAAAAAA4fwjXAABIJebMmWPz5s1z44IFC9rw4cNt5MiR1qNHD+vbt6998cUX1rJlS3dcAdt7771nO3bscHMAAAAAAAAA5wfhGgAAqcCJEyfs66+/dqGZtGrVylWtBcqWLZs9/vjjdvHFF7v5hg0bbNGiRW4MAAAAAAAA4PwgXAMAIBXYuXOnrV692o1z5MhhDRo0sJCQEDcPpIq2wNBtwYIFdubMGW8GAAAAAAAAIKURrgEAkAooXDtw4IAbFypUyEqXLu3GMalatao3Mtu2bZsdPXrUmwEAAAAAAABIaYRrAACkAgrW/JCsRIkSljNnTjeOSa5cubxRRLh25MgRbwYAAAAAAAAgpRGuAQCQxhQuXNjy5MnjzQAAAAAAAACcTyFnWKglSfbu3euNzAoUKOCNAABImNmzZ9vTTz/txlpTbfDgwbFWry1fvtw6duxoBw8edO0jx4wZ4wI3xM9Pm3+0yWsmebOEeaTGY1apUOWIydGjdib8VMQ4EUJyE5ACAAAAAACkRVSuAQCQxuzatcsFa0i8bYe2JmqLIkcOF5AldgMAAAAAAEDaRLgGAEAqkDdvXsuRI4cbx7WO2uHDh71R3OuzAQAAAAAAAEhehGsAAKQCRYoUcQGb7N+/38LCwtw4JsuWLfNGEeGaH8oBAAAAAAAASHmEawAApAIK1ypWrOjGavn4448/WkzLou7Zs8cWLFjgzSLWZwsJCfFmAAAAAAAAAFJayJmYPrlDvO3du9cbmRUoUMAbAQCQcDNmzLBevXrZ6dOnrWDBgjZo0CCrUaOGd9Ts1KlTNnDgQJs0aZKbly9f3t566y0rVqyYm6d3mw8v90YJVzpXFW9k9tPmH+2v/Ru9WcLUKV7XKhWq7M0AAAAAAACQERGuJRHhGgAguWidtW7dutncuXPdPDQ01C6//HIrU6aMhYeH2x9//GEbN0aEQpkyZbK+fftas2bN3DwjWLXvZ9t+ZK03i78Qy2SNSt7nzQAAAAAAAICkIVxLIsI1AEBy0lprXbt2taVLl3p7olOw1r59e3vwwQctc+bM3t70j3ANAAAAAAAAqQFrrgEAkIoULVrU3n77bXv88cctT5483t4ICtWqV69u77zzjj388MMZKlgDAAAAAAAAUgsq15KIyjUAQErRr+j9+/e7tdYkZ86cbsuoqFwDAAAAAABAakC4lkSEawAAnNuxk+HeKOGyZwn1RhHh2s6jEWvOJdTVJf7PGwEAAAAAAABJQ7iWRIRrAACc24PvL7DtB455s/irXbaA9W9ZzZsBAAAAAAAAqQNrrgEAAAAAAAAAAADxRLgGAAAAAAAAAAAAxBPhGgAAAAAAAAAAABBPhGsAAAAAAAAAAABAPBGuAQAAAAAAAAAAAPFEuAYAAAAAAAAAAADEU8iZf3hjJMLevXu9kVmBAgW8EQAAadvRk+G29cAxb5ZwFxfK5Y3Mxs3d6I0S7v4G5bwRAAAAAAAAkDoQriUR4RoAID1SuPbDul3eLGEqFskdJVwDAAAAAAAA0hPaQgIAAAAAAAAAAADxRLgGAAAAAAAAAAAAxBPhGgAAAAAAAAAAABBPhGsAAAAAAAAAAABAPBGuAQAAAAAAAAAAAPFEuAYAAAAAAAAAAADEE+EaACBF9e3b16688kq3zZ4929ub+h05csQ6dOjg7rtJkya2YsUK7wgAAAAAAACAjIxwDQDSMQVCCoYUELVs2dJ27drlHQEAAAAAAAAAJAbhGgAAAAAAAAAAABBPIWf+4Y2RCHv37vVGZgUKFPBGAJA6qHKtY8eOduDAAStdurSNGTPGChcu7B09P9QWcurUqW78xhtvWKNGjdw4tVNbyGeeecYWLFhgefPmtREjRljlypW9o6nX9kXf256Vv3mzhCl1VXPLd1HEazx6Mtz2HT3pxolRIm92bwQAAAAAAACkL1SuAQCQzoQt+SVRW6AcWUJdQJbYDQAAAAAAAEivCNcAIAObMmWKvfLKK25btWqVHT9+3L755pvIfT/88IMFFjifPn3a/vjjD3vxxRetdevWdtttt9l9991no0aNStJ6bvv377dPPvnEVdnpmto01r3onoIdPHjQ3nrrLXeP+qr54cOH7cMPP3T349+X5tofG722pUuXWs+ePd1j9Jr02tavX++dAQAAAAAAAABREa4BQAb2+++/26RJk9y2YcMGe/bZZ61Xr16R+3777TcLCQlx5+7evds6depkDz30kH311Ve2adMm27Jli2s9+e6777pg6tNPP40SxsXl1KlT9sEHH1iLFi1s0KBBNm/ePHdNbRrrXp544gkXvgVS4DZz5kx3j/qqe3/44YftzTffdPfj35fmHTp0sD179niPPEttH/v162cPPvigffvtt+4xek16bQrmJkyY4MJEAAAAAAAAAAhEuAYAcD7++GMXaAWqWrWq+3ro0CF74YUXIo9ny5bNrrvuOheoValSxTJlyuTCqiFDhtj8+fPdOfHxzjvv2NChQ91jdY2SJUta06ZNrUaNGu45RAGggq7YaD25l156yVavXm358uWzUqVKua++5cuX22effebNIigAHDdunH355ZeRAZqeT89fsGBBF95pjbWFCxe6YwAAAAAAAADgI1wDADjLli2zyy67zFWhqR2jqtAaNGjgjqmya8GCBW5cuXJl++KLL1ylWY8ePVxIpeoyhWMKpVT5FR4e7s6NS7NmzaxIkSIuoFNbSIVdavU4duxYF7rlyJHDnadWlEePHnXjYArXtm3b5h6nKja1utT9KvjzBT/er1Dz6T5mzJjhnl+PHT58uAvZAAAAAAAAACAY4RoAwClevLj179/fateubYULF7by5ctb/vz5XVWZQitVeGXJksW1WSxatKj3KHNtI2+++WZXMSaqFAtu4xibChUq2IABA9y6aRoHKlCgQGS4puc+V7vJe++912688cbIFpaZM2e2li1bWp48edxcLR8D115TRVpYWJgbV69e3Z555hnLlSuXm+saChWfeuopFxgCAAAAAAAAQCA+NQQAOHXr1rXSpUt7s7N27Njh1jQTVXNp27VrV5RNFWt+pZcqybQvvtQCMm/evN7MbN++fS7M6927d4xrpQVT4HfFFVdEBms+BYR+uBZs/fr13iii9WVgG0nflVde6QLH8+dYEraosuYtmKgNAAAAAAAAQNwI1wAATrly5aIFVHLs2DE7ceKEGytoU5WYKtUCt1atWrnWi6Iqs/i2hRQFc2pD+eCDD9pVV11lN9xwg3Xv3t2toRYfqm6LKURT1VlslWdaQ84XWIUXKHfu3Oc5XFv6zzYtEdvX/2xnFb+8sTV8/j+J2vJdVNm7CgAAAAAAAIDYEK4BAJLV/7N3H2B2VWXbgN8zM2mT3hNI6DVU6VWQJiIooiIqoCiIoKD+H2BFURSlqIgNARVF7AKiVJHeu/ROCCSkT3qfmf+sNXsmk5CEMzMJpNw31/7OWmvvfdpM4nXl+d53pVBqSZVgS5L2SjvmmGPiG9/4Rjz22GM5aEv37rbbbvGd73wn1lprreLKt0d1dXUxAgAAAABoIlwDoGKpbWSqMnvwwQeXelx99dUVhWKpuu3nP/95S4XaQQcdFP/973/zccEFF+Q2lW/nnmepYi9V6gEAAAAAtCZcA2CZBg8eHH369MnjSZMmxWuvvZbHi5s/f34sWLCgmL25urq6eOKJ1Aqx6TWOP/74RSreUhVbes4VYZ111ilGEU899dQS21imz5k+LwAAAABAa8I1AJYpBV4jRozI49mzZ8fFF1+8yJ5lSQrCzjrrrDjiiCNyWLU0SwvfUvvFTp06FbMmaQ+3CRMm5HFb9nCrxJZbbtnyevfcc08+Wkuf58orr4yZM2cWKwAAAAAATYRrACxTCr5SaNarV688v+++++LII4+Mv/zlL7mF49/+9re8b9q//vWvGDlyZPz617/O4VSztAdbsz/96U9x4403xvjx46Nz584tFXFjxoyJSy65JCZPnhzz5s2La665Js4777xoaGjI51944YX497//HS+//HKed1QK17bddts8TgHa1772tfx66fP885//jOOOOy5/HgAAAACAxQnXAHhTW2yxRXzpS1+KLl265HlqmXjuuefGl7/85Tj77LNb9k3bYIMN4pRTTmm5Ltltt91aqsQeeeSRHGTddNNNOazbf//9W/ZVu+KKK+KAAw7I13/rW9+KzTbbLA488MB8btq0aXHOOefE5ZdfnucdVVtbG5///OejX79+eT5r1qz485//nD/PmWeemavv0ntLIRwAAAAAQGvCNQDeVKlUikMOOSQuu+yy2H777XM1W2tpnoKxn/70pzF06NBitclOO+0Uxx577CL3TJkyJT9+5CMfiZNOOimHXc1S2JYCthRynXzyyfGOd7yjOBO5kq25mq2jUmB44YUXxjbbbNMS8CXpvXzhC1+Ir3zlK9GtW7diFQAAAACgSamxrBjTDnV1dcUoom/fvsUIYPWWWjemarJmqQottXlcluZ7UpCVrq+pqSnONO3Fls6l4CxVvfXs2bM489aYPn16bmW5pPf21nmwfLzSNGyTFAx+oGkIAAAAAKxwwrUOEq4BrNkeu7M9gViTrfdYtxglKVxrrx2KRwAAAABgRROudZBwDaB90v/8TJ06NVetJZVUv62MfnHa9TF14qxiVrn1txwcR/y/3YsZAAAAALCqsOcaAG+p1H4x7d327ne/O/bbb7848MAD87HHHnvEMcccEw8//HAO3gAAAAAAVkbCNQDeMuPHj4/jjz8+fvKTn8TkyZOL1SZpv7XHH388PvvZz8bFF1/cUtEGAAAAALAyEa4B8JaYNWtWnHnmmfHEE0/keXV1dey4445x2GGHxcEHHxyDBg3K6ylku+SSS+LGG2/McwAAAACAlYlwDYC3xJ133hn33XdfHvfr1y9++tOfxi9/+cv42te+FmeccUZceeWVceihh+bzKWD77W9/G+PGjctzAAAAAICVhXANgBVu3rx5cd111+XQLPnABz6Qq9Za69KlS5x44omx4YYb5vnLL7+c918DAAAAAFiZCNcAWOEmTJgQzz33XB5369Ytdt111yiVSnneWqpoax26PfDAA9HY2FjMAAAAAADefsI1AFa4FK5NmzYtj/v37x/Dhg3L4yXZYostilHE66+/HrNnzy5mAAAAAABvP+EaACtcCtaaQ7KhQ4dGbW1tHi9J9+7di1FTuDZr1qxiBgAAAADw9hOuAbBSGTBgQPTs2bOYAQAAAACsXIRrAAAAAAAAUCHhGgArlYkTJ8b06dOLGQAAAADAyqXUWFaMaYe6urpiFNG3b99iBEBrjz76aJx00kl537Vhw4bFJZdckts/Lsl1110Xp59+eh7vuOOO8cMf/nCZe7S1x7w5C2Lm5Pbv5dZ3rV7FKOL63z9SjNruwKPfUYwAAAAAgFWFcK2DhGsAb2706NHxmc98JsaNG5f3U/v5z38eI0aMKM4u6rzzzos///nPefy+970vB22lUinPl5cUrj1/36hi1jaD1u8bA9fx9z0AAAAArKm0hQRghRs4cGBssskmeZxaPt52222xpP/fjsmTJ8cDDzxQzJoq15Z3sAYAAAAA0BHCNQBWuM6dO8d73vOeqKpq+p+dK6+8Mh5//PE8brZgwYK48MIL48UXX8zz9ddfP7bbbrs8BgAAAABYWWgL2UHaQgJUZtasWfHlL3857rnnnjyvrq7O4dnw4cOjvr4+/ve//8XIkSPzuRTCnXHGGXHQQQfl+fKmLSQAAAAA0F7CtQ4SrgFUbvz48XHaaafFE088Uay8UQrWjj322PjUpz4VNTU1xeryJVwDAAAAANpLW0gA3jKDBg2KX/ziF3HiiSdGz549i9UmKVTbaqutcmvI4447boUFawAAAAAAHaFyrYNUrgG0T/qfn6lTp+a91pLa2tp8vBVUrgEAAAAA7aVyDYC3RalUij59+sSAAQPy8VYFawAAAAAAHSFcAwAAAAAAgAoJ1wAAAAAAAKBCwjUAAAAAAACokHANAAAAAAAAKlRqLCvGtENdXV0xiujbt28xAmCFePbqiHkzikkbDdwiYsg2eThvzoKYPHpqHrdVdaeqGLiOv+8BAAAAYE0lXOsg4RrAWyiFa7d8q5i00aGXtoRrAAAAAADtpS0kAAAAAAAAVEi4BgAAAAAAABUSrgEAAAAAAECFhGsAAAAAAABQIeEaAAAAAAAAVEi4BgAAAAAAABUSrgEAAAAAAECFhGsAAAAAAABQIeEaAAAAAAAAVEi4BgAAAAAAABUSrgEAAAAAAECFhGsAAAAAAABQIeEasFw9/fTTsc8++8QOO+wQhx56aEycOLE4s2RnnHFGvjYdv//974tVAAAAAABYOQnXAAAAAAAAoELCNYB2qquri1tvvTUmTJgQjY2NxSoAAAAAAKsz4RpAO73yyitx+umnx3vf+9645557ilUAAAAAAFZnpUblFh2SKlea9e3btxjBmivtufa5z30upk2bFsOGDYtLLrkkBgwYUJx9o7Tn2r///e88Pvnkk+Poo4/O4+TZZ5+Nf/zjH3m8xRZbxPvf//48bu2f//xnPPnkk3n8wQ9+MDbddNM8Tu6+++5cWZbsvffeseuuu+Zr//SnP8UTTzyR17fccsv46Ec/mp+/VCrltcWlEO2Pf/xjPPDAA1FfXx+9evWK/fffP5555pm48cYbY5NNNomf/exn0a9fv+KOiIaGhnj88cfjmmuuiUcffTTmzp0bXbp0iZ133jk+9KEPxbrrrltcudDi73eXXXbJa3fddVd+3c033zy22Wab+Pvf/x4LFiyInj175u+rd+/e+Z7W0vXpuhdffDF/rhQAbr311sXZVdizV0fc8q1i0kaHXhoxZJtiAgAAAADQPirXgJXWuHHj4oorrsjHI488UqwuKq03X5Oub+2FF15oOff888/ngOzTn/503HDDDTF69Oh8pHFau+qqq4q7Fkr/vweXX355HH744TnkGzVqVL4nBYgXXHBBDtZGjBgRP/jBDxYJ1tJ16TnTkV77pZdeyvelxxTsfexjH8uh2+Jav98U3J1zzjnxxS9+Mf72t7/ltdtvvz369OmTz6X5ZZddFvfdd19x96LGjh0bv//97/N1qapuWQEnAAAAAACVE64Ba4Rrr702LrroojweMmRIPqqrq/M8VXn99re/jTFjxuR5s/vvvz9+8YtftFSrHX/88XHWWWflKrDme9PztA6uUrB2wgkn5Kq1pLa2NleMHXDAATFo0KC8lqrYfvWrX73h9VpLod91111XzJpsvPHGOcQ78MAD8zxVx6XALb2/xaXQrTls3GOPPWLo0KF5DAAAAABAxwjXgBXmtddey0HQDjvssNSjuSXkipbaI6bWj//5z3/ya6bjN7/5TUvFWar0GjlyZB4nqWotBVwpCKuqqopTTjkljjvuuBySpVaWRx55ZL4utXF88MEH8zgZPnx47LvvvrkF5EknnZRfL71OCuWuvvrq2GefffJ1i7/e4tL7TVVqqXrt+uuvzxVoqZ1ksuOOO7YEeqlyLz1Xa/PmzYs77rgjjzt16pRbTC6t5SUAAAAAAG0jXAPWCKnC7Ktf/WquQGuWWjqmfc2SVAWW2jI2mz17drz++ut53KNHj1hvvfXyOElBVdr7LEn3tQ7J0rnUDjJVpqX90FLI1ixVuzWHYum+tG/a0nTv3j2HeCmMS/ess846LZVvaZyCySRVp6U92Vp79dVXW/ahS/u0pc/5dmt8+bpoeOrSdh2LGLBZxIf/0r6jU7fiSQAAAAAA2k+4BqwwKSA66KCD4rDDDlvqkYKit0JqqTh48OBi1iQFYa1Ds9bSuVSxlqQqtsXNnDmzGMUbQrLevXvHlltu2VItls6n/dbOO++8+Oc//5nX3kwKxDbddNNitqgU0qXvNVWlJXfeeWeusGv20EMPxeTJk/M4Va2lcHClMGtC2485dcXNhf6bdOwAAAAAAOgg4RqwwvTt2zdOPvnk+NrXvrbUI+1H9lZIgVfnzp2L2UI1NTXFaFHdunVrqU6bPn16bsvYHGBNmzYtrrzyyjxOAddmm22Wx6298sor8f3vfz+HYKk67vDDD4+//OUvi4Rgy5KCwLRf29Kk8K05GHziiSdyeJfMmjUrbrnlljxOLS933333PAYAAAAAYPkQrgEsxcc+9rHYeeed8/iqq66K/fffPw4++OD8+PDDD+f11J5x2223zeMkVbldfvnlOUz7xz/+EePHj8+VZikIS3u2pVaRy0Paj+1d73pXHqewr3mPtdTa8qmnnsrj7bbbbqmVeQAAAAAAtI9wDVhlpSAr7V22oqR2iqn6bPvtt8/zVBU2duzYqK+vz4HZRz7ykfjBD36wSIXZ448/HhdddFG+JlWOXXDBBXHPPffE3//+9zj++ONzKLa87Lvvvvk1knvvvTdmzJiRH1PLytTSMu3Xlt4nAAAAAADLj3ANWCVMnTo15s2bV8yapHaNo0aNKmbL37PPPhuf+tSn4pFHHokjjjgizj777Hz86le/yq0XTz311LyvXGuPPvpoy35shx56aOy2224te7clKQBbXoYNG9bSkvLpp5/OId7dd9+d5+uvv36uqgMAAAAAYPkSrgErra5du+Y9zZIxY8a8IZi68847W1ogrgh/+9vfYuTIkTFw4MD46Ec/mivF0pEq2Za1H1qz9P5bSwHhAw88UMwiFixYUIzap0uXLrlNZQrv5s+fH9/+9rdbvo/0HtOedwAAAAAALF/CNWCllSqzUrCVvPjii/F///d/cd1118WNN94Y3/rWt3KYtCLbQjYbN25c3i/tjDPOiLPOOqvlSOHbyy+/vMh7aH6/yRVXXJEryVLF3auvvhpnnnlmbhvZ7Nprr83n586dW6y0XapOS1VqyZw5c/J7SdV0Bx54YJRKpbzeEfMe/V+7j8WVeq3T9qPHWsXdAAAAAAArh1Jj2rSIdqurqytGoUoEylJ7ws997nMxbdq0HI5dcsklMWDAgOLsG6XA6t///ncen3zyyXH00UfncZL+evrxj38cf/zjH4uVRe28886x+eabx6WXXprnP/rRj+Kd73xnHie///3v855nSarwSq+1uNbXLP76qS3kaaedFqNHjy5Wliy9j+985zvRv3//GD9+fJx00kk5DFxcqjQ78sgj48orr4zJkyfntbQH2y9+8YvYZJNNKnq/i0vf0bnnnht//etfi5WIrbfeOj9P2jOuoyYeeXTUlz9TW3VOlXPf/14xAwAAAABYfahcA1ZaqfLqs5/9bN7vrLq6ulgt/8VVVRX77LNPDrR69epVrC5fqQJswoQJOTB7M/fdd1/87ne/y0HXoEGDcti11VZbFWeb9OzZM77+9a/H8ccfn6vgWreV7Eh7yPQdpSq11nu/pfnyCNYAAAAAAHgjlWsdpHIN3hqptWKqhktSBVgKq1aU+vr6HJD9/e9/z6FVakG5995751Av/ZWZ9k6bPXt2bgv5hz/8IQdxG2+8cfzyl7/MlWjNpk+fnls+pvtSCFhTU1OcWb7S+/n85z+fqwZTlWB6H82tIjtK5RoAAAAAwKJUrgGrhM6dO+fgKB0rMlhLxo4dG3fccUcejxgxInbZZZcckCWpUiwFaEOHDo3999+/pUIshW2LV6Cl95neb79+/VZYsJY8+eST8cILL+Rx2oNtnXXWyWMAAAAAAJY/4RrAMqR915577rlitlCqYHvggQdixowZeZ4qxVZUi8rW0uvOmjUrPyavvPJKnH/++TF//vxc0XfIIYcs0kITAAAAAIDlS1vIDtIWElYvqf1k+nN93nnnxS233JLXUli1+eabxyabbJLnqW3k//73vxg5cmSep1Dr+9//frzzne/M8xVp4sSJceyxx8Zrr71WrCx02GGHxWmnnbZcq+S0hQQAAAAAWJRwrYOEa7B6eOmll+Lss8+ORx99NIdnlaqtrY0vf/nLcdBBB+WWkSvaU089FZ/73Ofyfm6t7b777vG9732vpU3l8iJcAwAAAABYlHCtg4RrsGpLfwX+7W9/i5/85Ccxd+7cYvWNUojWu3fvvPdaav+YKtl22mmn2G233fK5t0raD+5Pf/pTPPzwwzFt2rT8Pg4++OD8Ppr3hVuehGsAAAAAAIsSrnWQcA1Wbbfffnt89atfbQnWBg0alEOzzp07x6uvvppDrOZKtq222irvb5ZCtpVa+a/1xtdejcaJE4uFNqjtHlWbblpMImZfe10xartuB72nGAEAAAAArD6Eax0kXINV14wZM+Lkk0+Oxx57LM9Ta8evfOUri1SipXOnnHJKTJ48Oc/T9UcffXQer6wa58+P+n9dXczapmqLLRcJ1wAAAAAAWNTy7yEGsIpI+5c9/fTTeTxkyJA47rjj3tDiceutt45jjz22mEXcfPPNuR3jyqzU0FCMAAAAAABY3oRrwBrrwQcfjPnz5+fxlltuGWuttVYeL27HHXeMAQMG5PGoUaNi9OjRebyyahSuAQAAAACsMMI1YI2U9lFLQVmzESNGRHV1dTFbVP/+/XNlW5Kq1iZMmJDHKy3hGgAAAADACiNcA9ZIc+fOjalTpxaziPXWW68YvVFNTU1069atmEWMHDmyGAEAAAAAsKYRrgG8iRSsDRw4sJgBAAAAALAmE64BAAAAAABAhYRrAG9i9uzZK/8+awAAAAAAvCWEa8AaqUuXLtG7d+9itux91BYsWJADtmbL2p8NAAAAAIDVm3ANWCNVV1fHOuusU8wiXnjhhWhsbCxmi5o0aVKMHTs2j3v16mX/NQAAAACANZhwDVhj7bDDDtGpU6c8fvjhh+O1117L48U98MADMXHixDxOgdzaa6+dxwAAAAAArHlKjUsr1aAidXV1xSiib9++xQhYFcyYMSNOPvnkeOyxx/L80EMPjVNPPTW3jGz25JNPxpe+9KWYPHlynqfrjz766Dxe3m5/9da4Z8zdxaxtPrjJh2OjvhvncePMmeUPNz2P26M0eEgxAgAAAABgccK1DhKuwart9ttvj69+9asxd+7cPB80aFDstNNO0blz5xyo3XPPPS3nttpqqzj//PMX2atteUrh2oWP/ryYtc139jirJVwDAAAAAGDF0RYSWKPtueee8YUvfKGlWm38+PHx73//O6644oq49dZbW4K11A7ym9/85goL1gAAAAAAWDUI14A1WqlUisMPPzwuvvji2GabbaKqatG/Fnv27Bmf+MQn4rLLLov111+/WAUAAAAAYE2lLWQHaQsJq5d58+bFtGnT8jgFbX369HlD4LaiaAsJAAAAALDyU7kG0Eraa23AgAH56Nev31sWrAEAAAAAsGrwr8YAAAAAAABQIeEaAAAAAAAAVEi4BgAAAAAAABUSrgEAAAAAAECFhGsAAAAAAABQIeEaAAAAAAAAVKjUWFaMaYe6urpiFNG3b99iBKxJnplyZ8yYP7mYtc0OA99XjCJenTaqGLXP8F7rFCMAAAAAAFYU4VoHCdeAFK6Nm/ViMatcKarinWsdVcwAAAAAAFgVaAsJAAAAAAAAFRKuAQAAAAAAQIWEawAAAAAAAFAh4RoAAAAAAABUSLgGAAAAAAAAFRKuAQAAAAAAQIWEawAAAAAAAFAh4RoAAAAAAABUSLgGAAAAAAAAFSo1lhVj2qGurq4YRfTt27cYAWuSZ6bcGeNmvZjHnau6xvq9tou+XdaKqlJ1Xlua+sYF0bW6RzEDAAAAAGBVoHINYDkqlaqjpqprdK6qjU7lx2UdXcrXAAAAAACwahGuAQAAAAAAQIWEawAAAAAAAFAh4RqwSvj9738fO+ywQz7SeFWyKr93AAAAAAAWJVyDVs4444yWEGT33XeP++67rzjzRk8//XTss88++dpDDz00Jk6cWJxZ+c2aNStOOOGEls9ayZG+G5asutQphvUYEZv22T026bNr9OjUL0qlUnEWAAAAAIDViXANlmLu3Llx4YUXxtSpU4sVWLL1e74jNuy1Ywyp3Sj6dVk7ulZ3L84AAAAAALC6Ea7BMjz++ONx5ZVXRmNjY7GyeqipqYnddtstDjvssKUeBx10UHTvLiSqRE1V52IEAAAAAMDqTrgGb+KPf/xjPPfcc8Vs9dC5c+c46qij4mtf+9pSjz322CPmzZuXr+/Xr198+MMfzmMAAAAAAFiTCdfgTUyePDkuuuii3CayPRoaGuJ///tffPvb384VYe9///tzsPWrX/3qDfu0Pfvss3HWWWfl4+677y5WF0przeefeuqpYnWhG2+8MZ8755xz4pVXXilW2+7JJ5+M8847L+bPnx9VVVVx5JFHxogRI4qzC7Xls7XWfF96r4cffni+Lz3+8Ic/7ND7bs/ztv5O0zhVKT7xxBPx9a9/Pd+fjjROa8uqYEyf9xe/+EXL637uc5+Lm2++Ob+npSmV/BUMAAAAALCqqT6jrBjTDnPmzClGEd26dStGrKpuvfXWliq1L37xizFy5MiYMWNGvPrqq7HuuuvGxhtvnM8lKUy59tprc+jWq1eveN/73he1tbXF2SaTJk2K0047LYcu6XnT/m3Tp0/P9z788MNxxRVXRI8ePXJwVSqVcpD3s5/9LB555JE833vvvfNjUl9fH7/85S/jmmuuiaeffjo6deqUWzs2n09VZun8DTfcENOmTYsPfOAD7WrrmN7jN7/5zZYwKj3PZz/72aiurs7zZm39bM1GjRoVX/rSl+Liiy/On6Ouri7flx5TgPXPf/4zhgwZEptssklxR5MUmt133315vPPOO8c222yTx83a+7y33HJLXHrppfmejTbaKAeLKUx7/vnn8/3pePHFF+Nf//pXDBgwIDbffPPiziYpcEu/ByeffHLcf//9La87evTo+M9//pN/h7p06RKPPvpovn5J7x0AAAAAgFWHsglYinXWWSeOOeaYXLmVqo9SiJRCtkqlUC6FVM2BUApYUliWKrxS4JSed9asWXH++efnUCZJ4c+wYcPyOIVFKaRplsKsVNnWLAVwKdBqll6vORBbb731ok+fPnncFgsWLIif//znea+5ZMMNN4xjjz0279HWWns+W5I+0wknnNDy/CmM3HrrreOAAw6IQYMG5bUUVqbKtzFjxuR5JZbX86aQLFUpJulnkY7mUDGFm7/97W/fcH8KzVKlYPq8Sfrs6TWb700BWwrvAAAAAABYPQjXYBne85735EqjZOzYsTlcSQFUJVIF2QMPPJDHqdrpyiuvzK0W035mv/vd7+Lzn/98DmJS6JOqolJ407Nnz9hggw3yPa+99lp+zWapAqr1PJ1Pa83SuVQ1lWy11VZ5X7W2Sm0lr7rqqjxO+6ylAK05nGqtPZ8tGT58eOy77745jDvppJNy8PSb3/wmt2S8+uqrY5999snXpc/S+rO9meX1vKlCbYsttsj3//vf/85Hep70XSSL35+qBf/0pz/FzJkz8zwFspdffnkO6dK96bW33377fA4AAAAAgNWDcA2WIVVAHX/88bntY5JCpSXthba4VMV000035Yq31L4xVVW1DqlSm8QDDzww1l577TxP+6elKrS0vuWWW+a1KVOm5ACt2YMPPpj3QNtss81yddvs2bPjscceK85GrlpLlW7p9Zqfoy1SO8RUaZbecwrGPvGJT+SgaXHt/WxJOvfpT386V5AdffTROQxrlqq8UtvFJD13pSFmsryeN1WbffWrX235eSepEm+XXXbJ43T/Cy+8kMdJav3Y/DNILThPP/30RVqHDh48OL7xjW/k5wUAAAAAYPUgXIM3kQKmD3/4w3mcKrEuvPDCvDfasowbNy5efvnlPE5VT+lIe5G1PtJzNVdEpT3S0lqSwrNUwZY888wz+TEFWs0tD9MeaNttt10ep9aQqXoqSeFYkp6zOdiqVPo83/ve91o+16GHHhof+chH8nhxHflsSe/evXP4lwKxJIVdL730Uq58S/uitdfyeN4UjKVArLX0fKnN5pJMmDChJThca621Yv3118/j1lIQ2vzzAgAAAABg1SdcgzeRwpUUNG2yySZ5/txzz8Vf/vKXaGxszPMlmTNnTkvolcKoI488MldztT5SSPa///0vX5MqoppbJ6aQprnS6fnnn8/P0xxopYqqVEm144475vNPP/10rp5K4VtqaZikIKg52KpECqFSYJg+V5I+52c/+9k37LPWrCOfrVmqsvv+978fBx10UK4KO/zww/N3mkK5jujo86aAbkntNJf1XaRqwiTtcbeke5cVzgEAAAAAsOoRrkEFUliVAqfmdoN/+9vf4oknnsjj5aFHjx452ElS1dq6666bxykwS+0hUwVbqv5KVVVDhw7N1W2p1WFaS+fSXmujRo3K96RKu27duuVxJVJVV+t91r7+9a+3KZx7M60/Wwok055kKfT6xz/+EePHj89tG1P4dNxxx+WWju2xop53eVlaOAcAAAAAwKpHuAYV2m233WKvvfbK49Tq8IILLogZM2bk+bKktoDXX3993jNtacfVV1+dK9aSFAptvfXWeZxCs1SZ9sADD+T55ptvnoOqFLI1tyBM59LebKmlY9orrS37raVWkmmfslRdlu794he/uMR91pamrZ8ttba86KKLciVbCvDSd3jPPffE3//+97y3Xar+ao8V9bzLS3PwCQAAAADAqk+4BhVK1UfHHntsDBw4MM9TS8AUSi1JCr+aA51Jkybl8GtJUkvB1JZxcan1Y6o+mz17djz00EO5/WOS2kGmNoO1tbWx1VZb5bV07v7778/PlYKl4cOH5/U3k6q7vvOd7yyyz9oBBxyQx8vSkc/26KOPxsyZM/M4vV4KLFOo16ySsHJJVtTzvplUPdi8P14K0FIYurj02mnvNwAAAAAAVg/CNWiDDTbYIO8x1jq4WZJUXZYCsiQFZBdffPEbAp60D9hZZ50VRxxxRDz11FPFapNU6ZWCm+SSSy7J7SHTPLWDbLbDDjtEp06d8rnUEjFJe7X1798/j5clhV7Nz5ukoO5zn/tcRe0LO/rZmnXt2rUYNZk6dWpLhV6ypNCx2bLOdeR526r1/nhp/7m//vWvizx/ald51113tYSjAAAAAACs+qrPKCvGtEOqXmrWln2uWDndeuut8dxzz+Xxu9/97pa9z1pLAdtjjz0Wr7/+erES0atXr3jf+96XK8qSFL4NGjQobr755hw0pdaON910U646SyFMqkb7wQ9+kFsXpj3VUvXY3nvv3RJupdAstVRM1VCpOi6FNKld42GHHZbPNV+T3m8Kj5or6FLF1v7775/Hy/Lss8/Gz372s/zeklSNl6qr7rjjjqUeI0eOzG0p0+u297ONGTMmbrnllvyar776at4TLVXCpfVzzjknV+A1S5Vvab+29Frp3hQEpveRpNdJ59J76du3b4ee93//+1/cd999+dwmm2yS3+viWl+z8847xzbbbJPHKcibNWtWy7nUZjPtxZe+i5dffjkuu+yyHD62Dtxa3w8AAAAAwKpH5Rq0UQpmPvvZz0b37t2LlSVLYdiXvvSl6NKlS56n9onnnntufPnLX46zzz67JcRLYd0pp5zScl3SuXPnlraPzdK8ObxLUoXapptuWsyabL/99sWobVIodMUVVyzzuPvuu1tCovZ+tvT+NtxwwzweO3ZsnHzyyTkQ/MAHPpDDuE9/+tO5tWWSgsNvfvOb8corr+R5CqSaz6XQ8Vvf+lZLxV5HnrejUuCZArMkhZzp9U4//fT42te+Ftdcc00OaFPwCgAAAADA6kG4Bu2w7bbbxvvf//5itmSpeumQQw7J1Usp/Kmuri7ONEnztMfZT3/60xg6dGixutCWW265SJVaagPZWrp/p512KmZN1XOpYuut0N7PlqrFUgi3eHCY9i37+te/Hscff3wcd9xxi4SIzYFeCuq+8IUvLHIutaOsr6/v0PN2VApbU3VcaoHZOiBN1Yv77LNP/PKXv3zLfi4AAAAAAKx4pcbUb452q6urK0aR29PB0sybNy+mTZtWzJrCsFShtjpoz2ebPn16biuZQqh0fSX7vSUpFEuvlarElvQ67X3e5aH195CCvNZhHgAAAAAAqwfhWgcJ1wAAAAAAANYc2kICbZaqxiZPnhwTJ07Mj8urxSIAAAAAAKzsVK51kMo11iQzZ86MX/3qV3HVVVfFrFmzitWmPdZ22WWXvCda2httVTFnfn35aIi2/iXYqboUPbq8de0mAQAAAABYeQjXOki4xpri2WefjdNOOy1Gjx5drLxRly5d4itf+UocfPDBUSqVitWV1yd+e39MmD63mFVu+3X7xpnv37KYAQAAAACwJtEWEnhT48ePj29+85stwVoK0fbee+847LDD4oADDoiePXvm9blz58Z5550Xjz76aJ4DAAAAAMDqRuVaB6lcY01w0UUX5SNZZ5114oc//GGsv/76eZ5MmzYtV6zdf//9eb7jjjvma2pra/N8eZo9vz4efG1KMWubtXt1jQ36dy9mEaMmL2xt2Vbr9Fv+nw0AAAAAgJWfcK2DhGus7qZMmRInnHBCPP/881FVVRVnnHFGHHTQQcXZhV588cV83eTJk6Nbt27x05/+NLbddtvi7PKTwrVbX5xYzNpm04E9FgnXAAAAAACgrbSFBJZp5MiR8dprr+XxwIEDY5tttsnjxQ0fPjy22GKLPJ49e3Y89thjeQwAAAAAAKsT4RqwTK+//noOy5LUEnJpFZqdO3eOjTfeuJhFvPTSS8UIAAAAAABWH8I1YJkmTJhQjCIGDx68zH3UevToUYwixo0bF7NmtX9PMwAAAAAAWBkJ14DlZtiwYcUIAAAAAABWT8I1AAAAAAAAqJBwDVhuXnvttWIEAAAAAACrJ+EasEwDBw4sRm++j9qMGTOK0ZvvzwYAAAAAAKui5RKuTZs2La699to444wz4pOf/GQ+vvKVr+S1dG55WrBgQTzwwANx7rnnxqc//en8Wp/5zGfi/PPPz+vpPLD8DB06NLp165bHo0ePXiRAa23evHnx/PPPF7OIDTbYoBgBAAAAAMDqo9RYVozbLP1j+pVXXhl//etfY86cOcXqoqqqquLAAw+MT33qUy3/QN8e6W3eeuut8atf/SqmT59erL5Rnz594vOf/3zssssuUSqVitUVp66urhhF9O3btxjB6mPKlClxwgkn5OAs/XlOIfpBBx1UnF3oxRdfzNdNnjw5/1n/6U9/Gttuu21xdvmZPb8+bn1xYjFrm00H9ogN+ncvZgAAAAAA0HbVZ6R/KW+HmTNnxnnnnRfXXHNNrhZLQdaAAQPyP6anipUUvKX2cQ0NDfkf5Z9++unYddddo3PnzsUzVC4FaynAu/DCC2Pu3Ll5Lb3WjjvuGBtvvHEMGTIkBwDpNVPId88990T//v1jww03zNeuSK1DxY6Eh7Cy6tq1aw7MHnroofxn8ZVXXsnhde/evYsrmtpBnnnmmfHCCy/k+Tve8Y742Mc+Fp06dcrz5WlBQ2OMrFt6a8plGdC9c/StbfvfQQAAAAAA0KxdlWvpll/+8pc5WEt22GGH+OxnP5vbx7U2adKkuOiii+Kuu+7K9+y3335x0kknRU1NTXFFZdL9qQ3k/Pnz8/5PJ598cv7H+9aVaen5H3nkkbjgggty4JUyw80226w4u+KoXGNNMH78+PxnN1WnJV26dMlheb9+/XKoff/99+drku7du+c2renP6Iqgcg0AAAAAgLdTu8K1xx57LL7zne/E7NmzY6uttorTTz89/4P6kqSqttQe7qabbsqh2imnnBJ77rlncfbNpfDqa1/7WowaNSpXqH3ve9/Lj0szduzYeOmll2K33XYrVlYs4RprimeffTZOO+20vO/a0qTQLe23ePDBB6+wtqzCNQAAAAAA3k5tDtdSWJaqyO68884cqH33u9+NTTbZpDi7ZOkf49M/uKfWcqlt5Le+9a2K20PefPPN8aMf/SiPv/CFL8T++++fxysL4RprktR+NVWj/vOf/2xp0ZpUV1fnVpHpz2hqC7skYx/6b4y+74Zi1jabHHJc9By+cR6ncG1efbu3iozeXdtWOQsAAAAAAK21OVx7/fXX46tf/WpMmDAhdt5551xV9mZtHtNL/OxnP4vrr7++4kAuSUHeWWedFffdd18MHjw4zjnnnLzX2spEuMaaKO2lmIK29Jj06tXrTQPzFK498/efFbO22f7Ec1rCNQAAAAAAeDtVFY8VGzNmTEugNGLEiIr2T0vt4VLFWjJz5szc4rES06ZNi1deeSWP11tvvejTp08eA2+vqqqqvN9aCrvTUWklKgAAAAAArOraHK69/PLLuaIsBWbDhw8vVt9cqjxr3pct7d1UidRGcsaMGXm84YYbtgR5KZz7yU9+Ep/+9Kfjwx/+cBx11FHxpS99Kf773//GvHnz8jUAAAAAAACwvLU5XBs3blx+rK2tbVMbxHRtuidJ1WuVmDp1asyZMyePU9u5FOr94Q9/iM997nNx4403xtixY2PWrFk5hHvuuefy3mwnnnhivPDCC/keAAAAAAAAWJ7aHK5VGowtLrWRS9VuycSJE2P27Nl5vCxz587NgVqSWtD94x//iD//+c/RtWvX2HvvvXO12imnnBLvfe97o2fPnvm6tCfc2Wef3RICVqK+vr7dBwAAAAAAAGuOUmNZMa7IOeecE7fddlsMHDgwzj333PxYiUmTJuUgbPz48bHFFlvEt7/97ejWrVtxdsnuvvvu+N73vpfH73vf++KWW27Je7eddNJJLS0mm6Ww7oILLojbb789z/fYY4849dRTK9oTLrWenD9/fjEDVoRJj90er1zz62LWNpt94ltRu9YGxQwAAAAAAFaMSro2trlyrVna2yy1ZHyrXH311TFs2LAlBmtJCupOOOGE2GijjfL88ccfj9GjR+cxAAAAAAAALA/tDtdSu8bUtrE9evToEZ06dSpmlTvwwAOXGKw1S/uyvetd78rjtF/b888/n8eVqK6ubtcBAAAAAADAmqPNbSHTnmeXXXZZ1NbWxplnnhmbbbZZcWbZXnjhhfj617+eWzDutddecdpppxVnlu6ZZ56J008/PVfIpVDtu9/9bmyyySbF2SV76KGH4jvf+U4O/4466qg44ogjijMrRl1dXTGqrFQQ1lRjH/pvPPP3nxWzttn+xHOi5/CNixkAAAAAALx92ly5NmDAgPyYAq8JEybkcSVSJdmcOXPyeJ111smPbyZVonXt2rWYVaZnz57RpUuXPG5vZR0AAAAAAAAsSZvDtRSMNbdmfOyxx/JjJVKLxlRNVlNTExtvXFkFSgrK2loN1tDQEM3FeM0hGwAAAAAAACwPbQ7X1l577XwkKVybPHlyHi/LvHnz4vHHH8/j/v37x7rrrpvHbyaFa5tuumkepyq0KVOm5PGyvPbaa7mqLlnW/mwAAAAAAADQVm0O11JglfZMS0aPHh133XVXHi9LuuaJJ57I4z333DMHbJXae++9o1u3brnq7c4778yPS5PO3XvvvXmc3mdzMAcAAAAAAADLQ5vDtSSFa6k9ZGq/ePnll8dDDz1UnHmjJ598Mi655JIcfA0ZMiTe8573RKlUKs42SSHd7bffHi+88EJLS8dmKSDbdttt8zhdc8cdd7zhmiStpXMPPvhgnm+22Wax3nrr5TEAAAAAAAAsD9VnlBXjiqVKso022ijuueeemD59etx2223x6quv5v3RqqurY/bs2TFu3Lj43e9+F7/5zW9ym8ZOnTrFCSecEFtssUXxLE1ef/31+NrXvhY33nhj3HDDDTF06NBYf/31i7MRVVVVOWB74IEHYurUqbkyLb1WCup69OiRQ7UxY8bEpZdemoO++vr63E7ypJNOisGDBxfPsuLMmTOnGDV9L8CSzXj95Zj41P3FrG3W2nH/6NK78opXAAAAAABYUUqNSyoDq9DDDz8cP/zhD990L7SuXbvG8ccfH/vvv/8bqtZSZdu3vvWtHMglRx11VBxxxBF53Fqqavvud78bEyZMKFaWLLWD/NKXvhS77rprsbJi1dXVFaPI4SKwZGMf+m888/efFbO22f7Ec6Ln8I2LGQAAAAAAvH3a1Ray2XbbbRcXXXRRHHrooVFbW1usLpSq1fbZZ5+48MIL44ADDnhDsJak1o2pCi7p06dP7LDDDnm8uHTNz3/+82W+1m677ZaveauCNQAAAAAAANYsHapca62hoSG3bXzllVfyfN11143evXvnto5vJr2FGTNm5LaKNTU1xerStX6t+fPn5zaSKZir5N7lTeUaVEblGgAAAAAAq4PlFq6tqYRrUBnhGgAAAAAAq4MOtYUEAAAAAACANYlwDQAAAAAAACokXAMAAAAAAIAKCdcAAAAAAACgQsI1AAAAAAAAqJBwDQAAAAAAACokXAMAAAAAAIAKCdcAAAAAAACgQsI1AAAAAAAAqFCpsawY0w51dXXFKKJv377FCFYnDxeP7bFd8Rgx9qH/RmNDQzFrmx5D1ouewzcuZgAAAAAA8PYRrnWQcI3V3wPlY1TTsE2qy8ehTUMAAAAAAFhNaAsJAAAAAAAAFRKuAQAAAAAAQIWEawAAAAAAAFAh4RoAAAAAAABUSLgGAAAAAAAAFRKuAQAAAAAAQIWEawAAAAAAAFAh4RoAAAAAAABUSLgGAAAAAAAAFRKuAQAAAAAAQIWEawAAAAAAAFAh4RoAAAAAAABUSLgGAAAAAAAAFRKuAQAAAAAAQIWEawAAAAAAAFAh4RoAAAAAAABUSLgGAAAAAAAAFRKuAQAAAAAAQIWEawAAAAAAAFAh4RoAAAAAAABUqNRYVoxph7q6umIU0bdv32IEb7+f/d91MXPqnGJWufW2GBQf+dLuxSzpyF8RpeIRAAAAAABWDyrXYDXW0NDY5uONUkDW3gMAAAAAAFYvwjUAAAAAAACokHANAAAAAAAAKiRcAwAAAAAAgAoJ1wAAAAAAAKBCwjUAAAAAAACokHANAAAAAAAAKiRcAwAAAAAAgAoJ1wAAAAAAAKBCwjUAAAAAAACokHANAAAAAAAAKiRcAwAAAAAAgAoJ1wAAAAAAAKBCwjUAAAAAAACokHANAAAAAAAAKiRcAwAAAAAAgAoJ1wAAAAAAAKBCwjUAAAAAAACokHANAAAAAAAAKiRcAwAAAAAAgAoJ1wAAAAAAAKBCwjUAAAAAAACokHANAAAAAAAAKiRcAwAAAAAAgAoJ1wAAAAAAAKBCwjUAAAAAAACokHANAAAAAAAAKiRcAwAAAAAAgAoJ1wAAAAAAAKBCwjUAAAAAAACokHANAAAAAAAAKiRcAwAAAAAAgAoJ1wAAAAAAAKBCwjUAAAAAAACoUKmxrBjTDnV1dcUoom/fvsUI2mfenAUxd+a8YtZ2PfvXFqOIK352bzFqu8M+v0sxAgAAAAAAWhOudZBwjeUphWvP3zeqmLXN4A36xYDhfYoZAAAAAACwImgLCQAAAAAAABUSrgEAAAAAAECFhGsAAAAAAABQIeEaAAAAAAAAVEi4BgAAAAAAABUSrgEAAAAAAECFSo1lxZh2qKurK0YRffv2LUbQPvPmLIjn7xtVzJausfzfgrkNUb+gIRobGvJaVXVVVNe8MS8vVZWi/7DesdYmA6JUKhWrAAAAAABAewjXOki4tmaaP2dBjHpqXMyYPLtYWbrq6qoYtH7fGLTeG38/Fsyrj5lTZkfnbp2iW88ubQrX5s+pj/p5DXm8LClPGzC8T6yz1ZCoqhKuAQAAAABARwjXOki4tmaaN3t+vPjw6IrCtRRoDVq/X3Tv3TVmTp0dc2bMy/enIG3B/PpcTTZ0o/6x9qYDhWsAAAAAALCSs+carGCNDRFjX5yUw7ixL06OKeNmxKxpc3PV2pvkYgAAAAAAwEpGuAYr2JtVli0vv//HJbHT+0bkI40BAAAAAIDlT7gGy8kZ53+13eHW7OlzY8zzE2Pcy5Nj/twF0djQmFtGpvaRc9MxKz0uyNVu9Qsao63NXGdNmxOvvzApv0Y6Xi8fda9Pj4YFDbmSrvW5ZR0TR02J+vL7AgAAAACANZVwDd4iI199Ka7+zz/iuxd8I/5105XFamob2ZiDrtHPTIixL0zKAdrsmWlftrQnW0PUp2NBeqzPe7LNnTUv5s6YHw31DcUzLFsK4mZOmRNjnp2QXyMdr5WPV58eH1PGzyiPx8dr5XHzuWUdk0ZPK7+uXpYAAAAAAKy5hGvwFrn9/pvjuz89Pa6+6YqomzqpWH2jXJX2JvlVY/mi+vqGDrWcnD9nfkweMy3mzZpfrCxbVXUpevavjU5da4oVAAAAAABY8wjXYBVVKv/XEakCLVXMpaq4SnTu2il6DagtZgAAAAAAsGYSrsEKllpBnvXzb8VNd91QrEQep7Xm4+6H7ijONGloqI/Hnnkkvv/zM+LDJ7w3DvnUPvnxhxefFa+Mfrm4qjLp+nMuPDO/zk8v/WFMnT6lOLOo+vr6+Mu//pCv+8EvzojHn3m0OFNWiqjt0zVqe3UtFgAAAAAAYM0kXIMV7OEnH4yrbvhbPPPCk8VK5HFaaz5eGPlscSZi1OiR8alTPxrHnvbxuPKGv+ZwbNzEsfkxhV8fOfGQuPbmfxZXv7n+fQe0vN5lV/w67nv07uLMosZOGBOX/v2ifN0dD9yW72tWU1MdvQZ0j6oaf2UAAAAAALBm8y/lsIL16dknBg8YEt26ditWIo/TWvPRo7ZnXn91zCtx/NeOjqeefyLPa6prYstNto799jgw+vbul9caGhvi55edH2PGvZbnbyY994HvOqSYRdx+7825Sm1x9z16T0yqm5jHe++ybwwdtHYeJ126d45e/bWEBAAAAAAA4RqsYF/89JfjX7+5OT79kROKlcjjtNZ8HPaej+T1YUPXif33eE9Ularic0d/KW75y/3xm/P+HGed9qO45tJbY69d9s3XTZg0Lka+Vnl7yJ223jV69eydxw89cX+uUmtt3ry5ccf9N+dxqVTKr5Me87yqFD37dYvOtZ3yHAAAAAAA1mTCNViJpEDr00ecEJec+8c4+oPHRpfOC/c4q66qjkH9BxeztEfagmL05oavtW7ssu3ueZyq0+566PY8bvbq66PisacfyeMtNt4qRmy8ZR4nnTpXR6+B3VvCNgAAAAAAWJMJ12Al07tnn9wKsjnMWlC/IF4a9UL88KKz4h/X/jmvtVV1dXW8d99DW57zzgdui7nz5uRxkqrZps+cnsd777pfS5vKpLZ31+jeZ2FLSwAAAAAAWJMJ12Al9Mrol+MHvzgj3n3UHrHbB7aOIz7/vvjrNZfn/dbaa/ONtoj1hm2Qx48++WC8POrFPJ41Z1bcfNeNedyze8/YfYe98jipqq6Knv1ro6ZzdbECAAAAAABrNuEarEQaGxvj8qt+Gx8+4b1xxfV/jbqpk/P6sCHD49gjTowjP3BMnlci7ZXWupFjn159Y789DszjOXPnxB0P3JrHL458Lh5/5tE83nGbXVsCuKRLbafoNaB7MQMAAAAAAIRrsBJ54tn/xS9+f34epyqy87/1q7j3qsfjiotuiM987PM5IKtUY0NjNBbjZvvsdkB+3uSeh+6IGbOmx72P3BXzF8zPa/vsfkBuIZmkDpI9+naLrj275DkAAAAAACBcgxVo8WjrzT3y5IMtQdeHDvpo7Lb9nlFVtbAl48xZM4pR+wwbOjy22HSbPH7y+cfj3ofvyvuvJalibYetds7jpLpTda5aq6pqXf8GAAAAAABrNuEarDBLD6XGTRybW0AuS9eutcWoydTpU+K+R+8uZhEL6hcUozeqb1jy3mxdOneNg/c9NI/T63/jvFPj6ReeyPMdt9kl+vbul8dJt55doke/bsUMAAAAAABIhGvwFllv+IbFKOIf1/45fnjRWXH1f/4RJ33ruLj34Tvz+qD+Q/Jj8rd/Xx73lNfnzZ8Xr74+Ks78ydfjqeebgrDkmv9eFXc/dEfMnTcnz3t075Ufk/S81978zxj56kvFykKpOq15X7WGhvr82KmmUxy418FRSr0gy9J+bT371UanrjV5DgAAAAAANBGuwVtkq023iQ3W2SiPGxob4q/XXB7f/enpcd8jd8W//3tV1NfXx3Zb7tgSfE2smxBfOOMzsccHt40PHn9gbt/4qY98tmXPtNvvvyW+ds7/i1GjX8nzbTZ/R8u50WNfjTPO/2r84arf5nlrqTotVam1tukGm8f66ywM/zp3rYleA7u3hG0AAAAAAEAT4Rq8RVKodc5XL4gRG29ZrCw0oP+gqG+oj0EDBsd5X//ZG65J7Ry/+cWz4jMf/VyccNQXo6Z6YUVZ8x5tKbj7v+O+tsi5GTOn59CutRSYpSq1VK3W7MB3HRI9apuCudTNsnufblHbq0vTHAAAAAAAaFFqfLONn1imurq6YhTRt2/fYsTqbt7s+fHiw6NjxuTZxcqypD9ii1aATZ85vaWdY6/uvaJz5zcGWc3XVJWqolfP3ouEZsuS9mKbNn1qro5b2nOn/dtO/MYx8fzLz+bnvuQHl8d6w5sq5qo7VcWwzQbFoPX8PgMAAAAAwOJUrsEKlirFFu+umNo3Dug7MB9LCr+S5mv69elfcbCWpGvTPct67rR32wsjn8vjXbbdPYavtW4eJ11qO0fPAbXFDAAAAAAAaE24BitYqfxft15dolTV/v3LZs2ZlfdgS0eqaGuLVJw6a/bM/Ji8MvrlOO+i7+V5qoo7ZP/Dorq6Op9L77Fnv9ro2r1zngMAAAAAAIvSFrKDtIVcM82fsyBGPTWuoraQ1dVVMWj9vtGpa02MH1kXM+tmR/2ChnyuqroUnbrURE353LxZ8/PzNkt/NB96/P4chL006oVitUnav+3THzkh3n/AB/N+bM1SlVxjakPZ6k91CuQ+dcoRMXbC68XKQoe++8Nx2mdPb6mM69K9c6y/zdDo2V/lGgAAAAAALIlwrYOEa3RUw4KGGPXkuJj46tSW6rK0b9rPf/fjuPyq3+b50my7xfbx/dN+HP37DmhaKEXU9ugSc2bOj4aGpgAvtYA8/qtHt+zx1mzX7faI7532w+hR2zPPU9XawHX6xPAtBkdVB6rsAAAAAABgdVZ9Rlkxph3mzFkYWHTr1q0YQeWmT54VY1+aHPXz64uViD9d/bu4+E8/L2YRw4YMj7132S8233jLaGhsiEl1E/N6qkYbO2FM7L3rflFV1dTltaG+MRrL1zSrb6iPhvIxZ96c6FTTKXbedrc4+ZhT4tgjTlyk6q17726x9qYDonPXTsUKAAAAAACwOJVrHaRyjY4a/cyEeP3FSdHY0PRHccy41+K4rxwVEyaNy/PjPvq5OObw41taN6Y/sjfdeX2cft6pOWhLrSB/8JXz41277p/Pt0fnbp1i3S0HR58hTVVsAAAAAADAkjWVugBviwXz6mPWtDktwVpy7yN3twRrIzbeMg4/+OMtwVqSwrT99jgwPnjQEXmewrYbbrsm6usXVr7l/pAVqu5UFYPX7ydYAwAAAACACgjX4G00f96CmDdnQTGLHJDd/+jdxSxyC8fePfsUs4VSwLbXLvvmx+TpF56IyVOaWkUmNV2qo7Z314r2TkttIHsNrC1mAAAAAADAsgjX4G1UP69hkb3WZs2eGa+PH1PMIrbcdJti9EZrDx4W/fr0z+O6qZNb9mFLUua29qYD4x3v3iQ2eMdaMXCdPtF7UI+mY2D36FK7cF+1NLbPGgAAAAAAVEa4Bm+j+gX1i7SEnDt/btRNnZTHXbt0jYH9BuVxlhKzVoVoXcrnO9U0hWJz5s6JCZPH53GSnrNhQUNU1VRF/2G9Y71thsYmOw9vOnZZJwau2zeqqquiVFWKrj265NaQAAAAAADAm/Mv6vA2amhojMaF2dqbKrW6trZrbQwZOLSYLSo9Z3rupek1oHt06dYpqqurolvPLi3tJQEAAAAAgGUTrsHyMLuufcfcGanMrHiSZSuVGpdbCNatV5fo0a9bdO5WE916di5WAQAAAACANyNcg+Vh5K0Rv9unzUfVzV+JUuPCPdeWrVT+E7swXJs1Z1aMnfB6MVtUyuCqWl27uHSu9+Ae0XNA9+jczX5rAAAAAABQKeEavI2qG+dEqXphCNalU5fo27t/Hi9xH7X6hVVuc8vn5y+Yn8eL78+W9lJL+60tS98hPWPtTQZEpy41xQoAAAAAAPBmhGvwNqppmBE11Qv3Rqvt1j2GDlqrmEW88MrzxeiNRo97LSZPmZTHfXv3i/59B+RxUl1TVVFoVt2puhgBAAAAAACVEK7B26hTw5To3KWYlFVXV8dO2+5WzCJuu/emmDp9SjFbqLGxsXzuv/kx2XyjLaNfn4XhWueuNfkAAAAAAACWL+EavI2qG2ZFt25NbRyb7fKO3WJg/8F5/NTzT8SVN/w1GhoW3Zftlnv+E/+49s95XCqV4t17vTcHc83zrj26RE0XVWkAAAAAALC8lRqbS19ol7q6umIU0bdv32LEGufpKyNu+04xaZtp+/4hXn6lS8yb3bR/WnL5Vb+Nn/zm3GIWMWzI8Nhuyx2jqro6Ro0eGQ8/8UBxJmLf3d8dZ55ybtRUN1WqpXaQ62w5OPqt1SvPAQAAAACA5UflGrzNevRojJ79ukVpYfFafOSQo+Ljhx5TzCJeG/tqXH3TFXHVDX9bJFjbdovt45TPfL0lWEtqe3ctP19tMQMAAAAAAJYn4Rq8zaqqI/oP7xOdu3UqViKHZScfc0r8+Ju/jPWGbVCsLtS3d78cqv302xdH/74L91pLVWsDhvWOTvZbAwAAAACAFUJbyA7SFpKsA20h47DLIgZtGa+/MClef35i1C9oKE4sNGvOrJg1e2Yed6rpFL169M57q7VWVV2Kwev3i7U3G/iGcwAAAAAAwPKhcg1WEkM27BdDNuofNZ2qi5WFarvWxoC+A/PRu2efN4Rn1TVVMWi9frHWxgMEawAAAAAAsAIJ12AlkUKxFI5ttOOw6D2oR1RVv/kfz6qqUvQaUBsbvGOtGD5iUFTV+CMNAAAAAAArkn+Jh5VMz/61scnOw2Ord22Qw7ae/WrzfmylqlI+OnetiR59u+VKtxF7rR+b7rpu9BnSs7gbAAAAAABYkey51kH2XCNbDnuuAQAAAAAAKz+VawAAAAAAAFAh4RoAAAAAAABUSLgGAAAAAAAAFRKuAQAAAAAAQIWEawAAAAAAAFAh4RoAAAAAAABUSLgGAAAAAAAAFRKuAQAAAAAAQIWEawAAAAAAAFAh4RoAAAAAAABUSLgGAAAAAAAAFRKuAQAAAAAAQIWEawAAAAAAAFAh4RoAAAAAAABUSLgGAAAAAAAAFRKuAQAAAAAAQIWEawAAAAAAAFAh4RoAAAAAAABUSLgGAAAAAAAAFRKuAQAAAAAAQIWEawAAAAAAAFChUmNZMaYd6urqilFE3759ixGrisYxdxejtiuttVsxKnv6yoiZ44pJG62zR8SgLYsJAAAAAACwMhOudZBwbdXW8NI1EZOfKmZtUFUTVdt9qZgAAAAAAABrCm0hAQAAAAAAoELCNQAAAAAAAKiQcA0AAAAAAAAqJFwDAAAAAACACgnXAAAAAAAAoELCNQAAAAAAAKiQcA0AAAAAAAAqJFwDAAAAAACACgnXAAAAAAAAoELCNQAAAAAAAKiQcA0AAAAAAAAqJFwDAAAAAACACgnXAAAAAAAAoELCNQAAAAAAAKiQcA0AAAAAAAAqJFwDAAAAAACACgnXAAAAAAAAoELCNQAAAAAAAKiQcA0AAAAAAAAqVGosK8a0Q11dXTGK6Nu3bzFiVdHw0jURk58qZm1QVRNV232pmLTTgtnROOauaJzwWMSscRGNDRG1g6I0YKsoDds7oqZrceEKMntiNL52WzTWPRcxZ2L5M3WK6L5WlIbuEqXBO5T/dpC9AwAAAADA4oRrHbRKhmv186Jx3IPROPb+plBlwdyIhvnlE6WI6k7lo2tEtwFRGrB1U8jSuUfTfauy8meOWWPLn6V3RJfyUcjh2viHI+ZPL08aitWlayylPy5VUSpVl7+b7SJ6DIvSwG0iOnVvuqBSs8ZFw7N/jpj6crHQWvnn0GvdqNr4gxE9hxdri5k/M2L2hIjaIe0K4RonPRmNz/+j/POfXKy0kj5b+TOVNjq0/H31KhYBAAAAAIBEuNZBq1S4liqlXr01GsfeFzF3SrH4Jmq6RmnIzlFa78DyuFuxuBKrnxuN016JmD4qYubr0Th7YlOANG9GrjYrbXBIlIa9s7i4OVx7qHy+/H1UEK4tUeeeURq6W5SGv6uyoKv83Tc8/YeIKS8UC0vRe4Oo2ujQaJxTfm8zXi1/nnHlcfo85d+58s8yBV9VIz4R0WfD4oYKTXkxGp65fMnBWrNSVdPPfaMPRFR3LhYBAAAAAADhWgetMuHa1Jej4bm/5sCp7UoRvdePqo0/FNFjrWJtJVH+9W18/e6mwHD25KaKrljKr3RVpxUTrjXrtV5UbfbRiNrBxcKSNY6+IxpfvLr8eqlasMmcefWxoL4henTrVKxUoD3hWvk1G5//e/k7u788Wfg9zZg9P2qqq6Jr5+pipSwFq+Wfea5eBAAAAAAAMpsqrQmmv7bUYC1Fq5OmzYnXJ83MRxq/MW4tL0x9qanaacaYYm0l0bggYtqo8vFqxPwZaaFp/e0wbWQ0vnBVU5Xc0qRAbXr5vTaU33fhwhtGRY8Dfxa9D/pFnPDT+2N+fQdDvmWZPysaZ6Tfg6bvqbH8V8BJFz6aXzu9hx9e+Vxez1K70FQF2FBfLAAAAAAAACrXOmilr1ybMzkanvnjG1oQPvtqXXz/Dw/E5f95JhoW+xXoVFMVR797RHz14zvG+kNb77lVypVrpSE75iqwRdTPLb/WlKbHtEdb2ous/4iI6i5N52eNj8a6Z5taEabqstRqMO3r1meTZVfDzZsWjZOeyvc33Vd+3a79mvYaa2won58aMeHR8nM/X9ywDHmftO3zfmZZ+gzTX837j7WuXHvoufGx98l/i1lzFwZgi+vetVPste2wOPuze8SIdcvvp1lVTcSArcqfa6NioZX03cyaWLxe+X2XzZhTH+/60hXx8DNNoeXQ/j3i/l99NNbqX5vny1RTG6W1d4/o0qc8Kf9sOpXnvdaPxmkjm0LQ4jWiS/n3svuQKKX92xbMiYYnfxOR2mWWjambF9t9+rKYUNcUCO44Yu246bz3L6yg67F2+ee9U9PnatZYHzF3WvnnMb38suX19HPsu3H5NdYuz8vvAwAAAAAAVmPCtQ5aqcO1+nnR+OJV0fj6vU1BVNn8BQ1xzp8ejG/+5p48X5YUsl186n5x5P6bty8z6dQjSt2HRmMKeWZNKC8s5VetS58oDXpHlIbtXR73zu+1cfzDuX1iqrrLYU4bPP3K5Ljnydfj7idejz22Wis++Z4RxZnFpICv1wYRs8e3OVxrVlX+Yv5yxkFx2DuXEKZVIP3pO/mCW+MXV/0vz/faZu24+vsLw63UKvKux8fE/c+MiydenhinfGT72GqDAfncGzQHnq3aTS6qFKXaAeWvc17E3KbgbXb5Mx52+r/jxgdeyfNPHbRF/PL/7ZNbRLZZ1/5RGrpTlNbeq7K95wAAAAAAYBUkXOuglTlca5z8dDSmqrV505vm5Z/0eX95KL7yqzvzPEkB2nt2Xi8G9W2qlHph9JS4/dHRLdVsnWuq48YffiD23HrtPF+huvSO0lq751aE6b03B4JtlcLDr150Vx5//zO7x2kfXcqeYRWEa316dImzj98j+vYsKvDKHnhmXFx6/VMxYcrsPF97QI+47YIPL1blV7mZc+bHb659MgefR7978xjQu1txJvJeaO/76j/jtv+NjtouNXFr+XW232RQcbZ9SqVS+Xdh4R/7iVNnx4X/fDzWHtg9Dn/XJrkqr0N6rRNVGx8e0XNYsQAAAAAAAKsPe66trtI+WROfiNb7f935+Oj45q8XVqx9dN9NY/w/j48rv3tI/Or/9s3Hf3/0wXj5L59qCdPmLaiPq+96Keob3oIMdu7UaBx5XVPbxHYGa8tbr9rO8d5d148P7rVxy/GD4/eIO392eAzt3z1fM3rijHh21OQ8bo8UZp102Lbx/w7fbpFgbUVZPE9Pr/mNo3eKY96zRceDtWTaqGh44R9NLUABAAAAAGA1o3Ktg1bayrW5U5v21prW1O4vtRc8+qwb4i83P5fnKTz751mHRO/uCyuyWksVbJ8596Y4/RM7x97bDl+kLeTIsdPi/L89ErPnLYiN1+4Tnz9s23hl3LRcfTVlxtwY2LtbXhvSb+G+YZOmzcn7u/35v8/GmEkz89qOmw2OY94zIt6903pRXbXkvpPN9/3r7pfi+dem5LWNh/XJ7QsP3WPD6NZl4V5g6fXve3psPPLc+Fx9lqQqr3e0qvT6QPmeA3der2lSQeXaOoN6xt2/+EhLkNYsfZ8f/c51ccXtTXvZ/fN7h8TBu5Wfq9CW7+j6+0bGlXe+mO/befMh+bOla87+44Mxrm5WXHPPy7m6LP0M3rf7hjGwT1MA161zTXzxw++I9YYsrJhLVXBX3fFi/P225+OR51Mrzoi1yu/9iH03ze0xU1i4uObvLVnk+ylr/d7SufSzuv+Zsfmzpdabya5bDM3vY6fNhiz8PamqjtI6+0dp3XenUrliEQAAAAAAVn3CtQ5aacO1qS9Fw1O/a9lb66XXp8aen/9rjJ08K8+v+t4hcUirMKgtWodPaY+wT793y/jk929saSXZr2fXuP2nH47N1+2XW1H+4T9Px3Hn3pTbHi5JCmf+/K2DYtjAHsVK095wP/n7I/GNX9+9zPv+edb7on+vpv290nu47Man83hpFmkT2YFwbc68+vjQN/8d1903MrfOvPn8D+b306wt31HrNpZHHbB5XPrVA+L1STNjtxP/EqPGN7X0XJLWbSLT0/7t1ufi+PP+G9NmzSuuWFQK4a4799DYZNiiv6etv7fF22i2fm9nHbd7biN66i/vyPPFpcrHYw/espiV9V4/qkZ8smkfPQAAAAAAWE1oC7maakwt+ernFrOIl8dMzVVQSaqW2mL9/nncUU+OnJzDl+bQKNlgrd7l12gKo66844X41A/+0xKQbVg+l9oPfnjvjVuqzlIF1Ik/vjlmz12Q58k3f3NPfPlXd7bcl6qv0j2pOqqqqIRK9/3sikfzOOnfu2sMH9RzkdaGaZzWmo+lVeq11R2PjY7bHn0tj9+3xwaxw6aD83hJ3uw7WpLq6lKsM7hn3s+t+fMmqWqt+bNsuHaf6FzT9Ec4hWOpkq45WEt7xL1v9w1in+2G50AsSdV0Z/z23lx11x6/v+Gp+PrFd+dxChsXDxy/87v74uXXpxWzstmTonHWuGICAAAAAACrB+Ha6mr+zKZ91wovjpmaq5uSYQN7Rt8eTdVeHZXaFaYqq299cpd46c+filf++um45LT9ok+PLjF+yqwc5qRQKeVDP/78XvHsHz6Zz6dKtSd/d3Ru8Zj854FR8egLTW0MkyMP2CzvBbbtRgPj8UuPilf/fmy+555ffiT+88PDoqa66Vf3zsfH5FaIyQ9PfGeM/Mun8v5hzdI4rTUfx79vq+JMZVLl2I7H/ynW+8hvWo4hH7goDjz1ylyVdvi7NomLTtm3JcBakmV9R0szqE9t3HbBh+Op3x8de269Vl5LlWrXnH1oy2d59JKPx1YbDMjnDtx53dhivf45dLvpR4fFhH9+Nu+ll76rx397VEsryQeeHpdbbbbHM6PqYrethsaEq4+P18o/j3Skn0fz53jD3nP15deZM6mYAAAAAADA6kG4trpqmB/RuLBCKe3h1ax715pFwqAUTqWqp9YBUusjnWsOsJbkq0fuGKcfvXOsO7hnbu2YAp8Upt331Nh4cmRTuLL/DuvGcQdvucj2W+n6tL9YMm9Bfdz7VNMeXkkKilLryv/86LAYsW6/YrXJgD7doke3puq0+vqGltBwRUnB2Kvjp7ccE6bMLs5ETJ4+J4dOb/YelvYddUir+1MY9+czDopbf/KheNc7Ft0jr1f3zi2tM1PVWkND+76wVKmWWj+mlpbNdtx0SLyn1R5tj700sRiVpd+/BQt/7wAAAAAAYHUgXFsdtTFtSpePm7xogNT6SOeW9pSpmur9e2y4xKDopodGFaOIbTYckAO+FFS1Plq3FnxqZKuqp7K0h1nrICdVXP391ufjY9+5bpGwcEVL77G5FWPzkdouJjc9OCrvjfbjvz3cru9oeUohZNpXrdmM2fPjhvtfiY+deV0OADsqVRGmqsfW0mdaaovR9IU0Lmz1CQAAAAAAqwPh2uooJR6lmqbHQusWhDPnLGjZyyxJlw3ut2iA1BwevZnUujHth7YkU2c07f+VnPvnh2LYhy55w/HJ799YXBGLvKck7cH2p/8+G7ue8JfotM8FMej9v4qPfPvalmq4dunUI6Jr/6aj28CI6mV/znXK38UDv/roIq0l05HaLv7pm+9p2Q/tW7+5Jx5+fnweL25Z31FHLJ7l1Tc0xrX3vhzvOe2q6Lr/T6P3Qb+Ig758Vdz6SNPecB2VPkfXztXFbKHqqoW/Z2+QA7alpI4AAAAAALAKEq6trjp1iygtDEJSSNQsVYy1bvPYvWunHBS1Do8u/coBxdm3zvpDF1ZdvTJueuz82T/Hkd+9Pu5/Zmzety29zwN2XDd+/7V3dzisKtUOiqoRn4woP7ZHytQOe+dGceieG+Z52n/txgdeyeM309i5R/lP3htDqrZqHWlNnTk3DvnqP8vH1fl9pKAytf7cefMh8evT9o9dRgwprgQAAAAAADpCuLa66tKn/NNt2pcsWXdIr5YWi2MmzYgnX+5A9deyLKVI6fuf2T3qb/nCMo9vfXKXfG3aF+yrF93ZUqH20X03jfH/PD6mXXdiXHfOobHPdsOjprqdv7rzZ0TMmRSNU1+Mxrpni8X2Se8hBX7Nnq209WJV56V+T+11/t8eyS0gkz23Xjte+OMxMec/J8Xdv/hIfGjvjaNLp46HeQAAAAAAgHBttVVKbQ87L6xWS60et9qgaW+s1KXv51f9L7ddXJJ0/s7HxxSzNmpVTrXNRgOKUcQDz4zLodni0mu1rqJLJkyZHfc88XoeD+lXG9/59K7Rv9fCvddmz1sQ8xbUF7N2qp8XMeW5iIb27wmW3nvrz9S7R+di9NZKe6vd9mhT68cU+H332N0WqQJMVWypFSgAAAAAANBxwrXVVedeUeqxVnnQlHb16NYpPv3eLfM4ueael+PsPz64xIDt5odHxcX/fqKYtVFp4a/ULiOGRueapoqpq+54Ma6+66U8bu3uJ8fEsA9eEqddeMcS30t1VVXLczRLwdvYybPyOO0z1phSrqV4dfyMHIItSeP016K0oOl52uOep16P6+4bWcwit2BckVKoOHHK7GK2ZKkV5OJVak+8PDEee3FiHqfvKx0AAAAAAED7CNdWV9WdI/puFlHTpViIeP8eG8Z+O6xTzCLO/P19MexDl8QR3742jv/hf/Ox/XF/jANOuTJ6d++c9xVrs1bh2g6bDo6P7rdpHqc90z78rWviE9+/If5y83P5SK+375f+EdNmzYsf//WRuKuoluvauSYG9a3N49ETZ8R3y+9zXN2smDOvPi678en4bPm+Zg8/Nz5+d/3T8fQrk4uViM3X7VeMIi7852PxhZ/eGr+59sk48NQrF90Xbd60aJyz7PaYKcQ79Zd3tHw/zcc+X/x77Pn5v8aUGXPzdZut0zfeuc2wPF6eUtvJ9Yb2zuMUEn7q7Bvjp1c8Gt+//IE46MtX5e+la+fq6N+7W74mBZRnXHpvvDB6SsydX58/71Hfu6Gl0i+1BP3tdU/GfU+PzXMAAAAAAKBthGursVK/TaPUc3gxa6pe+/Vp++fQq1kKh/526/Nxyb+fyMejL0yIjYf1iXNP2DO6da4prqpcqSaFPE2pXKqiOuu43fMeYM3+cOMz8bEzr8tHer3UsjD53md2j323bwr++vbsEh/ZZ5M8TlIV3VqHXRzd3/2z+OT3b4ydRgxpOT9r7oIcnv3orw/nebJz+fwW6zW1wEyh3s+v/F8cd+5N8Z8HR8Wl1z+1sJVjw4IozZ0c0fjGdpXNUij1p/8+2/L9NB+3/W90cUVEnx5d4oKT945hA3sUK8tPCjg/tu+mUVUknSns++JPb4tvXHJ33mPt1kdey60gj3735i3XXH/fyNj0yN9F7QE/i/ecdlUO377woXfkcymgO+O39+b7F2/HCQAAAAAAvDnh2uqsc6+IobtFdOpeLEQOgG79yYfi7OP3yKHQ4g7ceb24/twPtFRLtVVjp54RXRbu9Zb2TLvunEOX+noD+3SLy79xYPzf4dstUil30mHb5ntSQNfa/jusU77+PXHOZ/eMXbcYWqw2hWjN7Q4H9amNv5/53thxs4UhYrO1+vdYpC1i47wZ0djOfdc2XKt3fO3IneKJS49qCQZXhPTcl59+YPSqXXRPtzTv1qUpAD141w2WeM1WGwyIK797SHzrkzvH4e9aGFhqDwkAAAAAAO1TalzWhlW8qbq6umIU0bdv32K0Emmoj8ZRN5aPm8vjRSuV0k9+8vQ5MW9+U8vAnrWdc3Vbh/TeIFfM5derb2qZ2Gzx1+vcqTr69ey6zPaTqbIt3dPQ0JiDpCUFdMuSKvOa93LrW36tVMUV6Te+eM3GNClVl6flx7foj0Jj135Rmju1PGj6Hpaq1ftMUhg2adrsqK9vjOrqUvTv1S2qqxb98lpfU8n3u0Kl73W9A6O0zn7l8dv1JgAAAAAAYPkSrnXQSh+uJSlge+3WaBz1n4gFc4rFFaT3BlE14uhoHHt/NL56c9tfL+3Ztow2jauDSsO1FPyVWqdrqxrhGgAAAAAAqyFtIdcEVdVRWmffKG328Ygeaf+zFRx0lKrKr7d/lDb9WOWvl+7pu0mUNjg4okufYrEdqjqVn6u6mKzaqsr/lbqmwHbZ3590HAAAAAAA3joq1zpolahca62xIRonPh4x5q5onDk2YsHsVu0iSxGdezYFVK2lPckWzCzfmn5VGqNUXT5fU5sDsUWUSlFKbSE3PDSiU/l8Uv71aqx7NuL1u8uPz7WqZCu/VromVXH1Xj9Kg3eM6Dm86dS8adH4+j3ROOGxiJmv5/ecr6/pEtFtQJR6rhONM0ZHTH+tfK6o/urcI0oDto7S8H0jZrwWDc//tfw8M5vOtTJnXn3UTW96D8tsm5g/W/PnK3+Ghvr2FV+l5ym/tygV32n6jrr0znu95e91WVIoOniHiC598/cR00ctvCd9d13K312PtSLKnzvmT48Y93A0Thu58OdZ3bn82r3L3+965fPln9+UFxe26kwfJr2nmq6L/rzT+fo5+WddKl/TWNOt/PNedB+3ipV/T0rD3hWloTsXCwAAAAAAsOoTrnXQKheure7q50XjC1fktpRNoVyTp16ZHCf+6Oa447HRxUqTtI/b5z+wTXztqJ2iV22rEKlUFY1d+kSppls0LpgdpTlTyotvbFeZ9ji75eFX48Qf3xwvjpkateXnu/WCD8f2mwxquqBzryiNOCpKfTZumgMAAAAAAKs0bSFZrTRO/F80TvhfS7CWouOfX/m/2OaYP7whWEtmz10Q5/75odj+2D/G069MLlbL0v3zppcf62Pxfc9S9dv9z4yNr/zqzlj7gxfHu0+9MgdrAAAAAADA6k+4xupj/qyIcQ81tbos/Puel+KLP70tGooCzYF9usVRB2wexx68Zey1TdoPrslLr0+NY35wY0ya1ty2MqKU22EufK5mNz34Sux6wl9yKDdhyhvPAwAAAAAAqy/hGquNxpmjo3HGmGIWMXXm3Pj+Hx5oCdY+vv9m8eKfjolLv3pA/Or/9o2bz/9Q3PGzw6NPjy75/APPjItfX/NEHjcp37dgblMV21KktpJHHrBZy3MAAAAAAACrN+Eaq4cUoE0bFbFgVrEQ8eAz43L7xmRo/+7xzU/sHN27dsrzZrttMTS+86ldi1nEP257Ieqmzy1mZY0L3hCuDRvUM04/eue478Ijou7fJ8QPPrPHovu1AQAAAAAAqy3hGquHFIDNnhDRUF8sRNzyyGs5c0t23WJorDekV9NkMftsNzz69eyax0+NnJRbRDZrbKyPxlg0XNt2o4FxxjG7xA6bDo5ONf4IAQAAAADAmkQywOqhYX7E/BnlQVOatqC+IZ59tS6Pkx03Gxw11Uv+dR/Sr3tssFbvPJ41d0G8PjE9T5NSPpbeFhIAAAAAAFizLJdwbdq0aXHttdfGGWecEZ/85Cfz8ZWvfCWvpXMr0oIFC+Lhhx+O22+/PR8TJ04szrBGaaxv2h+tMGdefUyaOruYRYxYt18xKiuVf+079ygmkavPunetKWYRT70yuRiVpdK3BuEaAAAAAADQpEPh2rx58+Ivf/lLHHPMMfHzn/88HnjggZgwYUI+Hn/88bz28Y9/PD/Onr0w6Fie7rjjjvj2t78dZ599dj6ee+654gxrlNS+Me2PVolSdfk3v0sxibwP21oDFoZtiyo11cJVlcpH+b58bwriUk0bAAAAAACwpml3uDZz5swcZv3+97+POXPmRKlUigEDBsRuu+0We+21VwwdOjSqqqqioaEhV7ClACzdszyNHTs2/vCHP+TqNWibYjO2CpSqO0XUDmk6upePrv2jMQdsAAAAAADAmqZd4VpjY2P87ne/i3vvvTfPd9hhh7j44ovz2te//vU47bTT4pJLLolLL7009thjjxy8pUq2iy66aLkFYel5UrCWAjZIFWWlUoWBV24hOaeYRMycMz/GtNpnbRGNDU3tJhfMbhoDAAAAAABrtHaFaykou/nmm/N4q622ymFaqlRbXP/+/ePUU0+NfffdN89vvfXWuOeee/K4o1I7yHR06tQpDjnkkKitrW06wZoptWus6VpMIrp2ro7+vbsVs8X3UUuB2axiEjF/QUPMnLMw9F10f7ZSRP3ciDmTozRrbMTM8jF3SpQqDdpSKDfqv9H45G/Lx6XR+PwVEbMnFScBAAAAAIBVTZvDtVQxds011+Q91Lp37x6f+tSn8uPS1NTUxOGHHx79+vXL915//fV5r7aOGDduXPzxj3/Mz5daUO655565Oo41WFWniM69yoOm34Oa6qrYdHjfPE4ee3FiNC6lE+TYyTPjpTFT87i2S00MXcr+a6liM1e9pbAtPVaiYX40Tn4mGif8r3w82nTMbRX0AQAAAAAAq5Q2h2sTJkyIZ599No+33HLL2GCDDfJ4WdZaa63Yaaed8vj555+PkSNH5nF7pEAtBWtjxoyJIUOGxEc/+tFcvcYarqo6ovvg8uPC1pDvesewXHiW3Proa/HimClNk8Xc/PCrMXl6U5vIEev1jw2G9s5jAAAAAACAxbU5XEuhVl1dXR6PGDEiV6a9mVRVtu222+bxzJkzY9SoUXncHnfffXfcdttt+TmPOOKIHLBB1n2tiJqFrSB32Gxw7LRZ0+/H65Nmxtl/fDBmz110z7/7nxkb3/zNwlalH9xro+jbs0seT5s5L8649L444jvXxz/vfHGplW8AAAAAAMCao83h2ssvv5yrx1K4NXz48GL1zQ0ePLilfWRz5VtbpXaQl112WcyfPz922WWXeNe73lWcgYhS97Wi1GOtYhbRu3uX+OqRO0ZVUb72m2ufjPWP+E188vs3xvE//G8c+vV/xe4n/jWmzJibz++42eD49Hu3zOPk27+7L8783b3xt1uejSO/e308/Pz4vH79fSPz/c3Hqb+8I8ZObtrDbfa8BfG9y+5vOffFn94WI8dOy+cAAAAAAIBVX5vDtRRwJbW1tdG378I9rd5Mujbdk6TqtbZq3Q6yT58+8fGPf7yiqjnWIJ3Kv18Dto6obqo8Sw7edYM4/6S9WgK2CVNmx2U3Ph2X/PuJ+NfdL0VDUY6WWkH+9isHRP9eXfM8GV/XFJglKTSbUrSOfOylifn+5uNP/3025i1o2oMtPV2qcms+9+trnohJ05ruAwAAAAAAVn1tDtfaE4wlVVVVudotmThxYsyePTuPK3Xfffe1tIM89NBDY/311y/OwEKlAVtHqffCfQDTr9znPrBN3PPLj8QuI97YQrRbl5o49Yjt46FLPhabr9uvWG1y5AGbR5fOTQHuu3dcL3YeMTSPAQAAAACANVepsawYV+Scc87JIdfAgQPj3HPPzY+VmDRpUpxyyikxfvz42GKLLeLb3/52dOu2cH+sZZkwYUJ84xvfiNdeey222mqrOP3001taTCbPPfdcPp+Cv69//eux2267FWcq09agr7U5c1QlrWxqZr0W3UZdFVVzJxUrC82ZVx91RQVadXUp+vfqFtVVTaHvktQ3NMbc+fVR22X5VEk21PSIWeseFvU9hMMAAAAAALCyqaRrY5sr15rNmzcvZs1a2DZvRWluB5mCtRSofeITn1gkWFse6uvrc0jWnoOVz4LaYTFr2MFR3/WNwW/XztUxtH/3fAzqU/uGYG3xpDmdX17BGgAAAAAAsOprd7iWQq+5c+cWs7bp0aNHdOrUqZgtW2oHecstt+Txe97znthss83yGJalvsd6MXPDT8bcgbvmarE3V4rGqvLvZKde0VjduVgDAAAAAABYVJvbQv75z3+Oyy67LGpra+PMM8+sOOx64YUXcsvGGTNmxF577RWnnXZacWbpWreD3GijjfLr9erVqzi7UEfbQnakAq11S8lKSgV5GzTUR+PEx8q/UP+Lxlljyz/wuoj6eRGde0ZjlMp/COojamojqovAt6GhfH5WxILy70VD+bpcz1aK9CelVEp5dHmc/m+X3uX/20ble6o2Oiyi57BiAQAAAAAAWJW0OVy76aab4sc//nEef+UrX4k999wzj9/MQw89FN/5zndyxdtRRx0VRxxxRHFm6S688ML417/+lcc77LBD7Lvvvnm8uDFjxsRf//rXXEl36KGHxqabblqciRgxYkQMGDCgmC1/dXV1xUi49laa//gTxajtOm21ZTGKaHjpmoh504pZ21Rt9tFiBAAAAAAArCnaHK61rhI76KCD4nOf+1xxZtmaK95qamrim9/8Zmy//fbFmaU755xz4rbbbitm7dOeSra2EK69PSZ+/MionzCxmFWuy047Rp/vnlnMAAAAAAAA2qbNe66tvfba+Ugee+yxmDx5ch4vy7x58+Lxxx/P4/79+8e6666bx29myy23jP322+9Njx133DGHdsnWW2+9yLlBgwbldQAAAAAAAOioNleuJVdddVVcfPHFUSqV4vjjj49DDjmkOLNkt9xyS5x//vm5JeSHPvSh+OQnP5nvXV46uudaR6hce3uoXAMAAAAAAN4Oba5cS/baa69YZ511IuVyl19+ed5PbWmefPLJuOSSS3KwNmTIkHjPe97zhmBt9OjRcfvtt8cLL7yQnxMAAAAAAABWRu0K11KF1he+8IXo2bNnTJ8+Pc4444w4++yzc5A2adKkfLz88su5Wi1Vkk2ZMiU6deoUn/jEJ3LA1trrr7+er0n3f/GLX8xVbgAAAAAAALAyale4lmy22WZx2mmnRZ8+faKhoSFXnqX50UcfnY/Pf/7z8Z///Cfmz58fXbt2jRNPPDH23HPP4u6F0p5tM2bMyONUtTZ+/Pg8BgAAAAAAgJVNu8O1ZLvttouLLrooDj300KitrS1WF0rVavvss09ceOGFccABByxxn7X11lsvNtpoozxOQd0OO+yQxwAAAAAAALCyKTUup03OUvXa1KlT45VXXsnzddddN3r37h1VVW+e36W3kKrXunXrFjU1NcXqqqGurq4YNbXL5K0x8eNHRv2EicWscl122jH6fPfMYgYAAAAAANA2Hapcay2FaClc2nbbbfORxpUEa0mqaEv7t61qwRoAAAAAAABrluUWrgEAAAAAAMDqTrgGAAAAAAAAFRKuAQAAAAAAQIWEawAAAAAAAFAh4RoAAAAAAABUSLgGAAAAAAAAFRKuAQAAAAAAQIWEawAAAAAAAFAh4RoAAAAAAABUSLgGAAAAAAAAFRKuAQAAAAAAQIWEawAAAAAAAFAh4RoAAAAAAABUSLgGAAAAAAAAFRKuAQAAAAAAQIWEawAAAAAAAFAh4RoAAAAAAABUSLgGAAAAAAAAFRKuAQAAABwfbnQAAFlKSURBVAAAQIWEawAAAAAAAFAh4RoAAAAAAABUSLgGAAAAAAAAFRKuAQAAAAAAQIWEawAAAAAAAFAh4RoAAAAAAABUSLgGAAAAAAAAFRKuAQAAAAAAQIVKjWXFmHaoq6srRhF9+/YtRizRzBnR8OqrxaSNqqqjapNNiknEjN9fVozarsfRRxUjAAAAAACAthGudZBwrQ1mzogFN9xQTNqmasutFgnXAAAAAAAA3g7aQgIAAAAAAECFhGsAAAAAAABQIeEaAAAAAAAAVEi4BgAAAAAAABUSrgEAAAAAAECFhGsAAAAAAABQIeEaAAAAAAAAVEi4BgAAAAAAABUSrgEAAAAAAECFhGsAAAAAAABQIeEaAAAAAAAAVEi4BgAAAAAAABUSrgEAAAAAAECFhGsAAAAAAABQIeEaAAAAAAAAVEi4BgAAAAAAABUSrgEAAAAAAECFhGsAAAAAAABQIeEaAAAAAAAAVKjUWFaMaYe6urpiFNG3b99itHJonDo1Gu65O2LKlGKlA3r1iqpdd4tSRz7jzBmx4IYbiknbVG25VVRtskkxAwAAAAAAeHuoXFudLVgQMXVqNE6f3vGj/Dwxf37xxAAAAAAAAGsm4RoAAAAAAABUSLhGZTQPBQAAAAAAsOdaR63Ue65NmhQNN/0nGqdNy/PXp06NPb7/gxg1eXKeL0tt585xy6mnxHbrrpvnjV26RPVmm0X07JnnMX9BxIwZTa0iu3WN0oABURq+TkSnTnmt8bXXonHypIhZs5qu794jSrVdo/7xJyKqq6MxtaxMxzJSu1L5v6ivL1/SGKWBA6O0/vpRNWx4RI8exRVvlD5r42uvRqRWlnPmND1H167l1+8epbXWilK/fsWVi2qcOqV83+jyZ5oeUb4vasqfo1evKK299lLvAQAAAAAA1jzCtQ5aU8K1inTtEtGla8TMmUVwtgTp162mpvybVxUxf175sVScqFD5+lL//lG15VZR2nDDiKry85Sfs/GVV6LhySeicezYiIaG4uLFpHv79YvSZptH1aab5uCu4akno/H555v2lFvaH4XuPaJqww3ya6aQDgAAAAAAWHMJ1zpoVQ3XSqVSvG+bbWJAcyXaYrp16hRf3H+/WLd//2Jl+Uq/dW3N1RZRVZUr2aq3fUfUP/a/aHzxxaWHaotLLzx4cJRShV35O6pY9+5Rtf32UbXxJk2hHgAAAAAAsMYRrnXQqhqutasybWWTKtG6d4/GVCn3Vv0al7+3qp12iqrNNu9gOggAAAAAAKyKhGsdtCaEa6+Un+f8/9wUs+fPj40HDYrP7fOuGDVpcvzmrjtjyqzZMbBnj/LaPjGkV698/cy5c+OqRx6NKx5+KB4ZNSqvDe3dJ47Yacf4xO67R6+0B9pifnvnXXHfyy/n8Ql77xVbrr123PDkk/Hzm2+Jp18fEzXV1bHf5iPii/vtF5sMGZyvW5Jpc+bEPx58KC65447y552S1zYeNDiO3m23OPQd20b3Ll3y2uImzZwZf7z33vjz/Q+03LfjeuuX3+9u8e4ttojqVpVqpZ49o+pd+0Rp8NLfBwAAAAAAsHoSrnXQmhCuPfzKK/Guc8+LWfPmxTs32SQ+tcce8anf/jYail+dft27x22nnRqbDhkSf3vwoTjhsstyyLUkqc3kdV/8Qmy8WDCVnu+ye+7N47989vj479NPx0W33Z7nrXWqro5/nXxS7Lv55sVKk/RrfO3jj8fRl/x6qa+d3t/fT/hsbDZ0aLHSdN8f7r0vjv/972N+fX2xuqhdNtgg/nT8Z2JYq59vaeONo3qPPZv2jwMAAAAAANYYNo6iTZ4aMya+fsUVLcFasv6AATG4d++47N574+MXX9wSbvWtrY33bbtN7LPZZjkUS1IV3Lev/lcsWMb+aGdfd30O1qpKpVi7T58Y2GpfuBSAffOqf8bU2bOLlSZXPvJIHPbzXywSrA0tv6fW9z47dmwc89tLc5Vas3TfsZde2hKsbTBwYHxy993jwzvskPedS+596aX4/OV/zJV7LcrP1TilqcINAAAAAABYcwjX1lCpYmvijBm5mm1Jx5zWQVIrzfd885BD4oXvnxUvn/2DuOSTn4g+3brFgVtuGSPWWiuG9+sbN/6/L8W4H/8o/nHiiXFDefzYt89oCbruH/lyTCo/z9KkSrlj9tg9pvzspzHynLNjzA/Py9VsKWxLnn799RzSNRs/fXoO7JoDv4/utFNMuuAnMercc/K96X1uX1TopeeYUQRwre8rldd/9JHD45nvnhkXf+Lo+ONnjovHv/Pt2GjQoHztf556Kv736qt5nDSm56ibXMwAAAAAAIA1hXBtDZWqsN77kwtinVNPW+Jx01NPF1e+0VcOek984+D35haPqVVi2h8thVODevaMPx//mbjl1FPjXZttltea9ezaNbePTOrrGxapfFvcDuutF9//4AdbKseS/UeMiF033DCPp8+Zk/d8a3bfSy/liroktX489/APL7KvW3qfPz7iI3H2hz4YN53yf3metL4vPf+x73znIu85XZdaYCbzFiyIe198KY+z+vponD4jpZTFAgAAAAAAsCYQrtEmaa+292+77SIhVGubDx3aEl4lM+bOjRuefDKOvPiS3JaxEjtvsH70L4K4Zj26dIl1+vUrZou6/+WXi1HEfiM2j8G9ehWzhVIw9/8OOGCRwC7t69Zs62HDYsqsWW+o4BvSu3dxRcRTrzcFcS3mzROuAQAAAADAGka4toZK4VgKyT69555LPFJrxyUZ0KNHDO3Tp5i9UX1DQ1z7+OO5Kq72hBOj70knx8Hl8a3PPltc8ebW7vPG107vt6Z6yb+uo+vqitGS712aaa32bTvvhhuWWMH3qd/+trgiYkGxL1uWQrX6BcUEAAAAAABYUwjX1lCpgutr7z0oLjzqyCUe2wwfXlxZuamzZ8f7f/qzfNz45JMxv74+OlVXx07rrx+XfOITsfMGGxRXrprWGzCgGBWqqosBAAAAAACwphCu0TGt2iL+5KabcgvIZI+NN47nz/pezPrlL+Kur34lPrjD9tGlpiafW5FS5Vx7nHXYYTH/ol8t8/jmIYcUV5eltphdujQ9AgAAAAAAawzhGh1ThEtpb7Xbnn0uj2uqquK7Hzh0kUqvVMU2s3zNipD2U2t2x/PPx+z584vZQq9MmhRf/POf47VWLSS3HrawOu/BkSNjwRKCucbGxiW/7/K1DU89GY2jXikWAAAAAACANYFwjSZdu0bVO7aLqj32iKott4zo1Kk40XapFeTiVWpPjh4dj5ePJFWXtbfCbEl223Cj6FNbm8c3PfVUXPf443ncLL3WRbfdHj+/+ZZY/8tfiSsffiSv77LhBtG5eJ9XPfJIXP3oo3nc2j0vvpT3Xvvy3//xhtCu1LlzRM9exQwAAAAAAFgTCNdoUl0dpeHDomrzEVFaZ92INrZw7NqpUwzo0SOPUwj17av/FS+OHx9zFyzI+68d/etfx7zyOBkzdWpcetddcf/LL+d5R41Ya2gcteuuedzQ2BgfufBXccxvfht/eeCB+ON998XBF1wQ51x/fT6/4aBBscN66+Xx9uuuG0fstFMeL35fOj572R9ivx/+MKbNmRPn/+c/cdfzL+Rrs1IpSmutHaU+fYoFAAAAAABgTSBco0Oad1xLrSCP3HWXqCraRF7/xBOx2TdOjx4nfi7e+5MLoktNpzh5v33zudRqMYVvp1951XJpFVkqv+a33ndIvHuLLYqViD/ce28cefEl8Ylf/yZueurpvJbe21mHfSCG9+ub56nC7nvledofrlnzfen49R135HaWSbpu3803y+OsW7corb9++Un9EQIAAAAAgDWJZIAOKbUKlw7eeuu47Nhjo1fXrsVKky3XXjuu/NyJ8c1DDonDd9yhWI2ob2woH83xXNu1vrN3t27xtxNPiPOPOCIG9uxZrC60zfDhccupp8Zh221XrDQZ0qtXXPvFL8QPPvjBltaSraXnSp/pS/vvn0O8ZqW1h0Vp8OBiBgAAAAAArClKjamMiHarq6srRhF9+zZVRK0sGidNioab/hON06YVK8vQvXtU77tvlAYPicbRo6P+lpsjZs8uTi5Dl84Rc+cVkyZpj7NJM2dGfX1DdO5UE/1qaxcJpla09Cs9edasljaUPbt2jR5duuTxsix+X9qPbUnvvVT+OVe9a58o9e9frAAAAAAAAGsKlWt0SKlHjyj16lXMmlRXVcWgnj1jaJ/e0b9797c0WEvS66XXHdq7dz6WFKyVyuejU6di1mTx+5b03tNnrdp1V8EaAAAAAACsoYRrdEynzlG1++5R6v7GloorpaqqKK27XlS956Co3nvvykOydN/aa0fVvvvllpAAAAAAAMCaSVvIDlqp20JOnRoN99wdMWVKsbIMPXtG1a67Ralfv2icMKF83z0Rs2YWJ5ciVXUNHhylvv2i4ZGHI+bPL040WbzNYt/a2ui6WLVYi6pUIVYq/1e+ryH9Srbz1zLtt5Z+pefMiSheN+vcOUprrR1VW2xRflyrWCwrX5vaYDY8/XQ0jhkdMa9ocZk+W5cuUSo/X9pbrbTRxlEaOLDpHAAAAAAAsMYSrnXQyhyuvRXy/my33RYxc0axEjF7/vz4xc23xA+uuy6mzJpVrDbZYb314pwPfyj22GijhS0XU8DVuUtU9ezRFKnNKD9Xc8i1mLSX23eu/lf84pZb8vyoXXeJ3xxzTB4npY03ieo994yori5WAAAAAAAAlh9tIWm/2bOj4fHHFgnWXquri3edc2585R//eEOwljw4cmTsc+55cea//x3z6+ubFkulKC2YHw2p2myxrDdlv2OmTInL770vDvzx+THkS/+vJVgDAAAAAAB4qwnXaLfG0a9F47hxxSxixty5cdzvfhcPvfJKsRLxzk02iU/vuWeuMBuYWjYWzvzXv+OvDzxYzMoaG6M0b175F3LRcG1mee2oS34dn/zNb+K/Tz9drAIAAAAAALw9hGu0T319NIxutUdZ2TWPPRY3PdUUgPWprY3rv/TF+O8p/xcXHnVkbt344g++H8fssXs+n6TqtVcnL2yrmZ9zXqt90pYgtZU8cMstixkAAAAAAMBbS7hGuzSmlo+TJheziDnz58fl995bzCJOfNfesc9mmxWzJt06dYozDz00Nh0yJM9fHD8+7nj+uTxuUT+/GDSpqaqK9227TVz6qU/Fa+edG/d87au5Gg4AAAAAAODtIFyjfWbNjMY5s4tJxOtTpsYjr4zK4xSIHbDFFlEqlfK8tcG9esV+IzYvZhH/ffqZvK9alh7rG8qPTdOka6dO8YX99ouP77JzvhcAAAAAAODtJFyjfWbPiViwsIXjmKlTYuKMGXm8Vp8+scHAgXm8JDutv34xihg5cWLeV61FY+PCsA0AAAAAAGAlI1yjXRrnzY1oaChmEXUzZ8WCYr7egAHRs2vXPM7SuLq6mET06tqtGDWFa9PnzClmEaXG8vHGgjcAAAAAAICVgnCN9llQ39TGsRI1NYskZkN698r7ry1Zes7yteXrG6vKv57NBwAAAAAAwEpAasGK14Yuj/nSHrUR/fpFqW/fiPLR2KWLcjYAAID/3959x9lVVvsDXmdqMjMpk55AIAVC7x1pgqAXUZGiSLFiu7af6FVU1IioiNjrtStyvfZrF1EQkCpFICAkhDQgIW3Sps8585t3z540EnKSTDCQ5xm3s953n33OMJP/vp+1XgAAYLsgXGPLVFWWH3h1dqwzQnLB8hXR2tmZr9aTuuHa2tc5zw0AAAAAAGB7IVxjixRqatcZ19hYXxdV+Xr9c9SiY91wbUVba15t4Hy29LrWnvvLl0csber5viIKKZwrdwTlwiejeP11UfzLX6J43XVRmv5w+c8CAAAAAABsgnCNLVNXF7HWuWnjhgyNEQ0NWb1o5cp4vKkpqzfkjlmz8qo3XKuvqclX6+kuRXR19p7vVqbu5cuju+f9u2c9Gt0zH4nuJ+avE+wBAAAAAABsDeEaW6TQ0BCFFLDlxg4dEgftuktWp5GPv7333ujeQMfYkytWxF8e/Fe+ijhprz2j4Dw1AAAAAADgWUK4xpaprY3C0KH5ImJAdXWcd+SR+Sria9f/LW579NF81auzWIyP/vo38fCCBdl68qhRcezuU7I6BXE3zpgR53/nu/G+n/88FqxYke0DAAAAAABsTwrdG2ovomxNa40/bGxszKsdQ/cjM6J48829Z6r1WNXeHmd//evrdKYdN2VK7D56dBRLpbhx+vR4dNGi/E7E91//+jjvyCOyevqCJ+O4K66IJatWZetXH310fPs1r47lra1xxZ/+FEubW7L95J65c+PuOXOyetfhw+MFe++d1ckREyfG6455Xr7q+Qe++5SoPPbYiMrKfAcAAAAAAGDLCde20o4crkVLSxSv+2t0z5+fb0Q81vP7OOtrX4+78vBrYz78ktPiA6eeGtV56JVef/wVn4n2zs5s/R/77Rs/fctboqnnM4751OUxd+nSbH9TLjjqyPju616Xr4RrAAAAAABA/zIWki1XVxcVe+wZUVOTb0Ts3NgYf33ve+LS018WA6ur8901Dp0wIa77r/fGh087bXWwluwxZkyctE9vB1raf9Nxx2ejJgEAAAAAALYnOte20g7duZYUi1G64/YoPfhgRKmUb/ZK/7SWtrRER1dXth40YEA01NZm9ca0dHREbVVVVFb0T+6rcw0AAAAAAOhPOtfYOpWVUXHoYVGRzj1bL8AqFAoxvL4+xg4Zkl0bCtbWT3bramr6LVgDAAAAAADob1IMtl51dVQcdXRUnnxyFMaO7flXVcY/q/Sa2tooDByYUrh8EwAAAAAAYPtmLORW2uHHQm5A9/Ll0T394ehesCC6V66MaGnJutoKdXXR3dbWe0ZbuvpCtTQ2Mu13dqZZkul/UZFu5ffTP9BCev3mnsFWURGFSZOi4uBDygv8AAAAAAAANkG4tpV2hHDtzgV35NXmaxwwLCYP3a130bwqSvdP660317BhUTFlSr4AAAAAAAD49xCubaUdIVy7bs5f4tv3/Xe+2jwfP/ZTa8I1AAAAAACAZzmz8gAAAAAAAKBMwjUAAAAAAAAok3ANAAAAAAAAyiRcAwAAAAAAgDIJ1wAAAAAAAKBMwjUAAAAAAAAok3ANAAAAAAAAyiRcAwAAAAAAgDIJ1wAAAAAAAKBMwjUAAAAAAAAok3ANAAAAAAAAyiRcAwAAAAAAgDIJ1wAAAAAAAKBMwjUAAAAAAAAok3ANAAAAAAAAyiRcAwAAAAAAgDIJ1wAAAAAAAKBMwjUAAAAAAAAok3ANAAAAAAAAyiRcAwAAAAAAgDIJ1wAAAAAAAKBMwjUAAAAAAAAok3ANAAAAAAAAyiRcAwAAAAAAgDIJ1wAAAAAAAKBMwjUAAAAAAAAok3ANAAAAAAAAyiRcAwAAAAAAgDIJ1wAAAAAAAKBMwjUAAAAAAAAok3ANAAAAAAAAyiRcAwAAAAAAgDIJ1wAAAAAAAKBMwjUAAAAAAAAok3ANAAAAAAAAyiRcAwAAAAAAgDIJ1wAAAAAAAKBMwjUAAAAAAAAok3ANAAAAAAAAyiRcAwAAAAAAgDIJ1wAAAAAAAKBMwjUAAAAAAAAok3ANAAAAAAAAyiRcAwAAAAAAgDIJ1wAAAAAAAKBMwjUAAAAAAAAok3ANAAAAAAAAyiRcAwAAAAAAgDIJ1wAAAAAAAKBMwjUAAAAAAAAok3ANAAAAAAAAyiRcAwAAAAAAgDIJ1wAAAAAAAKBMwjUAAAAAAAAok3ANAAAAAAAAyiRcew4rRXGLr/VVV1Rv0QUAAAAAAPBcUujukddsgaampryKaGxszKvtw0PLboonWx7NV+WrLFTFMWPPy1cAAAAAAAD00bkGAAAAAAAAZRKuAQAAAAAAQJmEawAAAAAAAFAm4RoAAAAAAACUSbgGAAAAAAAAZRKuAQAAAAAAQJmEawAAAAAAAFAm4RoAAAAAAACUSbgGAAAAAAAAZRKuAQAAAAAAQJkK3T3ymi3Q1NSUVxGNjY159fRau1bEtKXXxfKOBbGpX351oTYmDzksxjfsm++U76FlN8WTLY/mq/JVFqrimLHn5SsAAAAAAAD66Fz7Nyh2d0VbcWW0dq2Mtk1cLV3Lo7PUlj8JAAAAAADAv5NwDQAAAAAAAMokXAMAAAAAAIAyOXNtK23JmWurOpfGPYt/H8vaF2TrtpaOuPT1341pt/eej3bJt18bh5+0d1ZXFqpjz8ZjYtLgQ2NJ27xY1Do72oqrorPUHtUVtVFXNSQG14yMYQN2jmKpMxa0PBJd3R0RPX/WxW1zej5rzc/XpztKUeouRXchpauFnquq570GRKHQs9Fj/TPX2ostPe87PVZ2Lumpm7O9AZUNUV89LBprx8bg6pGxsHVWz/3FPR9byu5vSBqHmZ5PP3tVRU3P840xeuCknp9/VP4KAAAAAACA7ZtwbStt63CtolAdQ2tGZ2e0pfPXNiaFcINqRkRzx9Lo7G7PdzdHIQvraivrs+8pXFvQMiNmrbg7mtrnR7G7M3/dU6WQrKJQGSs7Fuc75Sv0fDVUD49dBu0XEwYd2PM+VfkdAAAAAACA7Y+xkNu57u6uWNr+2NMGa0kKv5a1z4+upwnBnl53dJbaorlzWXSUWuKexX+Iuxf9Pha3zX3aYC1p7myKVZ1Let5h83Pa9EzqeHtw6d/izoW/zoJHAAAAAACA7ZVwbTu3uYFVGvm4NbqjGM2dy+OxVQ9sMlRbW2qATF1oWyr9d6bRkg813RQdpdZ8FwAAAAAAYPtiLORW2tZjIfukP9NjjyyMP//kjrjvlkdi5bLWqKquiL0Pmxinnn9U7H7A+NVnpvVZ+FhT/Po7N0VHW2c0DB0YZ731+VEqdsdvv//3uOl390Z7a2fsNGlEvOi8o+LIk/eOyqrK/Ml1pZ/vtj9Pi5v/cH/MnPZ4tjds9OA4/qUHxklnHxp1DQOyvbVd2/NzTv/nvKz+jwuOigl7jIm7b3g4fveDm2PujIXZz37gMVPiZW84tudnGJm9Lklnv+3deHzsMmj/fAcAAAAAAGD7IVzbSs9EuNa0aGV848O/iluvmZbvPNU573xBvOr/nbxOwPbI/Y/FB1759SxEGzluaLz5Y6fHl973s1jR1Jy/Yo0DnrdbXPT5V0XjyEH5Tm+g9/ff3xdf/cAvomVVW767rlE7N8bHfnhh7DRxTUCWfOE9P4nrfnlXVl/8tQvi3ptnxB+vvi1bry0FelO///qez989W6fut7H1U2L/4S/Mzn4DAAAAAADYnhgLuZ1buawlPva6764O1goVhdh1jzFx/MsOilE7rQnzfv716+Phe+bmq6da9MSy+MSbf5AFaw1DBsbwMUOy9+pz782PxDen/jqKXcV8J+L6X94dn3nH1auDtfTcESfvkwVxfV1uqTvufz5/bRSLGx9HmX62FKylz0ufO2RYfX4nss+76spromVl72ek8ZApfGztWpGtAQAAAAAAtifCte3coKF18cJXHZF1pP3H+UfFj+/9WHz5TxfFe77wqvjWTRfHGW8+IXtdV2cxHrp7TlZvTBrfOPUHF8bV90yN7936ofjZA5dlHW99br/2gZhx32P5KuKQE/aIXaaMjhFjh8ZlV78pe+5D33xNfPxHb4qvXvue1SHZjHvnxsqmlqzekNRBd/IrD88+L33uVXd9NOtm6wv35s14Mp58bE0HYEexRbgGAAAAAABsl4RrzwInnXlIfOLHb443T33ZOuebpcAtjXvsU+zaePdYcv57XhgHHzdl9ejImgHVWTi37xGTsnUK6O6/dWZWJ0OGN8T7v3J+XP7Tt8b+R++2zsjJ9HMMauwN19Lndpc2/tm77z8+Xvv+U7PP63NQz8+x18G7ZnVrc3ssemJNuFbq+erq7sxXAAAAAAAA2w/h2ja2omNR3P7kz+Mvj30jrs2vWxf8pGd/cf6KTUuhVArAKip7/1ylYikWzFkSP/vqdfH9y3+f7W1K6oBLAdn6BtTVxEHHTslXEY8/uiiveo3ffXR2rlqfdD7c3Tc8HJ9559Xx2MyF+e7T2+OgXWJQY12+6pU+d+RaYy3X1t1dyi4AAAAAAIDtjXBtG2rrWhkPNd0Yi1pnR2tPndbZVVwVpe6u/FXlaVq4In702WviwmM+FafvdnG86YRPx1VX/inaW8vr8EphVsPgNV1va9t58qi8ilj4eFMWoPVJQd6d1/0rpr7m2/Hy3T8Qr9jnkpj62u+s0+G2KemctfWlLrjKPCzckO4QrgEAAAAAANsf4do20lXqiIeX3RyL2mZHd8/X1rj1T9Pi9c/7VPz0K3/Nwq9k2OjBceoFR8UbLnlJtt4aldUb/mfQsrItLn3D97Lr7hunR7GrGJVVlTHlwF3inVe8IutIAwAAAAAA2JEI17aBNNJw5oo74vHmh6K0leMNn5y3NL75sV9nwVahohBv+9SZ8asZn4rv33ZJvOXSl8fYCcPzVz69Uqk7ij3Xhjwxa82IysHD6qO6tiqrf/2dm7IRkMk+h02Mb914cfbZV/7q7XHMi/eP6pre1wEAAAAAAOwohGvbwNxV98XsFf+MYveakY2p4+zD538z5s9Zku+s0dHeGcuXNuerdc2ZviCWLFie1Ue9cN94wdmHZd1jfVpWtufV01v65IqY+/CCfLVGd3d3zFlrf9iowdm4xjQa8v7bekc/pvUF7/uPGD1+WLZOujqL64yPBAAAAAAA2BEI1/rZys7FMXvlP6Oj1Jrv9I5X/PL7fxb33vxIfOm/fhpNi1bmd3ql/cceWZjVg4bWxdhdR2T1+lKnWEVFIV9F1s12+7UP5Kve89E2JoVov/rWDdnPsrYZ986Lv//+3nwVceAxu+fVGpXVlT2fvSbQS1LoN/uh+Vn9dF1xAAAAAAAAzyXCtX42sHJwDKoeHoWerz6L5y+PWQ/2BlEP/GNWvP7oT8Yn3vSD+OoHfhEfPOcb8Zl3XJ2FX8nu++8co3duzOqkYUhd1jmW3PyH++L6X94dHe1dsWzxqvjmx36T7fW59Zppccsf74+Vy1rynXWlEO8dL/pc/Pb7f4+be173zam/jvef/fVob+3tsNt9//Gx1yETsjqNhkwjIpOOts74n89fm3XddXZ0ZeevffZdP86615LUFfeXn/4jpv9zbrYGAAAAAAB4rhKu9bOqipoYXbdbVFcOzHcidpkyOt72yTNXj3Ps6zi75n9vj2m3P5rtJfWDB8a5F70wagZU5zsRk/YeF/sdNTmrU5j1hff+JM7a84Px6sMujT/+6NZ4yWuPiZ0mjczuP3L/Y3H5f161wZArvfdu++0ci55YFt/62G/i0z2v+90Pbs5+lr77b7709BjUWJetU6B34hmHZOe8JXf97aF48wmfjjP3+GBMfc23o6a2Kl76+mOzeykY/J/P/zmuuvJPRkUCAAAAAADPacK1bWDkwAkxrHZcvup11Iv2jS/94f/FPodNzHfWlfav/L+3x5QDxuc7vQbU1cS7P3dOdt7a2lLodf57Xhiv/9CL48IPvyTqGgbkd9IZbl15tUZdQ22890vnxmmveV6+s8YeB+0SV/z8P5/y2YedtFe894vnrvPeya57jIkPfeu1ce7/OzmOPe2AfDeNpeyOUmnjoykBAAAAAACe7QrdffMI2SJNTU15FdHYuGac48LWWTFtyV+iuWtZvrNGCr+al68Z3Vg/pC7rBNuU1BXWuqr3zLRynkmdbB94Ze/Yx5HjhsaVv3p7NI4avM7nD2wYkAV4Tyed5ZZGTabvVdVV0TB0YBQKa8Ze9rfqitrYZ9iJMb5h3UARAAAAAADg303n2jYyauDELCAaXNM7snFtKRRLIVfftX5IloKrAVWDnhJgpRBsY89sjrU/f0PB2trnxSUVlRUxZHhD9vo0NnJbBmsAAAAAAADbM+HaNjS6bnIcMerM2KVhv6gsrDlH7elUFCpibN2UOHLUWTFx0MFlP1eu1H22fMmqaFq4IpYtXrX6zLW1pWbGqsLTd7MBAAAAAADsiIyF3EobGwu5viVt82J+y/RY2bEkWosror3YHF2ljvxuxIDKhhhaOzZ2HbR/jBo4Kd+NWNw2J+aunNbz/NxoK67K9lJnWVVFbdRXN0Zd1eBY1r4gWrqWZ/fWtvZYyBFjh8TBx+0Rf/3FXU8J1A4+fo94w4dOi/G7j853UshX2fPzjInu7mIs71gcpe7ec9wqC1VRW1kfg2tGRWepteezn4xid2d2L0nPVVbUZK/bUjUVA2PPocdk4SQAAAAAAMD2RLi2lcoN154Jjzf/K+5f8ufozEO7tcO1NNoxda1tTKGiEO/89Nlx4pmHrB77WFtZF/sMe37sVL93tgYAAAAAANjRGQv5HNIdxSiW1nSlDW6sj+NOOzDqBw9cHaylEO3wF+wdLzzniDjmxQdEzYDesZPdpe746gd/EQ/eOTtbJ+3FlpjfPCM6S+35DgAAAAAAwI5NuPYc0tbVHN09X31G7dwYI8YNjeYVrdl6zC7D4ivXvCcu+dZr422fOjPe95Xz4nu3fij2O6p3/GJXZzGu/uw10dayZlzl8o6FsaJjUb4CAAAAAADYsQnXnkNau1bG2lM+VzQ1x9//cF++ijj33afE+N1G5ateg4bWxZumvizrbkv+defsePTBJ7I66Sg1x/KOJ/MVAAAAAADAjk249hzSXmyO6D0uLfPYzEXxxKO9XWeNIwfFngdPyOr1jd11ROx1yK5ZXSyWsoCtTxoz2dK1LLq7N35eGwAAAAAAwI5CuPYckcKvqoqadPDaagsfa8rCsmSnSSNj6IiGrF5fTW1VTNx7XL6KmDdj7U617ugotkaxuytfAwAAAAAA7LiEa88R3VHKzlsrrNW5tmTB8ryKGLVTYwyoq8lX6XU9f/q1gri6hgF5FbHw8abV566l9+zq7si+AwAAAAAA7OiEa88Rpe5Sz1Vmd1l3IbKvtYK4cRNG5NVTpfdO4R0AAAAAAMCOTrgGAAAAAAAAZeq3cG3hwoXxs5/9LC6++OJ47Wtfm12XXnpp3HDDDdHa2pq/aut1dXXFP/7xj/jMZz4Tb3jDG7LPSd8vv/zyfv+sZ5OKQkXPVZWvNqEQ2Rlta496fGL24rx6qvTeBTksAAAAAABAFLp75PUWaW5uju9973txzTXXRKm04dGBAwYMiFe84hVx5plnRlVVmQHQetKPedttt8UXv/jFWLlyZb77VIMGDYp3vetdceSRR0Zh7bmH20hTU1NeRTQ2NubVMy+FZQ80XR+zV/xz9QjHv/3fPfG5d/84q/c9YlJ85LuvX+vctXVddeWf4mdfvS6rTzzjkPh/n31lVqfxkePq94z9h58SVRUbfhYAAAAAAGBHsVXh2qJFi+LjH/94zJw5M1tXVFTE6NGjY8qUKdHZ2RnTp0+PJUuWZMFY8oIXvCDe8Y53bHbAlp7/+c9/Hj/84Q9XB3gjRoyIffbZJ6qrq7PPeuCBB2Lx4t7uq7R30UUXxXHHHZett6VtEa79adqCvNo8xZr7o1A7LYr52WsP3jk7PnTON6JYLMXwMUPiM796e4zo+b6+jvauuPytP4w7r38oW7/m/afGmW85IatT19rEQYfEXo3HRaGnBgAAAAAA2JFtcbjW0dERl112Wdx1111Zh9gpp5ySjWgcPHhw/opec+fOjS9/+cvx4IMPZq+74IILsi62zekqu/766+MLX/hCNhJy7Nix8Z//+Z9x0EEHrfMe6T/jxhtvjC996UvR1taWBXzp56uvr89fsW1si3Dtgu/eEUtWteer8r3woI7Yc8JD0VFsydYrmprjA6/8Rsyb8WS2vujz58QJpx+c1WubM31BXHz216N5RWtUVlbEJ/73LbH3oROye6lbba/G42PCoAOzNQAAAAAAwI5si1uR0vlmd999d1afdNJJWeC1frCW7LLLLjF16tTYb7/9sgDsF7/4RcyYMSO/u2npmXSeW7FYjHHjxsUnPvGJOPjgg58SzqV16lQ77bTTsvWjjz4aDz3U24m1o2hra4gBlWvCxMGN9XHMqfvnq4j//eJfYv6cJfmqV8vKtvj2pb/JgrVkr0MnxKS9x2V1UlNRF4OqR+QrAAAAAACAHdsWhWvpnLU//OEPWfCVAq/zzjvvaUc9pu6xc889NwYOHJg9m85nK7dhLoVmZ599dlx44YXZWWpp7OTGpNceeuihUVtbm3W5zZo1K7+zY2jvqIuhNWOyc9L6nHzO4bHz5FFZ/cTsxfGWE6+Iy974/fjqB34RX3jPT+LNJ3w67r35kex+VXVlnPeeF65zLtuQmlExuGZkvgIAAAAAANixbVG4Nnv27Jg3b15WH3nkkTFqVG9483T23HPP2GOPPbL6nnvuyc5iK1c6y+3000+PfffdN9/ZuBSs9QV9KWDbkZRKFTG6breoXat7LZ2x9t4vnRsjxg7N1t2l7rjjLw/GNf97e1z3y7ti+dLmbL9QUYi3ffLM1eMgk5qKgTGqblJUV9TmOwAAAAAAADu2LQrX0sjF1tbWrFOsnMArqampib333jurly1bFvPnz8/q/lYqlcruinsuGjFglxg1cGIU1vrTpjGPX/j9u+LUC47KQrT1HXz8HvGVP10UJ5116Opxm6n7bfiA8TGmbrdsDQAAAAAAwBaGa31npqVxj8OHD8/qckycODH73t7ennW/bQvpnLWWlpase2333XfPd3ccVRU1MXnIYdFYOzbf6ZXOX3vLpS+PX03/VFx150fiB7dfkl0/f+iTMfX7b4jxu687bnNQzcjYbcjhWfcaAAAAAAAAvTY7XOvo6Iimpqasrquri8bGxqwux7Bhw7JnknT2Wn9bsGBB/Pa3v83qSZMmZaMod0QN1cNj3+EnxfABO69z/lpSUVkRQ4Y3ROOowdlVU/vUs/KG1IyOfYedFEPXC+gAAAAAAAB2dJsdrhWLxazzbEuks9P6xg7OnTs3+95fli5dGldeeWUWsFVXV8d5552XddbtqFJAdvioM2PK0KOjvqr3vLVNGVg1KCYPPiyOGH1WFswBAAAAAACwrkL3Zh5Qls5a++hHPxoPPPBA1hn28Y9/fHU32qZMnz49Lrnkkqxr7fjjj4/3ve99+Z2tkwK1T37ykzFz5swsvLvgggviFa94xeogb1NWrVoVXV1d+WrzbIvz3d760wejqaUzX5Xv4PGD430n9Y7eXFt3dymWdM2JxZ2PRktpWXSUmqOruyMqC9VRU6iPusqhMbxqQoysSWe1VeZPAQAAAAAA7FjKmdi4RWeu9UkhWRoT+e+Sgq0777wz3vOe92TBWupYu/DCCzcrWOuT3mtLrmeDQqEiRlRPjD3rToqDG86MIwe/Oo4ZcmEcNfg1ccigs2KvuhfEqJrdBGsAAAAAAACbsFXhWhoPmcZEbonhw4fn1ZZJod63vvWt+NjHPhbLli3LRkD+13/9V7zsZS/b7GANAAAAAAAAyrHZYyGTK664Im644YYYOXJkfOYzn8m+l+P222/Pxkimj0yjG88555z8zuaZN29efPrTn45Zs2Zl68mTJ8cHP/jBGDNmTLbeXFvTgZaCvT7ltAqW44Lv3hFLVm3+uXaHTxwWU1+yT74CAAAAAACgv21R51pf11kaC7lkyZKsLsfChQtXB1m77LJL9n1zpGdvvvnmbAxkCtYqKiqyTrUrr7xyi4O1JHW6bekFAAAAAADAjmOLwrU999wzC5ZaWlpixowZ+e7TS8HYww8/nNVDhgyJnXbaKavLlZ7/+c9/HpdffnkW6g0dOjQ++tGPxhvf+MaoqanJXwUAAAAAAADbzhaFa5MmTYoRI0Zk9W233Zadf7YpTU1Nq4O4nXfeOUaNGpXV5bruuuvihz/8YZRKpazrLY2mPPTQQ3WPAQAAAAAA8IzZonAtjWA85JBDsvqBBx6I++67L6s3JnWdXXPNNfHYY49lYdjJJ58cAwcOzO9u2vz58+Oqq67KgrVx48bF1KlTN7vzDQAAAAAAALbWFoVrKSA77bTTstGMnZ2d8fWvfz3mzJmT311XCtZuvPHGbKRjkkZKHn300VndJ3W+3XnnnXHLLbdkIx/XlwK8RYsWZfUrX/nKGD16dFYDAAAAAADAM6lyamoD2wKNjY0xcuTIuOOOO2LFihXx17/+NRYvXpztpQ6z1tbWmDVrVha8pWAthXCDBg2Kiy66KOs+W9uPfvSj+OpXvxo33XRT3HvvvXHssceuc47a9ddfH//617+irq4uTjrppBgwYED2/pu6UghYXV2dv8u20dbWllexWd14T+dX9zwerR3FfFW+nRoHxgl7bN64TQAAAAAAAMpX6E6tZVsoPXrttdfGf//3f68TMm1I6nJ7z3veEwcffHC+06tYLManPvWpuPXWW7N1OovtyiuvjOHDh2frJJ2vdsMNN+Sr8l1wwQVxzjnn5KttI50l1ycFjv3hgu/eEUtWteer8h0+cVhMfck++QoAAAAAAID+tkVjIfukzrBTTjklvvGNb8SJJ564wS6x1G12+umnxze/+c2nBGtJZWVlHHfccdmz6f3Sa4YMGZLfBQAAAAAAgO3HVnWura+rqyuWLVuWjYNMIyDHjh0bgwcPzkKzTUnnrqWroaEh33l20LkGAAAAAACw49iqzrX1VVVVxYgRI+Kwww6LPffcM+tAKydYS9IZa8+2YA0AAAAAAIAdS7+GawAAAAAAAPBcJlwDAAAAAACAMgnXAAAAAAAAoEzCNQAAAAAAACiTcA0AAAAAAADKJFwDAAAAAACAMgnXAAAAAAAAoEzCNQAAAAAAACiTcA0AAAAAAADKJFwDAAAAAACAMgnXAAAAAAAAoEzCNQAAAAAAAChTobtHXrMFmpqa8iqisbExr9aYv7wtrrjmoZi1uDme7hddWSjEyXuNjtc9b0K88aq7Ysmq9vxOr1LPn6m5vRjLWzujuaMre6+66soYWlcdg2qro+fxOHzisJj6kn16HwAAAAAAAKDfCde2UgrXTvzKP6KppTMLuIYOrIkRDTVx4PjGeNmB42L04Np401V3ZeHappx58M7x8ZftG2/+0brhWrHUHQtWtGXB2oYMGVgdowYNiOftNly4BgAAAAAAsA0ZC9kPmjuK2fcUUza1dMSMhaviZ3fNi/O/c3u87+f3RUdXKbu/JVLH2pMr2jcarCXp3qJV7dFZlJMCAAAAAABsS8K1beyeecuy0ZBbqqWjGCvb1g3WDth5aBw9eXi+6rW8tSPmLG3OwjgAAAAAAAC2DeFaP0hnpZ1x0E7ZdeKeo/LdNdYOvC46eUrMuOw/YvanXhwPTH1h9szGpMfaOopRXOv5b75qv/jVW4+Kq99wRPzmTYfEpJH12X56Sepwa9+KLjkAAAAAAACenjPXtlI6c61+0JCoqVqTU3YWS/Hg/BXxg1tmxy/veTzf7ZXCtbcePzmqKyuiub0rPvzraatfM2F4fZxx8E7xx2kLorOrO6oqIxauaI+lLR3Z/eftNiI+f+Y+MWpoQ7Zubm2Pj/z2X/GL/PnhDTVx+RkHRENtz4O5FOwta+mMJ1e0ZWe37dQ4MPYaMzh2GVYXlRWF/FXrWryqPaY9viKeWN4ay3ueHVpfHeMb67Kfb8zgAT0/14afAwAAAAAAeK4Trm2lDYVrfVLI9ou7H4+Lf3lfvvP04dr6qioqorbnfZs7urJ1fW1V/PRNR8U+4wZn6wUr2uKin/4zbpm5JFtvjnFDB8brnzchzj5kfAwZWJ2dC/fXhxbG926eFXfOadroeMlh9TXx5uMmx6sOHx+DB1TnuwAAAAAAADuGyqk98pot0NbWFk+2lGLhyras46ur1B31NVVRKPT8cisKsduohmys452zm7LXHzV5eBw2YVh2L4Vv1z+8MP61YGV2b30p4EqviUhBV+/rH13cHCMaamNeU0t87W8z47qHFmav3Vwr27rixhmL428PL8oCsyv+/HB85fpH4vFlrdmnbUxrZzH+/sjiuO+x5XHorsNiaJ2ADQAAAAAA2HHoXNtKqXPtiM/dlnV+9Xnd0RPi3SdPWd3ZlYKoV337tqxTbXM6154pKehLIyM31wv2Gh2fPmP/bBwlAAAAAADAjkC4tpU2FK4l73vhHvGGYybFjIUr44prHo4bpy/K9jcUri1u7oh3PH+3mDJ6UFRVFLLusFtnLonv3jIr7pm7LHuuzydfvl8cvMvQrJ6zpCXe/KO7sjo5/8hd45WHju9570IsXtURn+n53Mkj6+O8I3bNOug29d5JGj356p73edG+Y7Jz1tJYypS7pRGU1z64IL76t5nZz52k9/vgqXvFq4+akNUAAAAAAADPdcK1rbSxcC2FVPuMHRx3zF6a7/RaP1z7/f3z46UHjIsB1ZX5K9aYvaQ53v3Tf64Tgl194RHxvMkjsnrGwlVx8udvyOpk7fdOYdgfpy2IVx02vuz3fvlBO8X/O2lK7DKsLhtrub70L+XOOUvjtd//x+qAbf+dh8R/n39ojB0yIFsDAAAAAAA8l1Xk39kKg2sr423H7hJnHrzz6lAqhU/rB2vrq6upyp5J4VdbZzF7Jp3Z1mfXYfXxuqMn5qvNM3Rgdbzi0PLf++S9R8eHX7x37Dq8N1hLYyKbWjpi5qJVsarn2RSspf2DxjfG25+/W/5UxNylLTFnSXO+AgAAAAAAeG4TrvWD/cYNilcePCbefNykmDC8Pt/dtBRWpcDrGzfOjD0/8qfYZ+o1ceEP/xHzl7etvp9GRW6JFKpVVVSU/d7XPvhk3D23KUrd3fHg/BXxuh/8Iw76+LVx0uduiCM+9df457zeDreqykLsO25wVidtnaVsBKX+RwAAAAAAYEcgXOsHw+trslGMOw0dGHusF4YNHlAVwxtq89W6UiCVQq3L//hQvhPxt4cXxS0zF+eriCEDq+PwCcPyVfnKee+hddVx9OTh+Sriq397JL5/y+x4ww/+sfqMuCR1vaUutj4Va52v1lUq9Xa29XwBAAAAAAA81wnX+kHfsXWLVrXHI4tWZXWfFW1dsaRnf0Pau4ox7fHl+WqNpc0dq0c4pg6z1C22uTb23qlzrbO47vlwfdL5a5f+7sHV3W3pHLXXHj0hfvzGI+PY3XvPeduQ1O0GAAAAAACwIxCu9YOlLZ3R0VWKWYubVwdT5Ujnmi1c+dTXt3YWVwd2W2pj772pIOyMg3aKX7zl6Jg29YVxy/tPiqkv2SeOmjQ868wDAAAAAADY0UlM+sG0+avip/csiJ/f9Vg2QvHZ6rNnHxBXnHVAHLJrYzTUVmV7zR1d8cATK9YZEwkAAAAAALCjEq71g+VtXfHVm+bG7++fn+9EdpbZLe8/MX73jmPiuCkj893t1wVH7hov2ndMVFUUsq63Pz+4IE75wg2xz0eviRd/+aaYv2LDHXldxe7467+ejDtmLV09yhIAAAAAAOC5Sri2jbxon7ExevCA2HfckLjyrAO2+4Bt352GRH1Nb7favKaW+NQfH4oZC9ecH1dfU5lXT/XXhxbGN26c+azu2gMAAAAAACiHcG0beMeJu8XLD9opKisK2Xra48ufVWMVe89ra89XEbuPaoh9xg3JVz3/aAq9/11ra2rujJaOYr4CAAAAAAB4bhKu9YM/vvPY+NO7eq+7PnRyXPSCPWLQgN4usGUtnfGrfz6e1duzFa2dq8c67jqsPj5z1v5xwM5D42UHjosvnnNQTBhen91LpowalJ3PdvLeo/OdiOU9z7d06FwDAAAAAACe24Rr/WB8Y13sOWZwdg1vqIm+xq6VbV3xjRtmxm/vfaJ3Yzt2/cMLY9HK3nPVqioLceq+Y+PXb3tefPGVB8VePf9d055YngVoSfpvPOOgneP5e4zK1snK9s7V9wEAAAAAAJ6rhGvbQGexFPfMXRZv+/Hd2Vlkzwa3zFwSV1zzcMxZ0hLdvQ1smTQi8vZZS+Kin/4zfn///GjvKuV3Imoq1/zzaesoRVOLcA0AAAAAAHhuK3T3yGu2QFNTU3z0mtlRlZ+v1tpZjBtnLI7m9mfviMSjJw+PMYMHZPXMRc1x72PLsvrpVFdWxCdO3zfOOmTnDZ7JBgAAAAAA8FwgXNtKKVw74nO3RcdaHV3rq6goRCk/z+y5qqG2Ki4/Y/84db8xwjUAAAAAAOA5y1jIbWzK6EGru8Ceqw6fOCx+/MYj48X7jRWsAQAAAAAAz2k617ZS6lw75/v3xswlLdFV7P1VThxRHy/Ya3ScvPfoGD14QHzhL9PjoQUrYs6S1mjpeOq4yLXHMC5r7YzrHlqY1WtL75yCq6qKiMrKiqwT7um65Z7OkIHVscuwuqyjbrWefwaTRjbEzIWr4r7Hl2dbVZWF2HloXRae7TF6UFzzwIK4c05TlHpem36Wg3cZGhceOylO3GNU1KQfDAAAAAAA4DlOuLaVUrjWp7GxMa/WtbKtKz7ym2nxq3sez3ci6mur4r9O2SNOP3CnLOxau+Erndt226NL4kvXzYh75q457yyNXtxp6MCorCjEirbOeGJZWxZ0rW/3UQ3xrpN2j5P3HhO1VRXZ+W8f/vW0+GX++S/aZ0x89uwDsp8BAAAAAACA8mk32saKpe7447T5PdeCfKc3/PqfNxwRrzlqQgytWzdYSwZWV8bz9xgV3zjvkHj5QTvluxHNHcVoau7I2tjWz9RS99ulL903/vjOY+MPPddp+4/LgjUAAAAAAAD6j/RlG1vS3BE/uXNetHUW852Ij5y2d+y/89DVoVrqbHv4yZXZ6MilPa/vC87SSMl3nrh7FsYlqclwec9r24tr3qvP256/W7z6qF1jr7GDo7rSnxUAAAAAAGBbkMJsYw8+sSIeXrAyX0VccOSucfCujVmwlkK0O2YvjTO+fnO88As3xou+eFMc+5nr49f3Pp51vCW7Dq+Ltxw/OauTzmIp2jpLT+l2W1saKzlj4aroyt8DAAAAAACA/iFc24a6it1x72PLormjK9+JOG7KyKiv6T3rLHWpfefvs7IgrE86H+1D/zctHsoDuYpCIQ7ZtTEmjqjP1umMtZbOrqectTZnSUv8/ZHFcfkfH4oTP/u3bBSl4/QAAAAAAAD6l3BtG0rjGx9dvGr1mMcUkPWNeExmL2mOax5YcxZbnxSw3TWnaXWANqKhNgvY+nR2dq9+zz4f/NX9cf53bo9v3Dgz5i9vy3cBAAAAAADoT8K1bai9sxQLV7Tnq4jJIxtiUG11vop4ZNGajrX1zey5l8Y/JrVVFbHLsLqsTox7BAAAAAAA+PcQrm1D7V2laOko5quIwQOqYkB17688nZ325Io1HWbD6mti5KDafBWxsq1z9VjH6sqKGD14QFYn3fkXAAAAAAAAzyzh2jZULHVnAVs56moqV5/Flixa1R7NawVza0vjIrujEBU9f72aqkIM6Hm2tqoyCoX8BQAAAAAAAGwTwrXtxPpnqG1KQ01VTBk1KHYbOSgmDa+PnRsHRn3tmnAOAAAAAACA/idc24YqKwrZeWnlWNHWmV19RjbURn1NZb5aVwriVrZ3Zme6bW4oBwAAAAAAwJYTrm1DKVirr10TkK1o64q2zt4xkeufo7ay597S5o58FTFoQHUU8jmP65/P1lXqjoUr2mPm4lUx/ckV8VhTayxd1RHtnRseI7m+B+eviC/+dUZc+eeH43PXTo8/TJsfHWWOrwQAAAAAANiRCde2oQHVlTF2yMB8FTFz0aqs46zPLsPq8uqpJo9s6Hm+98+Tzm2bu7Qlq9dX7O7temtq7YjOtChDeq9v3vRofOX6R+JL182I3/zziSzAAwAAAAAA4OkJ17ahmqqKmDJ6UFTkHWizFjfHjIWrsjpJZ6a9cJ8x+WqNdHbaIbs2rn5u8ar2uGtOU1YDAAAAAADw7yNc24aqKgqx55hBUbfW2Wk3Tl8UzR1dWT2sviZec9SEGDtkzXjI5NKX7pM9l5S6u7NgLQVzyVuPnxzXvOPo+MPbj44Lj5mU7QEAAAAAAPDMKHT3yGu2QFPTmo6yxsbGvFojnZX2n/9z9zqdZ1e9/vA4ZreRkTemZeetPbG8NdKfYmhdTYweNGD1vRSqvemqO7OOt9TldvnL94vG+prs3oKe977op/+MW2Yuif8+/5DYdfiaMZMDq6ti/LCBWfdbV7E75ixtXj36sbWjFF++fkZc99DCbP2invf97NkHZB1zAAAAAAAAbJzOtW1sRENtvPSAcVFVmadlPS793YNx32PLoi/WHDSgKvYYPSj2HDM4xgxeE6ylYC6didY3SrK+pjLWaoKLAVWV0VjXG7RNGtmQPd93paCtb6xk+ux0hlvfvSmjG2LowOrsHgAAAAAAAOUTrm1jlRWFrOPs4F3WdLWlsOzc79weP7lzXixv7cx312jtLMb1Dy+Mt1x9V/zqnsfz3Yh75i2L6QuWZx1u6br3sWXx+/vn53cBAAAAAADY1oyF3EqbGgvZ5x+zl8Y7//eemL+8Ld9Z4+jJw7OOtSQFazfOWBzN7b3nsm1I6j4rlkqrO9q2lrGQAAAAAAAA5RGubaVyw7X0W7591pJ43y/ui7lLW/LdMqXpjtvwryRcAwAAAAAAKI+xkM+QdPzZkZOGx6/e+rx410m7x/CG3rPSnk5lz0PD6mti18a6GFDtTwUAAAAAAPDvpnNtK5Xbuba+ts5i3D5raVz30MK4//Hl8fCClVHq+VNMGT0oFq5si6qKiqivrYyKlMr1KPbcW9HaFSvaOrPRkamVrdDzl6usrIiKit7XNNRWxU5DB2Z1udKjx+0+Mt5y/OQYWF2Z7wIAAAAAALAhwrWttKXh2tO54Lt3xJJV7fmqfIdPHBZTX7JPvgIAAAAAAKC/mTUIAAAAAAAAZRKuAQAAAAAAQJmEawAAAAAAAFAm4RoAAAAAAACUSbgGAAAAAAAAZRKuAQAAAAAAQJmEawAAAAAAAFAm4RoAAAAAAACUSbgGAAAAAAAAZRKuAQAAAAAAQJmEawAAAAAAAFAm4RoAAAAAAACUSbgGAAAAAAAAZRKu9ZNSd/dWXeurqarY7AsAAAAAAIBtq9DdI6/ZAk1NTdn31q7uuHdJZ1Zvrj1HNcTEYfX5CgAAAAAAgO2VdicAAAAAAAAok3ANAAAAAAAAyiRcAwAAAAAAgDIJ1wAAAAAAAKBMwjUAAAAAAAAok3ANAAAAAAAAyiRcAwAAAAAAgDIJ1wAAAAAAAKBMwjUAAAAAAAAok3ANAAAAAAAAyiRcAwAAAAAAgDIJ1wAAAAAAAKBMwjUAAAAAAAAok3ANAAAAAAAAyiRcAwAAAAAAgDIJ1wAAAAAAAKBMwjUAAAAAAAAok3ANAAAAAAAAyiRcAwAAAAAAgDIJ1wAAAAAAAKBMwjUAAAAAAAAok3ANAAAAAAAAyiRcAwAAAAAAgDIJ1wAAAAAAAKBMwjUAAAAAAAAok3ANAAAAAAAAyiRcAwAAAAAAgDIJ1wAAAAAAAKBMwjUAAAAAAAAok3ANAAAAAAAAyiRcAwAAAAAAgDIJ1wAAAAAAAKBMwjUAAAAAAAAok3ANAAAAAAAAyiRcAwAAAAAAgDIJ1wAAAAAAAKBMwjUAAAAAAAAok3ANAAAAAAAAyiRcAwAAAAAAgDIJ1wAAAAAAAKBMwjUAAAAAAAAok3ANAAAAAAAAyiRcAwAAAAAAgDIJ1wAAAAAAAKBMwjUAAAAAAAAok3ANAAAAAAAAyiRcAwAAAAAAgDIJ1wAAAAAAAKBMwjUAAAAAAAAok3ANAAAAAAAAyiRcAwAAAAAAgDIJ1wAAAAAAAKBMwjUAAAAAAAAoU6G7R16zBZqamuKmx1ujq9QdHT1XVUVF1FZVRGexlO0lpVJEd3fP/xUK2bqiopClmpU9r62pKsQ+owfFxGH12b0kPXfP48ti/or2nuc2/udJ77NrY13sN2Zw31sDAAAAAACwDelc6wetXaVoL3ZHysGKpVI0dxSjvWevWOrOrvS1dvpV6tlLAVp7VzGa24sxp6k12npe32dZa2c8ubK95326oqWzuNFrVXtXzF/RFit7XgcAAAAAAMC2J1zrZ8XuFLKV3wxY6nltCsj+PmtJLG3pyPYWNbdHa2cxqzclBXBLmnufAwAAAAAAYNsSrvWzQs/X2lLQtmp5UyxbvDC7VixdHKXSU4OzRava49Y5S2NuU0tP3bF6pOSmdBRL2bOpQw4AAAAAAIBty5lrWymdufaTu2bHkOEj851erc2r4v++/aW45n+/Fx3tbfnuGgccfUKc+ZaLYvI+B0ZhrZGRgwdURVcxoqWzd9RjsdgVX774bXHHX/+QrZMDjzkx3n3lN6O6pjZbNw6sjqMmDIshA6qzNQAAAAAAANuGzrV+sH46uXj+Y/HR174sfvuDr28wWEvuveVv8ZFXvzT+7ztfjmLXmjPTVrZ1RWtK13JLFjwR0//5j3zVa/q9d8aCubPzVRoNWYzFRkMCAAAAAABsc8K1frD2IMgUlF39hU/EYzOn5zsRex1yZJx4xrnZdcgJp0RlVVV+J4Vnj+dVrxTUlUql3kWP+2+7MZYtWZSverWsXBH/uuvWfBXR2fP6havayx4lCQAAAAAAwJYRrvWD7rV61xbMmx0P3PH3rK6qro4P/ff/xoe/9bO48JJPZ9d7Pved+M5N/4pTz3tj7LbvQXHOOy5eJ2yrLBRWj4ns7GiPu264NqvT3kHHnpTVyd03/mV1V1wa7NnU0pl1vQEAAAAAALDtCNf6xZretUVPzItVy5dldTpPbfLeB2T12mpqB8S57/5QfOibP4mGIY35bs9+ZUWs3XyWRj+mEZDJuIm7xSve9r4YMXbnbP3wPXfE44/OyOqkpbMYi5rb8xUAAAAAAADbgnCtnw2sb4jKyt5OtBS0rVzWlNXrq6iojNoBA/NVRHVlRdRWV6zTBZdGP6YRkMk+hx4d43fbI/Y+7Khs3d7WGtNuvymrk65iKQvXjIYEAAAAAADYdoRr/WzkuPHROGpMVi9duCC+dPFbY87DD0SpVMz2Nib1vrV3rjlrLY18TKMfk2wk5HEvyAK5w57/H9le8s+br4+2luasTpFaGg25rLUzWwMAAAAAAND/hGv9rHHk6Dj5Fa/OVxEzH7g3PvCqF8UFh0+K97/i5PjJV6+IRx+8L4pd656P1lEsZVefJ+fNiUem3ZPVY3edHBP22DerJ+613+rRkDPuuyvmPfJQVietncVYbDQkAAAAAADANiNc62epy+zU894YL3nNW/OdXt2lUhaE/fo7X45Lzn9xvOHYveL3V33zKSFbn3/+/a+rR0Lue/jzYvCw4Vmdwru+0ZBdnZ1x3603ZHWSRkIuWtUR7V1rQjoAAAAAAAD6j3CtH6SRjmurrKqKV73rg/HZX/4tTjrz/Bg8bER+Z4009vHqz388vnf5h54SsKVRj2nkY9I3EjJ971uvPRry3pv/Fi2rVuariGVtnbG85wIAAAAAAKD/Cdf6xYY7xcZOmBxv+NCn4ht/uSe++/eH4oNf/5849rSzolCx5td+/f/9bzz8z3/kq16pwy2NfEzWHgnZZ5fd9oxh+blus/51/wZGQ3bkKwAAAAAAAPqTcK1frN+79lQD6upj3yOOjbde+vmso23UTrtk+2lc5P2335TVfdKoxzTyMXli9iPx1pMPinMPHr/6etdLjo6lCxdk94vFrtVdbkmx1B0LV7VHm9GQAAAAAAAA/U641g8qK6vyqlca89gXjm3ImF0mxkHHnpSvIpY+OT+vIhvxmEY9bo47r/9TrFy2NF9FNhZyWavuNQAAAAAAgP4mXOsHtXV1edUbrKVz1K54x6vXOQutXGnEYxr1mNQOGBjHvvjMOPGMc59ypf10P3li1iMx5+EHsjpp6yzFolXCNQAAAAAAgP4mXOsH1TW12ffu7u74w9Xfiut++T8x7Y6/x6fffkEseuKx7N7aFsydFffc9Nd8FTHlgEPyKrIRj2nUY3LEKafFWy79fFx4yaefcr1p6pVx8PEnZ69Ln3vn9ddk35NSz/fFze3Z+WsAAAAAAAD0H+FaPyoUClFRUZmvImbcd1e867Sj4pLzXxzfvuz92fXZd78+3nPGCbHw8bnZa4aOGBX7Hn5MVqfRjmnEY5/Dnv8f2XtuSBpFeegJL8xXEdPuuDlWLF2Sr9JoyK5oat34aEoAAAAAAAA2n3CtX6wJwE49/43xuos/EZVVa85he/TB+7JutnTddcO10V0qZfuFiop47fs/HqPHT8jWabRjGvGYjBi7c0zca7+s3pjd9j0oho0ak9Xz58yM2Q9Py+qkvasUC1e2R97MBgAAAAAAQD8QrvWz1Gl28iteHZ/71Y3x/Je/ap2QbW0HHH1CXPHTv8ThJ52ardcf7bj3YUdF48jRWZ3U1VTG6IbaqKlc8ycbNmZs7HHQ4Vmdnrv1z79ZdzRkS0e0GA0JAAAAAADQbwrdfWkMW6SpqSn+NKt57ea1daRfb/OKZdHV2TuisVCoiIYhQzcaum1IeuuqyooYP2RgdBRL8djy1t4bmzCgqjIOHT80xg8dmO8AAAAAAACwNXSu9YfCxvPJ1MnWMKQxO1stXUOGj9isYC1J795ZLGXBWmNddVRVbCTJW096/cJVRkMCAAAAAAD0F+FaPyhsrG1tGxhRXxsDqyvz1dNLoyGXtnREc2dXvgMAAAAAAMDWEK71g2VLFkZnR3u+Wl93Fr0V+il/a6itjFENtVFfUxl11Zu+UtNac4dz1wAAAAAAAPqDM9e2UjpzbdSYMdHV0RGT9zkgznv3h2OPgw7PxkH2qaqoiLqaytTiFi0dXdFV3PCvfNXypvj5Nz4Xf/7J97P1saedFW+99PNZnew8ZGAcsWtj1FTKRAEAAAAAAP4dpDT9aOYD98alF54Vv/zm56PYtWYUY7G7Ozq6imlOY77TK+WaTYuejL//4ZfxybeeG296/v6rgzUAAAAAAAC2P8K1fnDMf7w8BjcOz1cRv/jvz8etf/5NvuoN0TpL3VnItrb21pb4ygffHl+75F0x7fab8l0AAAAAAAC2V8K1fvCWqVfGl/5wW5xw+jn5Tm/AtuTJJ/JVb9NaMTt9bePSWMkDn/f8fAUAAAAAAMD2RrjWT2pqB8Qr3/b+GDdht2z95LzZ8dBdt2d1r+4oFUuxdvNaZVVVHHLCKfGfl30xvn7tPfHxq34Xex1yZH4XAAAAAACA7Y1wrR8NGT4i9jvy2HwVcf8dN2UjIZP0rRTdUVirea26pjZOPe+NccypZ2TPAgAAAAAAsH0TrvWz3fY9KK8iFj0+LztXrU+pu5Aa2AAAAAAAAHiWEq71g7VPUhvY0JBXveFaW0tzvkq6sy8AAAAAAACenYRr/aBirVmPQ4aPys5f25A0GrKQorjsf4Xsl5+tAQAAAAAAeFYQrj2DUow2sLoihg6ojiEDq2Jwz/eaqsI657ABAAAAAACw/RKu9YNSaknLLV+yMDra2/LVutJIyLZiKTpLPa83HRIAAAAAAOBZR7jWD9bOyVpXrcqriJE7jY8BdfX5qncsZGdXdzS3d8Wy9s5Y2dEVXcXubL8cTa0dccvspfG3mYvjhp7rXwtXlv0sAAAAAAAAW0+41s8emXZPXvWGa7UD6/LVerojiqXuKG5GOtbcUYz5K9qy64mea/GqjugslfK7AAAAAAAAbGvCtX60fMniuP+2m/JVxH6HHxsFB6oBAAAAAAA8ZwjX+kmxqyt+9vXPxBOzH8nWo8dPiD0POSKru7u746G7b4+vXfLOuPrzl8WyJYuyfQAAAAAAAJ5dCt0p+WGLNTU1xVkXvj0euOPmePKxOfluxH9e9sU45tQzsnr+7Jkx9Q1nxMqmpdn6uJeeHW/+6GejddXK+PX3vhrNK5Zl+8msf92fXcnIcTvHfkcel9XJbvseFCecfk6+ith5yMA4YtfGqKmUkQIAAAAAADwThGtbKYVro8aMia6Ojnwn4sw3vztOf8M7o7KqKlunsGzq614enR3t2frAY06Md1/5zWhesTw+8uqXxuIFj2f7m3LsaWfFWy/9fL4SrgEAAAAAADzTpDL9aPI+B8RHvv3zOONN714drCVjd50UBxx1fFan/RecdX5U19RmawAAAAAAAJ49dK5tpdS59pO7ZkXtwPoYUFef725Ye1trVNfUREVFZb6zdXSuAQAAAAAAPLOkMv2gccSoTQZrSe2Agf0WrAEAAAAAAPDME65tA4Wer+rKQtRUVfRUGgMBAAAAAACeK4yF3EppLORf57ZEVUUhOnt+ldUVFVmwVlEoZPc7iqXo6CpFqdQdpbTVnf1fFsBlL0nPVFZEZc/zm6PQ8/C4wQPiwJ2GZJ8NAAAAAADAtidc20opXEtau7rj3iWdWb259hzVEBOHbXqsJAAAAAAAAP9exkICAAAAAABAmYRrAAAAAAAAUCbhGgAAAAAAAJRJuAYAAAAAAABlEq4BAAAAAABAmYRrAAAAAAAAUCbhGgAAAAAAAJRJuAYAAAAAAABlEq4BAAAAAABAmYRrAAAAAAAAUCbhGgAAAAAAAJRJuAYAAAAAAABlEq4BAAAAAABAmYRrAAAAAAAAUCbhGgAAAAAAAJRJuAYAAAAAAABlEq4BAAAAAABAmYRrAAAAAAAAUCbhGgAAAAAAAJRJuAYAAAAAAABlEq4BAAAAAABAmQrdPfJ6u9bV1RX33HNP3HzzzfHggw9GR0dH1NfXx8EHHxynnHJK7LzzzlEoFPJXP3Oampqy761d3XHvks6s3lx7jmqIicPq8xUAAAAAAADbq+0+XEs/XgrVvva1r8X8+fPz3afabbfd4r3vfW+MHz8+33lmCNcAAAAAAAB2HNt1uJZ+tF//+tfx/e9/Pzo7e4Or1K02adKkGD16dMydOze72trasnuDBg2KqVOnxp577pmtnwnCNQAAAAAAgB3Hdh2u3XnnnXHZZZdlwdrIkSPj7W9/ezYGsqJizVFxaTzkH//4x/jhD3+YhWzjxo3Lnknh2zNBuAYAAAAAALDjWJNSbWdWrFgRV111VRaspY60iy++OA499NB1grWkpqYmXvayl8W73vWuqK6ujieeeCKuvvrq7Iw2AAAAAAAA6E/bbbiWutZmzpyZ1aeffvomRz0effTRWfiW3HHHHTFv3rysBgAAAAAAgP6yXYZrqevs9ttvz85cGzZsWBx33HH5nY2rqqqKU045Jfu+cuXK7HkAAAAAAADoT9tluLZq1aqYM2dOVu+0005ZwFaOiRMnRmNjY1ZPnz7daEgAAAAAAAD61XYZri1evDiampqyetSoUTFgwICs3pSGhobs9Uk6ey2FdAAAAAAAANBftstwbfny5dHW1pbV48aNy76XI4VwfV1u7e3tUSwWsxoAAAAAAAD6w3YZrqVgbEtGOhYKhaio6P1Pam5ujiVLlmT1pnR0dGzxBQAAAAAAwI6j0N0jr7cbt9xyS3ziE5/I6osvvjiOPfbYrC7HFVdcETfccEPU19fHZZddFlOmTMnvbFwaH9nZ2ZmvtkxrV3fcvbC3225zTRhcFTs1VOcrAAAAAAAA/h0aGxvzauO2y861tS1btiyvtn8Hj6rdomvYgMr8HQAAAAAAANiebffhWhrvuCVqa2ujoaEhXz29NE6ypqZmi64+A6sKPVfFFl8AAAAAAABs/7bLsZDTp0+PSy65JAvWzj333DjvvPPyO0+vra0tpk6dGvfff3+MGjUqrrzyyhg+fHh+FwAAAAAAALbOdtkylTrOUudZMm/evCg3/0vhWt8YyZEjR0ZdXV1WAwAAAAAAQH/YLsO1dFjc2LFjs3r27NmxfPnyrN6UhQsXxtKlS7N61113jYEDB2Y1AAAAAAAA9IftMlxLodg+++yT1fPnz8/GRJbjwQcfzEZJpjPUDjzwwHwXAAAAAAAA+sd2Ga4lxx13XAwaNCi6urrid7/7XXR0dOR3NmzBggXx29/+NqsnT54c++23X1YDAAAAAABAf9luw7UJEyZkAVty9913x49//OMsaNuQlStXxpe+9KUsYKuqqorTTz89Bg8enN8FAAAAAACA/lHo7pHX25004vHjH/943H///dl64sSJcfbZZ8fee+8dFRUVWdh22223xU9/+tNYtmxZ9poXvOAF8Y53vCML2QAAAAAAAKA/bdfhWrJ06dK44oorVgdsG5POWTvhhBPibW97W3ZmGwAAAAAAAPS37T5cS0qlUtx4443xox/9KObPn5/v9kqhWjpj7fWvf33sv//+2RoAAAAAAAC2hWdFuLa2VatWxaJFi7KQLYVqjY2NUVNTk98FAAAAAACAbedZF64BAAAAAADAv0tF/h0AAAAAAADYBOEaAAAAAAAAlEm4BgAAAAAAAGUSrgEAAAAAAECZhGsAAAAAAABQJuEaAAAAAAAAlEm4BgAAAAAAAGUSrgEAAAAAAECZhGsAAAAAAABQJuEaAAAAAAAAlEm4BgAAAAAAAGUSrgEAAAAAAECZhGsAAAAAAABQJuEaAAAAAAAAlEm4BgAAAAAAAGUSrgEAAAAAAECZhGsAAAAAAABQJuEaAAAAAAAAlEm4BgAAAAAAAGUSrgEAAAAAAECZhGsAAAAAAABQloj/D7KDB72ghATwAAAAAElFTkSuQmCC;" vertex="1" parent="1">
          <mxGeometry x="-120" y="37" width="1090" height="767.54" as="geometry" />
        </mxCell>
        <mxCell id="pk3eSVctqFGyBk3BA1aZ-3" value="" style="endArrow=none;dashed=1;html=1;rounded=0;strokeWidth=4;strokeColor=#FF6666;" edge="1" parent="1">
          <mxGeometry width="50" height="50" relative="1" as="geometry">
            <mxPoint x="-130" y="289" as="sourcePoint" />
            <mxPoint x="991" y="289" as="targetPoint" />
          </mxGeometry>
        </mxCell>
        <mxCell id="pk3eSVctqFGyBk3BA1aZ-4" value="" style="endArrow=classic;startArrow=classic;html=1;rounded=0;exitX=0.701;exitY=0.962;exitDx=0;exitDy=0;exitPerimeter=0;strokeWidth=9;fillColor=#fa6800;strokeColor=#C73500;" edge="1" parent="1">
          <mxGeometry width="50" height="50" relative="1" as="geometry">
            <mxPoint x="851.0900000000001" y="777.3734799999997" as="sourcePoint" />
            <mxPoint x="851" y="297" as="targetPoint" />
          </mxGeometry>
        </mxCell>
        <mxCell id="pk3eSVctqFGyBk3BA1aZ-5" value="&lt;font color=&quot;#ff247b&quot; style=&quot;font-size: 36px;&quot;&gt;&lt;b style=&quot;&quot;&gt;Elite&lt;/b&gt;&lt;/font&gt;&lt;div&gt;&lt;font color=&quot;#ff247b&quot; style=&quot;font-size: 36px;&quot;&gt;&lt;b style=&quot;&quot;&gt;Countries&lt;/b&gt;&lt;/font&gt;&lt;/div&gt;" style="edgeLabel;html=1;align=center;verticalAlign=middle;resizable=0;points=[];" vertex="1" connectable="0" parent="pk3eSVctqFGyBk3BA1aZ-4">
          <mxGeometry x="0.1227" relative="1" as="geometry">
            <mxPoint as="offset" />
          </mxGeometry>
        </mxCell>
        <mxCell id="pk3eSVctqFGyBk3BA1aZ-6" value="" style="endArrow=classic;startArrow=classic;html=1;rounded=0;strokeWidth=9;fillColor=#fa6800;strokeColor=#C73500;" edge="1" parent="1">
          <mxGeometry width="50" height="50" relative="1" as="geometry">
            <mxPoint x="851" y="287" as="sourcePoint" />
            <mxPoint x="851" y="85" as="targetPoint" />
          </mxGeometry>
        </mxCell>
        <mxCell id="pk3eSVctqFGyBk3BA1aZ-7" value="&lt;font color=&quot;#ff247b&quot; style=&quot;font-size: 36px;&quot;&gt;&lt;b style=&quot;&quot;&gt;Underdeveloped&lt;/b&gt;&lt;/font&gt;&lt;div&gt;&lt;font color=&quot;#ff247b&quot; style=&quot;font-size: 36px;&quot;&gt;&lt;b style=&quot;&quot;&gt;Countries&lt;/b&gt;&lt;/font&gt;&lt;/div&gt;" style="edgeLabel;html=1;align=center;verticalAlign=middle;resizable=0;points=[];" vertex="1" connectable="0" parent="pk3eSVctqFGyBk3BA1aZ-6">
          <mxGeometry x="0.1227" relative="1" as="geometry">
            <mxPoint as="offset" />
          </mxGeometry>
        </mxCell>
      </root>
    </mxGraphModel>
  </diagram>
</mxfile>
